{"glyphs":{"0":{"ha":738,"x_min":71,"x_max":668,"o":"m 374 694 q 592 603 515 694 q 668 344 668 513 q 590 84 668 175 q 365 -7 511 -7 q 147 82 224 -7 q 71 335 71 171 q 149 601 71 508 q 374 694 228 694 m 368 628 q 191 554 253 628 q 129 340 129 481 q 191 129 129 201 q 371 57 253 57 q 547 128 486 57 q 608 336 608 200 q 547 553 608 479 q 368 628 485 628 z "},"1":{"ha":468,"x_min":18,"x_max":288,"o":"m 283 286 l 286 0 l 214 0 l 218 276 l 217 607 l 28 550 l 18 556 l 18 613 l 275 692 l 288 682 l 283 286 z "},"2":{"ha":622,"x_min":71,"x_max":576,"o":"m 310 690 q 437 649 388 690 q 486 544 486 608 q 446 418 486 489 q 321 247 406 347 l 164 64 l 167 58 l 457 58 l 571 64 l 576 57 l 567 -3 l 438 0 l 128 0 l 75 -1 l 71 1 l 71 49 l 264 272 q 378 423 342 363 q 415 529 415 483 q 384 600 415 572 q 297 628 353 628 q 104 528 190 628 l 96 528 l 83 583 q 310 690 183 690 z "},"3":{"ha":560,"x_min":49,"x_max":489,"o":"m 256 692 q 398 644 343 692 q 453 521 453 597 q 415 403 453 460 q 310 314 378 347 l 310 308 q 443 239 397 289 q 489 114 489 189 q 451 -17 489 40 q 344 -105 413 -74 q 188 -136 276 -136 q 58 -125 121 -136 l 53 -64 l 58 -57 q 190 -78 121 -78 q 358 -27 294 -78 q 421 107 421 24 q 367 225 421 182 q 214 272 314 268 l 140 272 l 135 278 l 136 329 l 197 331 q 281 354 238 331 q 352 418 324 378 q 381 507 381 458 q 344 597 381 563 q 246 631 307 631 q 68 546 160 631 l 60 546 l 49 603 q 256 692 147 692 z "},"4":{"ha":653,"x_min":40,"x_max":606,"o":"m 599 119 l 485 121 l 461 121 l 464 -124 l 458 -131 l 404 -136 l 399 -129 l 401 121 l 122 121 l 47 119 l 40 128 l 40 176 l 396 688 l 463 688 l 461 181 l 599 181 l 606 172 l 599 119 m 401 590 l 393 590 l 108 181 l 401 181 l 401 590 z "},"5":{"ha":571,"x_min":51,"x_max":504,"o":"m 497 626 l 490 621 l 410 626 l 174 626 l 167 376 l 256 357 q 442 276 385 329 q 499 138 499 222 q 458 -6 499 57 q 343 -103 417 -68 q 175 -137 269 -137 q 58 -125 119 -137 l 51 -62 l 58 -56 q 188 -78 129 -78 q 364 -22 297 -78 q 431 128 431 35 q 382 236 431 194 q 226 301 333 278 l 115 324 l 108 332 l 115 675 l 131 689 l 201 688 l 390 688 l 500 690 l 504 685 l 497 626 z "},"6":{"ha":643,"x_min":74,"x_max":576,"o":"m 358 475 q 519 414 461 475 q 576 246 576 353 q 508 59 576 128 q 318 -10 440 -10 q 136 67 199 -10 q 74 289 74 144 q 181 610 74 471 q 486 824 289 750 l 493 824 l 544 790 l 544 782 q 151 411 213 664 l 158 404 q 358 475 249 475 m 324 43 q 462 94 413 43 q 511 238 511 144 q 467 372 511 325 q 342 419 422 419 q 140 336 235 419 q 139 290 139 322 q 324 43 139 43 z "},"7":{"ha":569,"x_min":35,"x_max":529,"o":"m 472 688 l 528 689 l 529 635 l 240 0 l 185 -144 l 125 -126 l 121 -114 l 460 625 l 135 625 l 42 619 l 35 629 l 40 690 l 149 688 l 472 688 z "},"8":{"ha":646,"x_min":71,"x_max":564,"o":"m 332 819 q 483 769 428 819 q 538 631 538 719 q 497 508 538 556 q 386 428 456 461 l 386 422 q 477 375 440 399 q 539 313 514 351 q 564 215 564 274 q 494 53 564 114 q 308 -7 425 -7 q 135 50 199 -7 q 71 200 71 107 q 249 417 71 340 l 249 422 q 144 499 183 454 q 106 615 106 543 q 169 765 106 710 q 332 819 232 819 m 329 765 q 213 725 257 765 q 168 617 168 685 q 208 516 168 551 q 322 450 247 481 q 435 517 393 476 q 478 626 478 557 q 438 728 478 690 q 329 765 399 765 m 311 393 q 182 321 229 363 q 135 204 135 279 q 183 90 135 133 q 314 47 232 47 q 451 92 400 47 q 501 210 501 138 q 476 293 501 260 q 415 345 450 326 q 311 393 379 364 z "},"9":{"ha":643,"x_min":67,"x_max":569,"o":"m 285 214 q 124 275 182 214 q 67 443 67 336 q 135 630 67 561 q 325 699 203 699 q 507 622 444 699 q 569 400 569 544 q 462 78 569 218 q 157 -135 354 -61 l 150 -135 l 99 -101 l 99 -93 q 492 278 431 25 l 485 285 q 285 214 394 214 m 319 646 q 181 595 231 646 q 132 451 132 544 q 176 317 132 364 q 301 269 221 269 q 503 353 408 269 q 504 399 504 367 q 319 646 504 646 z "}," ":{"ha":239,"x_min":0,"x_max":0,"o":""},"!":{"ha":350,"x_min":115,"x_max":224,"o":"m 201 290 l 156 286 l 147 296 l 153 901 l 160 910 l 214 913 l 224 904 l 201 290 m 163 90 q 208 44 208 90 q 161 -4 208 -4 q 115 42 115 -4 q 128 77 115 64 q 163 90 140 90 z "},"\"":{"ha":351,"x_min":69,"x_max":290,"o":"m 117 649 l 76 643 l 69 650 l 81 879 l 136 885 l 143 876 l 117 649 m 265 649 l 224 643 l 217 650 l 228 879 l 283 885 l 290 876 l 265 649 z "},"#":{"ha":693,"x_min":28,"x_max":665,"o":"m 451 343 l 608 343 l 614 336 l 610 294 l 440 294 l 381 44 l 336 44 l 331 51 l 388 294 l 231 294 l 171 44 l 125 44 l 121 51 l 178 294 l 33 294 l 28 300 l 32 343 l 190 343 l 229 513 l 85 513 l 79 519 l 83 563 l 242 563 l 297 799 l 342 799 l 347 789 l 293 563 l 451 563 l 507 799 l 551 799 l 557 789 l 503 563 l 658 563 l 665 556 l 660 513 l 492 513 l 451 343 m 282 513 l 242 343 l 400 343 l 439 513 l 282 513 z "},"$":{"ha":592,"x_min":75,"x_max":499,"o":"m 499 185 q 443 58 499 113 q 294 -4 388 4 l 279 -176 l 240 -176 l 233 -168 l 246 -6 q 75 43 154 -1 l 82 106 l 92 110 q 250 46 158 53 l 274 324 q 179 372 215 350 q 118 428 143 394 q 93 510 93 461 q 151 635 93 583 q 304 690 210 686 l 319 890 l 360 890 l 368 882 l 353 689 q 476 658 414 685 l 465 600 l 453 597 q 349 638 401 629 l 326 368 q 453 292 408 332 q 499 185 499 251 m 153 514 q 185 444 153 472 q 279 389 218 417 l 300 640 q 193 598 233 636 q 153 514 153 560 m 299 46 q 399 92 361 54 q 438 175 438 129 q 407 247 438 218 q 321 303 376 276 l 299 46 z "},"%":{"ha":1124,"x_min":63,"x_max":1061,"o":"m 888 903 l 224 -125 l 192 -108 l 185 -93 l 849 936 l 881 918 l 888 903 m 264 892 q 406 831 357 892 q 456 656 456 769 q 404 472 456 536 q 256 408 353 408 q 113 470 163 408 q 63 647 63 532 q 115 829 63 767 q 264 892 167 892 m 258 838 q 152 790 189 838 q 115 651 115 742 q 261 461 115 461 q 367 509 331 461 q 404 647 404 557 q 367 789 404 740 q 258 838 329 838 m 868 478 q 1011 417 961 478 q 1061 242 1061 356 q 1009 58 1061 122 q 860 -6 957 -6 q 717 56 767 -6 q 667 233 667 118 q 719 415 667 351 q 868 478 771 478 m 863 424 q 756 376 793 424 q 719 238 719 328 q 757 96 719 144 q 865 47 794 47 q 972 95 935 47 q 1008 233 1008 143 q 863 424 1008 424 z "},"&":{"ha":1078,"x_min":68,"x_max":1153,"o":"m 1153 461 q 1091 377 1125 404 q 1001 346 1057 350 q 839 371 958 346 q 785 169 838 257 q 642 34 733 82 q 431 -14 550 -14 q 238 32 319 -14 q 112 162 156 78 q 68 358 68 246 q 103 533 68 457 q 197 652 138 610 q 329 694 257 694 q 440 661 399 694 q 481 575 481 628 q 468 517 481 543 q 709 735 604 614 q 872 988 814 857 l 881 988 q 910 935 901 964 q 731 675 850 804 q 456 442 611 546 q 139 282 301 339 q 238 107 161 171 q 433 43 314 43 q 617 85 538 43 q 740 205 697 128 q 782 382 783 282 q 686 396 717 396 q 563 300 603 396 l 553 297 l 532 336 q 594 420 560 393 q 685 451 629 447 q 835 428 711 451 q 999 401 951 401 q 1122 497 1086 401 l 1132 500 l 1153 461 m 329 642 q 228 607 272 642 q 158 510 183 572 q 132 365 132 447 l 133 338 q 371 451 250 379 q 428 558 428 500 q 401 620 428 599 q 329 642 375 642 z "},"'":{"ha":204,"x_min":69,"x_max":143,"o":"m 117 649 l 76 643 l 69 650 l 81 879 l 136 885 l 143 876 l 117 649 z "},"(":{"ha":396,"x_min":122,"x_max":388,"o":"m 388 885 q 231 681 278 801 q 183 360 185 561 q 231 40 185 160 q 388 -162 278 -79 l 388 -171 l 361 -197 l 353 -197 q 176 19 229 -108 q 122 358 124 147 q 176 701 124 572 q 353 921 229 831 l 361 921 l 388 893 l 388 885 z "},")":{"ha":396,"x_min":7,"x_max":272,"o":"m 7 -162 q 163 41 117 -79 q 211 363 210 161 q 163 682 210 563 q 7 885 117 801 l 7 893 l 33 919 l 42 919 q 218 703 165 831 q 272 364 271 575 q 218 21 271 150 q 42 -199 165 -108 l 33 -199 l 7 -171 l 7 -162 z "},"*":{"ha":513,"x_min":53,"x_max":468,"o":"m 272 839 l 239 835 l 232 843 l 235 997 q 292 1007 260 1007 l 296 1000 l 272 839 m 203 785 l 194 782 l 53 832 q 61 890 53 864 l 68 893 l 208 818 l 203 785 m 442 868 q 468 815 460 843 l 464 811 l 310 783 l 296 814 l 300 822 l 442 868 m 389 624 q 349 582 378 606 l 340 583 l 269 729 l 293 751 l 304 750 l 389 624 m 236 724 l 150 600 q 97 626 135 604 l 96 633 l 207 750 l 236 735 l 236 724 z "},"+":{"ha":667,"x_min":49,"x_max":618,"o":"m 361 399 l 611 399 l 618 392 l 614 344 l 361 344 l 361 90 l 313 86 l 306 93 l 306 344 l 54 344 l 49 350 l 53 399 l 306 399 l 306 651 l 354 657 l 361 650 l 361 399 z "},",":{"ha":319,"x_min":83,"x_max":222,"o":"m 167 92 q 222 10 222 58 q 110 -149 222 -64 l 83 -124 l 83 -117 q 160 -1 160 -60 q 117 56 160 32 l 117 64 q 167 92 139 82 z "},"-":{"ha":429,"x_min":42,"x_max":388,"o":"m 388 349 l 50 301 l 42 310 l 42 358 l 379 404 l 388 397 l 388 349 z "},".":{"ha":319,"x_min":113,"x_max":206,"o":"m 160 90 q 206 44 206 90 q 158 -4 206 -4 q 113 42 113 -4 q 125 77 113 64 q 160 90 138 90 z "},"/":{"ha":401,"x_min":47,"x_max":389,"o":"m 104 -154 l 53 -154 l 47 -147 l 331 939 l 382 939 l 389 931 l 104 -154 z "},":":{"ha":319,"x_min":107,"x_max":200,"o":"m 154 90 q 200 44 200 90 q 153 -4 200 -4 q 107 42 107 -4 q 119 77 107 64 q 154 90 132 90 m 154 469 q 200 424 200 469 q 153 375 200 375 q 107 421 107 375 q 119 456 107 443 q 154 469 132 469 z "},";":{"ha":319,"x_min":78,"x_max":217,"o":"m 161 92 q 217 10 217 58 q 104 -149 217 -64 l 78 -124 l 78 -117 q 154 -1 154 -60 q 111 56 154 32 l 111 64 q 161 92 133 82 m 154 469 q 200 424 200 469 q 153 375 200 375 q 107 421 107 375 q 119 456 107 443 q 154 469 132 469 z "},"<":{"ha":667,"x_min":53,"x_max":611,"o":"m 53 401 l 53 339 l 589 122 l 599 128 l 611 172 l 115 369 l 115 376 l 607 586 l 611 594 l 594 638 l 60 411 l 53 401 z "},"=":{"ha":667,"x_min":49,"x_max":618,"o":"m 614 451 l 54 451 l 49 457 l 53 506 l 611 506 l 618 499 l 614 451 m 614 236 l 54 236 l 49 242 l 53 290 l 611 290 l 618 283 l 614 236 z "},">":{"ha":667,"x_min":56,"x_max":614,"o":"m 614 401 l 614 339 l 78 122 l 68 128 l 56 172 l 551 369 l 551 376 l 60 586 l 56 594 l 72 638 l 607 411 l 614 401 z "},"?":{"ha":454,"x_min":93,"x_max":450,"o":"m 119 914 q 365 847 279 903 q 450 697 450 790 q 338 515 450 588 l 214 432 l 213 428 l 219 286 l 167 281 l 160 289 l 151 444 l 158 458 l 294 544 q 385 688 385 601 q 312 806 385 763 q 99 858 239 850 l 93 867 l 108 908 l 119 914 m 196 90 q 229 78 217 90 q 242 44 242 65 q 194 -4 242 -4 q 149 42 149 -4 q 161 77 149 64 q 196 90 174 90 z "},"@":{"ha":1133,"x_min":56,"x_max":1082,"o":"m 1082 406 q 967 110 1082 215 q 638 -6 853 6 l 683 326 l 671 326 q 421 -8 556 117 l 403 -8 q 335 71 357 22 q 313 200 313 119 q 350 405 313 308 q 460 565 388 501 q 636 640 533 629 l 642 640 l 731 618 l 775 642 l 785 636 l 718 150 l 713 50 q 947 158 865 67 q 1029 403 1029 249 q 980 603 1029 517 q 840 738 931 690 q 625 786 749 786 q 355 722 472 786 q 173 540 238 657 q 108 272 108 424 q 174 10 108 121 q 361 -159 240 -100 q 643 -218 482 -218 l 646 -226 l 619 -267 q 324 -199 451 -264 q 126 -15 196 -133 q 56 263 56 104 q 126 563 56 432 q 326 766 197 693 q 625 839 456 839 q 866 785 763 839 q 1026 632 969 731 q 1082 406 1082 533 m 424 71 q 483 121 438 71 q 588 263 528 171 q 704 476 647 356 l 707 500 l 711 563 l 626 583 q 493 531 550 582 q 406 397 436 481 q 375 217 375 314 q 391 106 375 142 q 424 71 407 71 z "},"A":{"ha":788,"x_min":22,"x_max":753,"o":"m 678 0 l 658 75 l 592 267 l 381 269 l 190 267 l 118 78 l 97 0 l 22 0 l 361 888 l 443 888 l 753 0 l 678 0 m 404 804 l 396 804 l 215 331 l 389 329 l 569 331 l 404 804 z "},"B":{"ha":717,"x_min":140,"x_max":658,"o":"m 463 464 q 658 246 658 432 q 571 60 658 125 q 317 -4 483 -4 q 140 0 219 -4 l 144 269 l 140 888 l 351 889 q 532 835 468 889 q 596 679 596 781 q 463 464 596 518 m 522 672 q 344 828 522 828 l 214 828 l 211 489 l 378 486 q 522 672 522 517 m 322 57 q 517 107 449 57 q 586 250 586 157 q 536 372 586 328 q 392 426 486 417 l 211 425 l 210 274 l 213 61 q 322 57 267 57 z "},"C":{"ha":725,"x_min":60,"x_max":685,"o":"m 442 894 q 685 821 581 894 l 669 756 l 658 754 q 439 832 561 832 q 212 732 290 832 q 133 443 133 632 q 210 155 133 254 q 429 56 286 56 q 672 143 561 56 l 683 139 l 678 71 q 425 -8 558 -8 q 155 108 250 -8 q 60 439 60 224 q 159 776 60 657 q 442 894 258 894 z "},"D":{"ha":892,"x_min":140,"x_max":832,"o":"m 442 893 q 731 785 631 893 q 832 474 832 676 q 725 117 832 242 q 418 -7 618 -7 q 140 0 314 -7 l 144 269 l 140 888 l 442 893 m 428 54 q 673 158 588 54 q 758 461 758 263 q 676 738 758 644 q 438 832 594 832 q 214 825 357 832 l 210 274 l 213 63 q 428 54 340 54 z "},"E":{"ha":651,"x_min":140,"x_max":615,"o":"m 608 0 l 140 0 l 144 269 l 140 888 l 607 888 l 613 879 l 604 822 l 397 825 l 214 824 l 211 489 l 385 488 l 533 489 l 539 482 l 532 425 l 211 426 l 210 274 l 213 63 l 392 61 l 610 65 l 615 57 l 608 0 z "},"F":{"ha":588,"x_min":140,"x_max":592,"o":"m 211 472 l 374 471 l 515 474 l 522 465 l 514 410 l 211 411 l 210 274 l 213 0 l 140 0 l 144 269 l 140 888 l 585 888 l 592 879 l 583 821 l 385 825 l 214 824 l 211 472 z "},"G":{"ha":836,"x_min":60,"x_max":738,"o":"m 482 894 q 738 825 613 894 l 721 758 l 710 757 q 474 832 585 832 q 220 731 307 832 q 133 433 133 631 q 442 56 133 56 q 661 92 533 56 l 663 221 l 661 339 l 731 344 l 729 229 l 732 42 q 440 -8 563 -7 q 156 106 253 -8 q 60 431 60 219 q 169 774 60 654 q 482 894 279 894 z "},"H":{"ha":940,"x_min":140,"x_max":800,"o":"m 799 0 l 726 0 l 731 269 l 729 418 l 460 419 l 211 418 l 210 274 l 213 0 l 140 0 l 144 269 l 140 888 l 214 888 l 211 482 l 467 481 l 729 482 l 726 888 l 800 888 l 797 274 l 799 0 z "},"I":{"ha":354,"x_min":140,"x_max":214,"o":"m 213 0 l 140 0 l 144 269 l 140 888 l 214 888 l 210 274 l 213 0 z "},"J":{"ha":403,"x_min":10,"x_max":264,"o":"m 263 161 q 215 -8 263 60 q 53 -139 168 -75 l 24 -99 l 24 -87 q 156 23 117 -32 q 194 160 194 78 l 194 286 l 192 826 l 18 826 l 10 833 l 15 888 l 264 888 l 261 294 l 263 161 z "},"K":{"ha":733,"x_min":139,"x_max":728,"o":"m 213 0 l 139 0 l 143 269 l 139 888 l 213 888 l 210 274 l 213 0 m 319 472 q 728 15 518 224 l 726 6 q 661 -11 706 -3 l 651 -7 q 239 468 410 249 l 239 474 l 560 817 l 617 888 l 704 888 l 319 472 z "},"L":{"ha":567,"x_min":138,"x_max":561,"o":"m 553 0 l 138 0 l 142 269 l 138 888 l 211 888 l 207 274 l 210 63 l 554 63 l 561 54 l 553 0 z "},"M":{"ha":1090,"x_min":93,"x_max":996,"o":"m 929 0 l 906 271 l 851 763 l 843 763 l 572 107 l 507 107 l 246 763 l 238 763 l 183 275 l 157 0 l 93 0 l 189 888 l 271 888 l 321 751 l 539 203 l 546 203 l 776 763 l 824 888 l 906 888 l 996 0 l 929 0 z "},"N":{"ha":940,"x_min":140,"x_max":800,"o":"m 796 0 l 722 0 l 215 767 l 207 767 l 206 285 l 208 0 l 140 0 l 144 264 l 142 888 l 217 888 l 724 121 l 731 121 l 732 883 l 800 889 l 796 253 l 796 0 z "},"O":{"ha":876,"x_min":60,"x_max":818,"o":"m 447 896 q 722 783 626 896 q 818 460 818 669 q 717 113 818 235 q 429 -8 615 -8 q 156 108 251 -8 q 60 439 60 224 q 160 777 60 658 q 447 896 261 896 m 442 833 q 210 735 289 833 q 132 446 132 636 q 208 153 132 253 q 433 53 285 53 q 665 154 585 53 q 744 450 744 256 q 667 736 744 639 q 442 833 590 833 z "},"P":{"ha":699,"x_min":140,"x_max":639,"o":"m 376 889 q 571 823 503 889 q 639 635 639 757 q 556 409 639 490 q 324 328 474 328 l 210 328 l 210 274 l 213 0 l 140 0 l 144 269 l 140 888 l 376 889 m 365 389 q 514 464 463 401 q 565 629 565 526 q 368 828 565 821 l 214 825 l 211 392 l 365 389 z "},"Q":{"ha":881,"x_min":60,"x_max":1015,"o":"m 1015 -212 q 983 -258 997 -246 l 975 -260 q 465 -7 693 -206 l 431 -8 q 156 108 251 -8 q 60 439 60 224 q 160 777 60 658 q 447 896 261 896 q 722 783 626 896 q 818 457 818 669 q 745 151 818 268 q 536 3 672 35 q 1013 -201 747 -160 l 1015 -212 m 132 443 q 209 152 132 251 q 435 53 286 53 q 665 155 585 53 q 744 453 744 257 q 667 737 744 640 q 442 833 590 833 q 210 735 289 833 q 132 443 132 636 z "},"R":{"ha":747,"x_min":140,"x_max":686,"o":"m 446 364 q 686 17 550 196 l 686 7 q 624 -11 664 -4 l 613 -6 q 385 347 478 188 l 210 347 l 210 274 l 213 0 l 140 0 l 144 269 l 140 888 l 376 889 q 571 825 503 889 q 639 640 639 761 q 589 472 639 543 q 446 364 539 400 m 392 408 q 565 636 565 456 q 368 828 565 821 l 214 825 l 211 411 l 392 408 z "},"S":{"ha":638,"x_min":65,"x_max":571,"o":"m 357 893 q 542 851 449 893 l 529 785 l 515 781 q 349 832 435 832 q 247 808 290 832 q 180 744 203 783 q 157 665 157 706 q 182 590 157 622 q 244 535 207 558 q 343 483 281 513 q 462 419 417 447 q 539 345 507 390 q 571 236 571 300 q 535 115 571 171 q 435 26 500 58 q 290 -7 371 -7 q 65 56 165 -7 l 74 129 l 83 133 q 186 73 129 93 q 296 53 243 53 q 403 78 357 53 q 474 143 449 103 q 499 228 499 183 q 473 308 499 274 q 410 364 447 342 q 308 418 374 386 q 192 481 236 453 q 117 553 147 508 q 86 660 86 597 q 120 777 86 724 q 216 862 154 831 q 357 893 278 893 z "},"T":{"ha":671,"x_min":35,"x_max":638,"o":"m 631 824 l 482 828 l 374 828 l 369 274 l 372 0 l 300 0 l 304 269 l 300 828 l 192 828 l 40 824 l 35 832 l 42 888 l 631 888 l 638 879 l 631 824 z "},"U":{"ha":860,"x_min":113,"x_max":751,"o":"m 750 328 q 668 81 753 168 q 426 -7 583 -7 q 192 78 274 -7 q 113 322 111 163 l 113 888 l 183 888 l 181 329 q 243 126 179 196 q 431 57 307 57 q 619 125 554 57 q 682 322 683 193 l 679 888 l 751 888 l 750 435 l 750 328 z "},"V":{"ha":767,"x_min":24,"x_max":754,"o":"m 333 0 l 24 888 l 99 888 l 118 811 l 374 82 l 381 82 l 658 808 l 679 888 l 754 888 l 415 0 l 333 0 z "},"W":{"ha":1235,"x_min":31,"x_max":1219,"o":"m 814 0 l 619 560 l 613 560 l 404 0 l 331 0 l 31 888 l 104 888 l 121 814 l 368 88 l 375 88 l 588 660 l 508 888 l 583 888 l 603 808 l 850 88 l 858 88 l 1129 811 l 1149 888 l 1219 888 l 888 0 l 814 0 z "},"X":{"ha":803,"x_min":39,"x_max":751,"o":"m 751 0 l 663 0 l 626 63 l 392 404 l 153 58 l 119 0 l 39 0 l 349 454 l 54 888 l 143 888 l 178 828 l 396 510 l 611 825 l 646 888 l 728 888 l 439 461 l 751 0 z "},"Y":{"ha":711,"x_min":28,"x_max":683,"o":"m 379 0 l 307 0 l 311 265 l 310 328 l 28 888 l 108 888 l 125 844 l 342 414 l 350 414 l 586 843 l 604 888 l 683 888 l 378 326 l 376 265 l 379 0 z "},"Z":{"ha":719,"x_min":44,"x_max":664,"o":"m 132 61 l 543 61 l 658 67 l 664 60 l 657 -1 l 524 0 l 110 0 l 44 -3 l 44 53 l 571 826 l 179 826 l 71 819 l 65 828 l 72 889 l 196 888 l 597 888 l 658 889 l 658 833 l 132 61 z "},"[":{"ha":396,"x_min":149,"x_max":382,"o":"m 382 853 l 210 839 l 210 -124 l 382 -137 l 382 -176 l 375 -182 l 149 -168 l 151 358 l 149 883 l 375 897 l 382 892 l 382 853 z "},"\\":{"ha":401,"x_min":17,"x_max":358,"o":"m 301 -154 l 353 -154 l 358 -147 l 75 939 l 24 939 l 17 931 l 301 -154 z "},"]":{"ha":396,"x_min":13,"x_max":246,"o":"m 13 -137 l 185 -124 l 185 839 l 13 853 l 13 892 l 19 897 l 246 883 l 243 357 l 246 -168 l 19 -182 l 13 -176 l 13 -137 z "},"^":{"ha":578,"x_min":32,"x_max":547,"o":"m 542 169 l 497 157 l 300 619 l 293 619 l 83 161 l 74 157 l 32 174 l 258 674 l 268 679 l 331 679 l 547 178 l 542 169 z "},"_":{"ha":628,"x_min":-21,"x_max":649,"o":"m 644 -172 l -15 -172 l -21 -165 l -17 -121 l 643 -121 l 649 -126 l 644 -172 z "},"`":{"ha":542,"x_min":143,"x_max":397,"o":"m 143 911 l 144 901 q 364 719 211 844 l 374 721 l 397 754 q 181 950 290 842 l 172 949 l 143 911 z "},"a":{"ha":700,"x_min":40,"x_max":647,"o":"m 576 0 l 561 63 l 510 200 l 182 200 l 128 65 l 110 0 l 40 0 l 317 688 l 394 688 l 647 0 l 576 0 m 357 614 l 350 614 l 206 257 l 344 256 l 489 257 l 357 614 z "},"b":{"ha":644,"x_min":136,"x_max":574,"o":"m 414 358 q 574 192 574 332 q 501 47 574 96 q 289 -3 428 -3 q 136 0 185 -3 l 139 208 l 136 688 l 319 689 q 471 647 417 689 q 525 525 525 604 q 414 358 525 403 m 453 518 q 306 633 453 633 l 204 633 l 203 383 l 338 381 q 453 518 453 401 m 293 50 q 449 88 394 50 q 504 194 504 125 q 350 326 504 310 l 201 324 l 201 214 l 203 54 q 293 50 249 50 z "},"c":{"ha":644,"x_min":71,"x_max":590,"o":"m 390 693 q 590 639 504 693 l 576 576 l 565 574 q 385 635 489 635 q 205 561 267 635 q 143 344 143 488 q 203 126 143 201 q 378 51 264 51 q 576 119 483 51 l 586 115 l 581 53 q 376 -7 485 -7 q 150 83 229 -7 q 71 340 71 174 q 154 601 71 510 q 390 693 238 693 z "},"d":{"ha":782,"x_min":136,"x_max":711,"o":"m 389 693 q 628 608 544 693 q 711 367 711 524 q 623 90 711 186 q 369 -6 535 -6 q 136 0 256 -6 l 139 208 l 136 688 l 389 693 m 378 51 q 574 128 506 51 q 642 354 642 206 q 385 633 642 633 q 206 628 297 633 l 203 214 l 204 57 q 378 51 299 51 z "},"e":{"ha":589,"x_min":136,"x_max":536,"o":"m 528 0 l 136 0 l 139 208 l 136 688 l 528 688 l 533 679 l 526 626 l 356 631 l 206 631 l 204 383 l 346 382 l 468 385 l 472 376 l 467 322 l 340 325 l 203 324 l 203 214 l 204 57 l 346 57 l 529 60 l 536 53 l 528 0 z "},"f":{"ha":526,"x_min":129,"x_max":508,"o":"m 196 368 l 326 367 l 444 369 l 450 363 l 444 310 l 194 310 l 194 214 l 197 0 l 129 0 l 131 208 l 129 688 l 504 688 l 508 679 l 501 626 l 336 631 l 197 631 l 196 368 z "},"g":{"ha":735,"x_min":71,"x_max":633,"o":"m 421 693 q 633 642 526 693 l 611 576 l 601 576 q 413 635 504 635 q 143 335 143 635 q 389 51 143 51 q 565 82 465 51 l 565 174 l 564 267 l 628 271 l 628 32 q 386 -6 488 -6 q 151 82 232 -6 q 71 333 71 169 q 163 600 71 507 q 421 693 254 693 z "},"h":{"ha":822,"x_min":136,"x_max":686,"o":"m 686 0 l 618 0 l 621 208 l 621 317 l 203 317 l 203 214 l 204 0 l 136 0 l 139 208 l 136 688 l 206 688 l 204 378 l 619 378 l 618 688 l 686 688 l 685 214 l 686 0 z "},"i":{"ha":346,"x_min":136,"x_max":206,"o":"m 204 0 l 136 0 l 139 208 l 136 688 l 206 688 l 203 214 l 204 0 z "},"j":{"ha":383,"x_min":35,"x_max":244,"o":"m 243 228 l 243 126 q 209 -7 243 46 q 90 -108 175 -60 l 60 -72 l 60 -64 q 151 19 124 -25 q 179 125 179 63 l 179 219 l 176 633 l 42 632 l 35 639 l 42 688 l 244 688 l 243 228 z "},"k":{"ha":658,"x_min":136,"x_max":632,"o":"m 204 0 l 136 0 l 139 208 l 136 688 l 206 688 l 203 214 l 204 0 m 301 365 q 632 15 447 192 l 631 6 q 568 -10 610 -4 l 557 -6 q 224 361 369 185 l 224 367 l 482 631 l 529 688 l 614 688 l 301 365 z "},"l":{"ha":515,"x_min":135,"x_max":488,"o":"m 481 0 l 135 0 l 136 208 l 135 688 l 203 688 l 200 214 l 201 58 l 482 58 l 488 51 l 481 0 z "},"m":{"ha":944,"x_min":97,"x_max":847,"o":"m 785 0 l 765 210 l 722 574 l 715 574 l 497 82 l 439 82 l 229 574 l 221 574 l 179 215 l 158 0 l 97 0 l 175 688 l 256 688 l 294 582 l 468 174 l 474 174 l 657 590 l 696 688 l 774 688 l 847 0 l 785 0 z "},"n":{"ha":822,"x_min":136,"x_max":686,"o":"m 683 0 l 611 0 l 206 574 l 200 574 l 199 222 l 200 0 l 136 0 l 139 203 l 138 688 l 210 688 l 615 113 l 622 113 l 622 685 l 686 689 l 683 199 l 683 0 z "},"o":{"ha":771,"x_min":71,"x_max":700,"o":"m 394 694 q 621 606 542 694 q 700 357 700 518 q 616 88 700 182 q 378 -7 532 -7 q 151 83 231 -7 q 71 339 71 174 q 155 602 71 510 q 394 694 239 694 m 389 635 q 142 347 142 635 q 381 51 142 51 q 631 346 631 51 q 389 635 631 635 z "},"p":{"ha":628,"x_min":136,"x_max":558,"o":"m 339 689 q 501 638 444 689 q 558 490 558 586 q 489 313 558 376 q 294 250 419 250 l 203 250 l 203 214 l 204 0 l 136 0 l 139 208 l 136 688 l 339 689 m 329 306 q 447 363 406 317 q 488 485 488 408 q 328 633 488 626 l 206 632 l 203 308 l 329 306 z "},"q":{"ha":774,"x_min":71,"x_max":858,"o":"m 858 -160 q 829 -201 843 -192 l 822 -203 q 408 -6 594 -160 l 378 -7 q 151 83 231 -7 q 71 339 71 174 q 155 602 71 510 q 394 694 239 694 q 621 606 542 694 q 700 357 700 518 q 642 122 700 213 q 476 4 585 32 q 857 -150 651 -119 l 858 -160 m 142 347 q 381 51 142 51 q 631 346 631 51 q 389 635 631 635 q 142 347 142 635 z "},"r":{"ha":669,"x_min":136,"x_max":599,"o":"m 403 281 q 599 17 490 149 l 599 7 q 538 -8 572 -4 l 525 -1 q 344 265 422 138 l 203 264 l 203 214 l 204 0 l 136 0 l 139 208 l 136 688 l 339 689 q 501 638 444 689 q 558 494 558 588 q 518 365 558 421 q 403 281 478 310 m 347 319 q 488 489 488 356 q 328 633 488 625 l 206 631 l 203 322 l 347 319 z "},"s":{"ha":576,"x_min":76,"x_max":497,"o":"m 319 692 q 475 660 400 692 l 464 593 l 451 590 q 313 638 382 638 q 202 599 243 638 q 161 514 161 561 q 198 440 161 468 q 310 381 235 413 q 408 330 372 351 q 471 273 444 308 q 497 186 497 238 q 469 91 497 135 q 388 21 440 47 q 265 -6 335 -6 q 76 42 163 -6 l 83 113 l 93 117 q 178 66 129 83 q 272 49 228 49 q 385 87 342 49 q 429 176 429 125 q 392 253 429 225 q 278 318 356 282 q 181 367 218 346 q 119 424 144 389 q 93 508 93 458 q 122 601 93 560 q 201 667 150 643 q 319 692 253 692 z "},"t":{"ha":601,"x_min":51,"x_max":551,"o":"m 546 624 l 422 629 l 336 629 l 333 214 l 336 0 l 268 0 l 269 208 l 268 629 l 183 629 l 57 624 l 51 631 l 57 688 l 547 688 l 551 679 l 546 624 z "},"u":{"ha":757,"x_min":114,"x_max":647,"o":"m 644 243 q 576 60 647 125 q 376 -6 506 -6 q 181 59 249 -6 q 114 243 113 124 l 115 344 l 114 688 l 183 688 l 179 251 q 229 103 178 154 q 379 53 281 53 q 529 103 478 53 q 581 251 581 154 l 578 688 l 647 688 l 644 336 l 644 243 z "},"v":{"ha":682,"x_min":43,"x_max":649,"o":"m 294 0 l 43 688 l 114 688 l 131 624 l 333 74 l 339 74 l 563 621 l 579 688 l 649 688 l 374 0 l 294 0 z "},"w":{"ha":1064,"x_min":49,"x_max":1031,"o":"m 689 0 l 535 417 l 529 417 l 363 0 l 290 0 l 49 688 l 119 688 l 133 625 l 328 81 l 335 81 l 504 513 l 442 688 l 514 688 l 529 619 l 724 81 l 732 81 l 946 622 l 963 688 l 1031 688 l 761 0 l 689 0 z "},"x":{"ha":713,"x_min":54,"x_max":649,"o":"m 649 0 l 565 0 l 535 51 l 349 304 l 157 47 l 129 0 l 54 0 l 307 350 l 65 688 l 151 688 l 179 638 l 353 403 l 525 636 l 553 688 l 631 688 l 394 357 l 649 0 z "},"y":{"ha":640,"x_min":44,"x_max":594,"o":"m 343 0 l 275 0 l 278 203 l 276 249 l 44 688 l 121 688 l 135 653 l 307 329 l 314 329 l 503 650 l 519 688 l 594 688 l 343 250 l 342 203 l 343 0 z "},"z":{"ha":643,"x_min":60,"x_max":575,"o":"m 143 56 l 471 56 l 569 63 l 575 57 l 568 -1 l 451 0 l 117 0 l 60 -1 l 60 49 l 486 631 l 168 631 l 79 624 l 75 631 l 82 689 l 183 688 l 518 688 l 569 689 l 569 636 l 143 56 z "},"{":{"ha":396,"x_min":68,"x_max":375,"o":"m 308 908 q 371 900 332 908 l 375 893 l 367 850 q 314 857 332 857 q 222 746 222 857 q 236 617 222 708 q 250 503 250 533 q 158 360 250 397 l 158 356 q 250 213 250 318 q 236 97 250 183 q 222 -32 222 8 q 314 -143 222 -143 q 367 -136 332 -143 l 375 -178 l 371 -185 q 308 -193 342 -193 q 163 -40 163 -193 q 176 100 163 6 q 189 210 189 175 q 68 336 189 318 l 68 378 q 189 504 189 399 q 176 614 189 539 q 163 756 163 711 q 308 908 163 908 z "},"|":{"ha":440,"x_min":190,"x_max":250,"o":"m 249 397 l 249 -364 l 197 -367 l 190 -357 l 190 1099 l 244 1103 l 250 1097 l 249 397 z "},"}":{"ha":396,"x_min":19,"x_max":326,"o":"m 86 -194 q 24 -186 63 -194 l 19 -179 l 28 -136 q 81 -143 63 -143 q 172 -32 172 -143 q 158 97 172 6 q 144 211 144 181 q 236 354 144 317 l 236 358 q 144 501 144 396 q 158 617 144 531 q 172 746 172 706 q 81 857 172 857 q 28 850 63 857 l 19 892 l 24 899 q 86 907 53 907 q 232 754 232 907 q 218 614 232 708 q 206 504 206 539 q 326 378 206 396 l 326 336 q 206 210 206 315 q 218 100 206 175 q 232 -42 232 3 q 86 -194 232 -194 z "},"~":{"ha":667,"x_min":83,"x_max":585,"o":"m 206 371 q 178 360 193 371 q 144 331 164 349 q 115 304 125 313 l 104 304 l 83 329 l 83 339 l 179 428 l 190 433 q 321 400 211 431 q 463 367 440 367 q 529 414 479 367 l 553 435 l 564 435 l 585 408 l 585 400 l 488 310 l 476 307 q 331 342 444 310 q 206 371 228 371 z "}," ":{"ha":239,"x_min":0,"x_max":0,"o":""},"¡":{"ha":350,"x_min":125,"x_max":233,"o":"m 147 349 l 193 353 l 201 343 l 196 -262 l 189 -271 l 135 -274 l 125 -265 l 147 349 m 186 549 q 140 594 140 549 q 188 643 140 643 q 233 597 233 643 q 221 562 233 575 q 186 549 208 549 z "},"¢":{"ha":533,"x_min":63,"x_max":504,"o":"m 499 108 q 315 54 417 54 l 308 54 l 290 -162 l 251 -162 l 243 -154 l 261 60 q 115 162 168 79 q 63 371 63 244 q 130 608 63 519 q 313 701 197 697 l 329 904 l 368 904 l 376 896 l 361 699 q 500 647 442 688 l 486 599 l 476 599 q 357 646 426 635 l 313 106 l 325 106 q 494 160 413 106 l 504 156 l 499 108 m 121 375 q 159 204 121 272 q 265 114 197 136 l 308 649 q 172 569 222 642 q 121 375 121 496 z "},"£":{"ha":557,"x_min":39,"x_max":508,"o":"m 503 -1 l 382 0 l 44 0 l 39 7 l 44 46 q 143 199 143 63 l 142 415 l 46 415 l 40 422 l 46 461 l 142 461 l 142 608 q 193 767 142 713 q 343 822 244 822 q 488 797 407 822 l 482 740 l 476 735 q 342 772 411 772 q 204 617 204 772 l 204 461 l 379 461 l 383 454 l 379 415 l 204 415 l 203 203 q 147 58 203 106 l 147 56 l 392 56 l 503 61 l 508 53 l 503 -1 z "},"¤":{"ha":606,"x_min":49,"x_max":536,"o":"m 533 706 l 443 617 q 483 503 483 568 q 443 392 483 439 l 536 303 l 536 293 l 504 260 l 494 261 l 406 353 q 293 311 354 311 q 182 353 231 311 l 93 260 l 83 260 l 50 292 l 51 301 l 143 390 q 101 503 101 439 q 142 615 101 567 l 49 704 l 50 714 l 81 746 l 90 746 l 181 653 q 293 693 228 693 q 403 656 354 693 l 493 747 l 501 747 l 535 715 l 533 706 m 293 646 q 192 604 233 646 q 150 503 150 563 q 192 401 150 443 q 293 360 233 360 q 395 401 353 360 q 438 503 438 443 q 395 604 438 563 q 293 646 353 646 z "},"¥":{"ha":638,"x_min":26,"x_max":615,"o":"m 614 211 l 611 174 l 346 174 l 349 0 l 286 0 l 289 174 l 31 174 l 26 179 l 29 217 l 289 217 l 288 250 l 231 357 l 31 357 l 26 363 l 29 399 l 208 399 l 53 686 l 121 686 l 135 653 l 315 325 l 322 325 l 518 651 l 535 686 l 603 686 l 433 399 l 610 399 l 615 394 l 611 357 l 410 357 l 347 250 l 346 217 l 610 217 l 614 211 z "},"¦":{"ha":440,"x_min":190,"x_max":250,"o":"m 249 514 l 197 508 l 190 514 l 190 1099 l 244 1103 l 250 1097 l 249 514 m 249 -364 l 197 -367 l 190 -357 l 190 215 l 242 222 l 249 213 l 249 -364 z "},"§":{"ha":575,"x_min":56,"x_max":510,"o":"m 510 344 q 476 244 510 292 q 381 167 442 197 q 443 36 443 104 q 415 -53 443 -11 q 338 -119 388 -94 q 228 -143 289 -143 q 56 -97 132 -143 l 65 -36 l 74 -29 q 233 -92 149 -92 q 340 -56 300 -92 q 381 26 381 -21 q 347 105 381 69 q 242 192 313 140 q 115 298 158 251 q 72 410 72 344 q 107 512 72 464 q 201 590 142 560 q 139 718 139 650 q 166 806 139 765 q 240 869 193 846 q 347 893 288 893 q 488 864 418 893 l 476 803 l 464 800 q 338 840 399 840 q 239 806 276 840 q 201 726 201 771 q 234 651 201 685 q 338 567 267 618 q 427 497 393 526 q 485 429 461 468 q 510 344 510 390 m 339 204 q 447 333 447 254 q 413 418 447 382 q 303 510 378 454 q 243 554 269 532 q 135 419 135 497 q 169 340 135 375 q 275 251 203 304 q 339 204 310 228 z "},"¨":{"ha":542,"x_min":119,"x_max":415,"o":"m 167 863 q 212 818 212 863 q 166 771 212 771 q 121 816 121 771 q 133 850 121 837 q 167 863 145 863 m 369 863 q 413 818 413 863 q 367 771 413 771 q 322 816 322 771 q 335 850 322 837 q 369 863 347 863 z "},"©":{"ha":949,"x_min":67,"x_max":882,"o":"m 474 831 q 688 778 594 831 q 831 629 781 725 q 882 407 882 533 q 831 185 882 281 q 688 36 781 89 q 474 -17 594 -17 q 260 36 353 -17 q 117 185 168 89 q 67 407 67 281 q 117 629 67 533 q 260 778 168 725 q 474 831 353 831 m 474 793 q 280 745 364 793 q 150 610 196 697 q 104 407 104 522 q 150 204 104 292 q 280 69 196 117 q 474 21 364 21 q 667 69 583 21 q 798 204 751 117 q 844 407 844 292 q 798 610 844 522 q 667 745 751 697 q 474 793 583 793 m 490 646 q 624 610 561 646 l 613 565 l 606 564 q 489 599 556 599 q 329 413 329 599 q 369 271 329 319 q 486 222 410 222 q 614 260 553 222 l 621 258 l 615 213 q 482 174 549 174 q 327 235 381 174 q 274 410 274 296 q 329 585 274 524 q 490 646 385 646 z "},"ª":{"ha":429,"x_min":51,"x_max":403,"o":"m 219 897 q 313 869 279 897 q 346 788 346 840 l 342 671 q 338 565 338 599 q 365 524 338 524 q 396 533 382 524 l 403 529 l 396 489 q 343 472 374 472 q 300 488 314 472 q 283 539 286 503 l 279 539 q 168 471 226 479 q 82 501 113 472 q 51 583 51 531 q 135 679 51 663 l 283 710 l 285 775 q 208 849 285 849 q 82 794 153 849 l 75 797 l 67 842 q 219 897 139 897 m 163 646 q 113 589 113 636 q 130 539 113 557 q 181 521 147 521 q 279 582 229 521 l 282 674 l 163 646 z "},"«":{"ha":531,"x_min":28,"x_max":490,"o":"m 28 319 l 236 557 l 272 535 l 272 524 l 88 311 l 272 99 l 272 88 l 236 65 l 28 300 l 28 319 m 246 319 l 454 557 l 490 535 l 490 524 l 306 311 l 490 99 l 490 88 l 454 65 l 246 300 l 246 319 z "},"¬":{"ha":667,"x_min":44,"x_max":583,"o":"m 583 90 l 536 86 l 529 93 l 529 344 l 50 344 l 44 350 l 49 399 l 575 399 l 583 389 l 583 90 z "},"­":{"ha":429,"x_min":42,"x_max":388,"o":"m 388 349 l 50 301 l 42 310 l 42 358 l 379 404 l 388 397 l 388 349 z "},"®":{"ha":606,"x_min":54,"x_max":551,"o":"m 303 975 q 483 907 415 975 q 551 728 551 839 q 483 546 551 614 q 303 478 415 478 q 122 546 190 478 q 54 728 54 614 q 122 907 54 839 q 303 975 190 975 m 304 510 q 461 569 401 510 q 521 728 521 629 q 461 884 521 825 q 304 943 401 943 q 146 884 206 943 q 86 728 86 825 q 146 569 86 629 q 304 510 206 510 m 396 792 q 340 710 396 735 q 414 611 374 661 l 413 606 q 374 599 406 603 l 369 601 q 304 700 339 640 l 256 700 l 256 688 l 258 603 l 218 603 l 218 871 l 310 871 q 396 792 396 871 m 308 733 q 356 789 356 749 q 297 839 356 836 l 258 838 l 257 735 l 308 733 z "},"¯":{"ha":542,"x_min":68,"x_max":474,"o":"m 469 811 l 74 811 l 68 818 l 72 863 l 468 863 l 474 857 l 469 811 z "},"°":{"ha":408,"x_min":32,"x_max":375,"o":"m 204 896 q 325 847 275 896 q 375 725 375 797 q 325 606 375 654 q 204 557 275 557 q 82 606 132 557 q 32 725 32 654 q 82 847 32 797 q 204 896 132 896 m 204 854 q 113 816 151 854 q 74 725 74 778 q 113 636 74 674 q 204 599 151 599 q 295 636 257 599 q 333 725 333 674 q 295 816 333 778 q 204 854 257 854 z "},"±":{"ha":667,"x_min":49,"x_max":618,"o":"m 361 399 l 611 399 l 618 392 l 614 344 l 361 344 l 361 90 l 313 86 l 306 93 l 306 344 l 54 344 l 49 350 l 53 399 l 306 399 l 306 651 l 354 657 l 361 650 l 361 399 m 614 -108 l 54 -108 l 49 -103 l 53 -54 l 611 -54 l 618 -61 l 614 -108 z "},"²":{"ha":476,"x_min":58,"x_max":442,"o":"m 240 978 q 339 947 300 978 q 378 865 378 915 q 349 778 378 825 q 254 649 321 731 l 144 510 l 147 507 l 351 507 l 439 510 l 442 503 l 435 451 l 333 454 l 101 454 l 63 453 l 58 456 l 58 497 l 200 667 q 286 782 261 743 q 311 853 311 821 q 289 903 311 882 q 226 924 267 924 q 85 849 146 924 l 76 849 l 65 899 q 240 978 144 978 z "},"³":{"ha":418,"x_min":44,"x_max":350,"o":"m 189 979 q 290 948 251 979 q 328 865 328 917 q 303 792 328 828 q 236 738 279 757 l 236 733 q 350 606 350 706 q 293 493 350 536 q 143 450 236 450 q 54 460 92 450 l 49 506 l 54 511 q 143 501 94 501 q 247 530 208 501 q 286 607 286 558 q 164 701 286 697 l 110 701 l 106 707 l 107 751 l 149 751 q 225 781 189 751 q 261 854 261 811 q 238 907 261 888 q 178 926 215 926 q 63 878 124 926 l 56 878 l 44 924 q 189 979 113 979 z "},"´":{"ha":542,"x_min":144,"x_max":399,"o":"m 399 911 l 397 901 q 178 719 331 844 l 168 721 l 144 754 q 361 950 251 842 l 369 949 l 399 911 z "},"µ":{"ha":701,"x_min":113,"x_max":672,"o":"m 663 17 q 590 -6 629 -6 q 504 96 514 -6 l 497 96 q 296 -7 400 3 q 181 33 224 -7 l 181 -257 l 113 -257 l 114 271 l 113 626 l 181 635 l 181 188 q 214 90 182 125 q 306 56 246 56 q 501 160 401 56 l 501 626 l 569 635 l 567 128 q 611 50 565 50 q 663 68 638 50 l 672 63 l 663 17 z "},"¶":{"ha":649,"x_min":63,"x_max":607,"o":"m 600 828 l 492 828 l 490 244 l 492 175 q 444 24 492 90 q 293 -101 397 -43 l 269 -67 l 269 -56 q 387 49 350 -6 q 424 168 424 103 l 424 228 l 422 829 l 332 829 q 187 768 238 822 q 136 621 136 714 q 191 464 136 526 q 350 378 246 401 l 329 332 q 132 429 201 356 q 63 624 63 503 q 136 818 63 749 q 347 888 210 888 l 599 888 l 607 879 l 600 828 z "},"·":{"ha":319,"x_min":113,"x_max":206,"o":"m 160 383 q 206 338 206 383 q 158 289 206 289 q 113 335 113 289 q 125 370 113 357 q 160 383 138 383 z "},"¸":{"ha":542,"x_min":175,"x_max":365,"o":"m 315 -101 q 365 -175 365 -131 q 337 -235 365 -212 q 267 -258 308 -258 q 175 -214 211 -258 l 185 -174 l 190 -172 q 264 -215 226 -215 q 300 -204 286 -215 q 314 -174 314 -193 q 282 -133 314 -151 l 218 -94 l 253 21 l 300 21 l 271 -74 l 315 -101 z "},"¹":{"ha":347,"x_min":21,"x_max":214,"o":"m 213 638 l 214 454 l 149 454 l 150 629 l 150 906 l 28 872 l 21 876 l 21 928 l 206 981 l 214 972 l 213 638 z "},"º":{"ha":464,"x_min":49,"x_max":417,"o":"m 236 897 q 369 842 322 897 q 417 689 417 788 q 367 527 417 585 q 228 469 318 469 q 95 524 142 469 q 49 679 49 579 q 98 840 49 783 q 236 897 147 897 m 233 849 q 113 685 113 849 q 231 519 113 519 q 354 683 354 519 q 323 806 354 764 q 233 849 292 849 z "},"»":{"ha":519,"x_min":33,"x_max":494,"o":"m 494 304 l 286 67 l 250 89 l 250 100 l 435 313 l 250 525 l 250 536 l 286 558 l 494 324 l 494 304 m 278 304 l 69 67 l 33 89 l 33 100 l 218 313 l 33 525 l 33 536 l 69 558 l 278 324 l 278 304 z "},"¼":{"ha":947,"x_min":21,"x_max":896,"o":"m 94 -125 l 63 -108 l 57 -93 l 721 936 l 753 918 l 758 903 l 94 -125 m 28 788 l 21 792 l 21 843 l 206 896 l 214 888 l 213 553 l 214 369 l 149 369 l 150 544 l 150 821 l 28 788 m 890 149 l 808 151 l 801 151 l 806 6 l 801 0 l 750 -3 l 746 0 l 747 151 l 572 151 l 514 149 l 508 156 l 508 199 l 743 519 l 803 519 l 801 203 l 890 203 l 896 196 l 890 149 m 747 440 l 742 440 l 568 203 l 747 203 l 747 440 z "},"½":{"ha":956,"x_min":21,"x_max":922,"o":"m 758 903 l 94 -125 l 63 -108 l 57 -93 l 721 936 l 753 918 l 758 903 m 213 553 l 214 369 l 149 369 l 150 544 l 150 821 l 28 788 l 21 792 l 21 843 l 206 896 l 214 888 l 213 553 m 721 524 q 819 492 781 524 q 858 411 858 461 q 830 324 858 371 q 735 194 801 276 l 625 56 l 628 53 l 832 53 l 919 56 l 922 49 l 915 -3 l 814 0 l 582 0 l 543 -1 l 539 1 l 539 43 l 681 213 q 767 328 742 289 q 792 399 792 367 q 769 449 792 428 q 707 469 747 469 q 565 394 626 469 l 557 394 l 546 444 q 721 524 625 524 z "},"¾":{"ha":996,"x_min":44,"x_max":944,"o":"m 143 -125 l 111 -108 l 106 -93 l 769 936 l 801 918 l 807 903 l 143 -125 m 350 521 q 293 408 350 451 q 143 365 236 365 q 54 375 92 365 l 49 421 l 54 426 q 143 417 94 417 q 247 445 208 417 q 286 522 286 474 q 164 617 286 613 l 110 617 l 106 622 l 107 667 l 149 667 q 225 697 189 667 q 261 769 261 726 q 238 822 261 803 q 178 842 215 842 q 63 793 124 842 l 56 793 l 44 839 q 189 894 113 894 q 290 863 251 894 q 328 781 328 832 q 303 708 328 743 q 236 653 279 672 l 236 649 q 350 521 350 621 m 939 149 l 857 151 l 850 151 l 854 6 l 850 0 l 799 -3 l 794 0 l 796 151 l 621 151 l 563 149 l 557 156 l 557 199 l 792 519 l 851 519 l 850 203 l 939 203 l 944 196 l 939 149 m 796 440 l 790 440 l 617 203 l 796 203 l 796 440 z "},"¿":{"ha":454,"x_min":8,"x_max":365,"o":"m 339 -275 q 94 -208 179 -264 q 8 -58 8 -151 q 121 124 8 51 l 244 207 l 246 211 l 239 353 l 292 358 l 299 350 l 307 194 l 300 181 l 164 94 q 74 -49 74 38 q 147 -167 74 -124 q 360 -219 219 -211 l 365 -228 l 350 -269 l 339 -275 m 263 549 q 229 561 242 549 q 217 594 217 574 q 264 643 217 643 q 310 597 310 643 q 297 562 310 575 q 263 549 285 549 z "},"À":{"ha":788,"x_min":22,"x_max":753,"o":"m 511 1007 q 254 1131 372 1069 l 251 1140 l 271 1182 l 281 1185 q 538 1047 386 1121 l 522 1011 l 511 1007 m 676 0 l 658 75 l 592 267 l 382 269 l 190 267 l 118 78 l 97 0 l 22 0 l 361 888 l 443 888 l 753 0 l 676 0 m 404 804 l 396 804 l 215 331 l 389 329 l 569 331 l 404 804 z "},"Á":{"ha":788,"x_min":22,"x_max":753,"o":"m 678 0 l 658 75 l 592 267 l 381 269 l 190 267 l 118 78 l 97 0 l 22 0 l 361 888 l 443 888 l 753 0 l 678 0 m 404 804 l 396 804 l 215 331 l 389 329 l 569 331 l 404 804 m 578 1138 l 575 1128 q 318 1004 457 1067 l 307 1008 l 292 1044 q 549 1182 443 1118 l 558 1179 l 578 1138 z "},"Â":{"ha":788,"x_min":22,"x_max":753,"o":"m 231 1057 q 381 1172 290 1097 l 407 1172 q 558 1057 508 1092 l 542 1022 l 532 1022 q 394 1117 428 1092 q 257 1022 361 1093 l 247 1022 l 231 1057 m 676 0 l 658 75 l 592 267 l 382 269 l 190 267 l 118 78 l 97 0 l 22 0 l 361 888 l 443 888 l 753 0 l 676 0 m 404 804 l 396 804 l 215 331 l 389 329 l 569 331 l 404 804 z "},"Ã":{"ha":788,"x_min":22,"x_max":753,"o":"m 678 0 l 658 75 l 592 267 l 381 269 l 190 267 l 118 78 l 97 0 l 22 0 l 361 888 l 443 888 l 753 0 l 678 0 m 404 804 l 396 804 l 215 331 l 389 329 l 569 331 l 404 804 m 601 1125 l 522 1043 l 511 1039 q 400 1067 482 1042 q 294 1092 311 1092 q 250 1060 282 1092 l 219 1031 l 211 1031 l 188 1056 l 188 1064 l 267 1146 l 278 1149 q 394 1121 310 1146 q 493 1097 474 1097 q 543 1132 508 1097 q 569 1158 543 1132 l 576 1158 l 601 1133 l 601 1125 z "},"Ä":{"ha":788,"x_min":22,"x_max":753,"o":"m 290 1044 q 246 1089 246 1044 q 258 1124 246 1111 q 293 1136 271 1136 q 338 1092 338 1136 q 325 1057 338 1069 q 290 1044 313 1044 m 497 1044 q 453 1089 453 1044 q 465 1124 453 1111 q 500 1136 478 1136 q 544 1092 544 1136 q 532 1057 544 1069 q 497 1044 519 1044 m 676 0 l 658 75 l 592 267 l 382 269 l 190 267 l 118 78 l 97 0 l 22 0 l 361 888 l 443 888 l 753 0 l 676 0 m 404 804 l 396 804 l 215 331 l 389 329 l 569 331 l 404 804 z "},"Å":{"ha":788,"x_min":22,"x_max":753,"o":"m 678 0 l 658 75 l 592 267 l 381 269 l 190 267 l 118 78 l 97 0 l 22 0 l 361 888 l 443 888 l 753 0 l 678 0 m 404 804 l 396 804 l 215 331 l 389 329 l 569 331 l 404 804 m 393 1204 q 472 1174 443 1204 q 500 1100 500 1144 q 468 1021 500 1050 q 392 992 436 992 q 315 1020 346 992 q 285 1099 285 1049 q 314 1175 285 1146 q 393 1204 343 1204 m 392 1163 q 344 1146 361 1163 q 326 1100 326 1129 q 344 1051 326 1068 q 392 1033 363 1033 q 440 1050 421 1033 q 460 1097 460 1067 q 442 1144 460 1126 q 392 1163 425 1163 z "},"Æ":{"ha":1111,"x_min":-21,"x_max":1083,"o":"m 1075 0 l 621 0 l 614 75 l 565 381 l 218 311 l 89 78 l 57 0 l -21 0 l 468 888 l 939 888 l 944 879 l 936 822 l 708 826 l 567 826 l 625 453 l 938 511 l 944 506 l 944 451 l 635 394 l 686 61 l 850 61 l 1078 65 l 1083 57 l 1075 0 m 497 804 l 492 804 l 257 382 l 556 439 l 497 804 z "},"Ç":{"ha":725,"x_min":60,"x_max":686,"o":"m 429 56 q 672 143 563 56 l 683 139 l 678 71 q 451 -7 567 -1 l 431 -74 l 475 -101 q 525 -175 525 -131 q 497 -235 525 -212 q 426 -258 468 -258 q 335 -214 371 -258 l 344 -174 l 350 -172 q 424 -215 386 -215 q 460 -204 446 -215 q 474 -174 474 -193 q 442 -133 474 -151 l 378 -94 l 404 -8 q 149 115 239 -1 q 60 439 60 231 q 159 776 60 657 q 442 894 258 894 q 686 821 581 894 l 669 756 l 658 754 q 439 832 561 832 q 213 732 292 832 q 133 443 133 632 q 210 155 133 254 q 429 56 286 56 z "},"È":{"ha":651,"x_min":140,"x_max":615,"o":"m 493 1007 q 236 1131 354 1069 l 233 1140 l 253 1182 l 263 1185 q 519 1047 368 1121 l 504 1011 l 493 1007 m 608 0 l 140 0 l 144 269 l 140 888 l 607 888 l 613 879 l 604 822 l 397 825 l 214 824 l 211 489 l 385 488 l 532 489 l 539 482 l 531 425 l 211 426 l 210 274 l 213 63 l 392 61 l 610 65 l 615 57 l 608 0 z "},"É":{"ha":651,"x_min":140,"x_max":615,"o":"m 608 0 l 140 0 l 144 269 l 140 888 l 607 888 l 613 879 l 604 822 l 397 825 l 214 824 l 211 489 l 385 488 l 533 489 l 539 482 l 532 425 l 211 426 l 210 274 l 213 63 l 392 61 l 610 65 l 615 57 l 608 0 m 558 1138 l 556 1128 q 299 1004 438 1067 l 288 1008 l 272 1044 q 529 1182 424 1118 l 539 1179 l 558 1138 z "},"Ê":{"ha":651,"x_min":140,"x_max":615,"o":"m 213 1057 q 363 1172 272 1097 l 389 1172 q 540 1057 490 1092 l 524 1022 l 514 1022 q 376 1117 410 1092 q 239 1022 343 1093 l 229 1022 l 213 1057 m 608 0 l 140 0 l 144 269 l 140 888 l 607 888 l 613 879 l 604 822 l 397 825 l 214 824 l 211 489 l 385 488 l 532 489 l 539 482 l 531 425 l 211 426 l 210 274 l 213 63 l 392 61 l 610 65 l 615 57 l 608 0 z "},"Ë":{"ha":651,"x_min":140,"x_max":615,"o":"m 271 1044 q 226 1089 226 1044 q 239 1124 226 1111 q 274 1136 251 1136 q 318 1092 318 1136 q 306 1057 318 1069 q 271 1044 293 1044 m 478 1044 q 433 1089 433 1044 q 446 1124 433 1111 q 481 1136 458 1136 q 525 1092 525 1136 q 513 1057 525 1069 q 478 1044 500 1044 m 608 0 l 140 0 l 144 269 l 140 888 l 607 888 l 613 879 l 604 822 l 397 825 l 214 824 l 211 489 l 385 488 l 532 489 l 539 482 l 531 425 l 211 426 l 210 274 l 213 63 l 392 61 l 610 65 l 615 57 l 608 0 z "},"Ì":{"ha":354,"x_min":35,"x_max":321,"o":"m 64 1185 q 321 1047 169 1121 l 306 1011 l 294 1007 q 38 1131 156 1069 l 35 1140 l 54 1182 l 64 1185 m 213 0 l 140 0 l 144 269 l 140 888 l 214 888 l 210 274 l 213 0 z "},"Í":{"ha":354,"x_min":74,"x_max":360,"o":"m 213 0 l 140 0 l 144 269 l 140 888 l 214 888 l 210 274 l 213 0 m 360 1138 l 357 1128 q 100 1004 239 1067 l 89 1008 l 74 1044 q 331 1182 225 1118 l 340 1179 l 360 1138 z "},"Î":{"ha":354,"x_min":14,"x_max":342,"o":"m 14 1057 q 164 1172 74 1097 l 190 1172 q 342 1057 292 1092 l 325 1022 l 315 1022 q 178 1117 211 1092 q 40 1022 144 1093 l 31 1022 l 14 1057 m 213 0 l 140 0 l 144 269 l 140 888 l 214 888 l 210 274 l 213 0 z "},"Ï":{"ha":354,"x_min":51,"x_max":303,"o":"m 99 1136 q 143 1092 143 1136 q 131 1057 143 1069 q 96 1044 118 1044 q 51 1089 51 1044 q 64 1124 51 1111 q 99 1136 76 1136 m 258 1136 q 303 1092 303 1136 q 290 1057 303 1069 q 256 1044 278 1044 q 211 1089 211 1044 q 224 1124 211 1111 q 258 1136 236 1136 m 213 0 l 140 0 l 144 269 l 140 888 l 214 888 l 210 274 l 213 0 z "},"Ð":{"ha":918,"x_min":14,"x_max":860,"o":"m 469 893 q 759 785 658 893 q 860 474 860 676 q 752 117 860 242 q 446 -7 644 -7 q 168 0 342 -7 l 167 0 l 171 269 l 169 426 l 18 426 l 14 433 l 17 481 l 169 481 l 167 888 l 168 888 l 469 893 m 456 54 q 701 158 615 54 q 786 461 786 263 q 704 738 786 644 q 465 832 622 832 q 240 825 383 832 l 239 481 l 457 481 l 461 474 l 458 426 l 238 426 l 238 274 l 240 63 q 456 54 371 54 z "},"Ñ":{"ha":940,"x_min":140,"x_max":800,"o":"m 796 0 l 722 0 l 215 767 l 207 767 l 206 285 l 208 0 l 140 0 l 144 264 l 142 888 l 217 888 l 724 121 l 731 121 l 732 883 l 800 889 l 796 253 l 796 0 m 672 1125 l 593 1043 l 582 1039 q 471 1067 553 1042 q 365 1092 382 1092 q 321 1060 353 1092 l 290 1031 l 282 1031 l 258 1056 l 258 1064 l 338 1146 l 349 1149 q 465 1121 381 1146 q 564 1097 544 1097 q 614 1132 579 1097 q 640 1158 614 1132 l 647 1158 l 672 1133 l 672 1125 z "},"Ò":{"ha":876,"x_min":60,"x_max":818,"o":"m 447 896 q 722 783 626 896 q 818 460 818 669 q 717 113 818 235 q 429 -8 615 -8 q 156 108 251 -8 q 60 439 60 224 q 160 777 60 658 q 447 896 261 896 m 442 833 q 210 735 289 833 q 132 446 132 636 q 208 153 132 253 q 433 53 285 53 q 665 154 585 53 q 744 450 744 256 q 667 736 744 639 q 442 833 590 833 m 297 1140 l 300 1131 q 557 1007 418 1069 l 568 1011 l 583 1047 q 326 1185 432 1121 l 317 1182 l 297 1140 z "},"Ó":{"ha":876,"x_min":60,"x_max":818,"o":"m 447 896 q 722 783 626 896 q 818 460 818 669 q 717 113 818 235 q 429 -8 615 -8 q 156 108 251 -8 q 60 439 60 224 q 160 777 60 658 q 447 896 261 896 m 442 833 q 210 735 289 833 q 132 446 132 636 q 208 153 132 253 q 433 53 285 53 q 665 154 585 53 q 744 450 744 256 q 667 736 744 639 q 442 833 590 833 m 622 1138 l 619 1128 q 363 1004 501 1067 l 351 1008 l 336 1044 q 593 1182 488 1118 l 603 1179 l 622 1138 z "},"Ô":{"ha":876,"x_min":60,"x_max":818,"o":"m 447 896 q 722 783 626 896 q 818 460 818 669 q 717 113 818 235 q 429 -8 615 -8 q 156 108 251 -8 q 60 439 60 224 q 160 777 60 658 q 447 896 261 896 m 442 833 q 210 735 289 833 q 132 446 132 636 q 208 153 132 253 q 433 53 285 53 q 665 154 585 53 q 744 450 744 256 q 667 736 744 639 q 442 833 590 833 m 276 1057 q 426 1172 336 1097 l 453 1172 q 604 1057 554 1092 l 588 1022 l 578 1022 q 440 1117 474 1092 q 303 1022 407 1093 l 293 1022 l 276 1057 z "},"Õ":{"ha":876,"x_min":60,"x_max":818,"o":"m 447 896 q 722 783 626 896 q 818 460 818 669 q 717 113 818 235 q 429 -8 615 -8 q 156 108 251 -8 q 60 439 60 224 q 160 777 60 658 q 447 896 261 896 m 442 833 q 210 735 289 833 q 132 446 132 636 q 208 153 132 253 q 433 53 285 53 q 665 154 585 53 q 744 450 744 256 q 667 736 744 639 q 442 833 590 833 m 646 1125 l 567 1043 l 556 1039 q 444 1067 526 1042 q 339 1092 356 1092 q 294 1060 326 1092 l 264 1031 l 256 1031 l 232 1056 l 232 1064 l 311 1146 l 322 1149 q 439 1121 354 1146 q 538 1097 518 1097 q 588 1132 553 1097 q 614 1158 588 1132 l 621 1158 l 646 1133 l 646 1125 z "},"Ö":{"ha":876,"x_min":60,"x_max":818,"o":"m 447 896 q 722 783 626 896 q 818 460 818 669 q 717 113 818 235 q 429 -8 615 -8 q 156 108 251 -8 q 60 439 60 224 q 160 777 60 658 q 447 896 261 896 m 442 833 q 210 735 289 833 q 132 446 132 636 q 208 153 132 253 q 433 53 285 53 q 665 154 585 53 q 744 450 744 256 q 667 736 744 639 q 442 833 590 833 m 535 1113 q 580 1068 580 1113 q 534 1021 580 1021 q 489 1066 489 1021 q 501 1100 489 1087 q 535 1113 514 1113 z "},"×":{"ha":667,"x_min":117,"x_max":550,"o":"m 550 549 l 372 372 l 550 193 l 550 185 l 513 153 l 333 333 l 153 153 l 117 185 l 117 193 l 296 372 l 117 549 l 117 558 l 153 589 l 333 410 l 513 589 l 550 558 l 550 549 z "},"Ø":{"ha":876,"x_min":60,"x_max":818,"o":"m 650 844 q 818 460 818 742 q 717 113 818 233 q 429 -8 617 -8 q 267 24 339 -8 l 194 -132 l 149 -117 l 144 -110 l 218 50 q 60 439 60 160 q 160 777 60 658 q 449 896 261 896 q 599 869 533 896 l 657 996 l 703 981 l 708 971 l 650 844 m 132 446 q 247 113 132 207 l 571 810 q 442 833 513 833 q 210 735 289 833 q 132 446 132 636 m 432 53 q 664 153 585 53 q 743 450 743 254 q 619 782 743 692 l 294 82 q 432 53 353 53 z "},"Ù":{"ha":860,"x_min":111,"x_max":751,"o":"m 322 1185 q 579 1047 428 1121 l 564 1011 l 553 1007 q 296 1131 414 1069 l 293 1140 l 313 1182 l 322 1185 m 749 328 q 668 81 753 168 q 426 -7 583 -7 q 191 78 272 -7 q 111 322 110 163 l 113 447 l 111 888 l 183 888 l 181 329 q 243 126 179 196 q 431 57 307 57 q 618 124 554 57 q 682 322 682 192 l 679 888 l 751 888 l 750 435 l 749 328 z "},"Ú":{"ha":860,"x_min":113,"x_max":751,"o":"m 750 328 q 668 81 753 168 q 426 -7 583 -7 q 192 78 274 -7 q 113 322 111 163 l 113 888 l 183 888 l 181 329 q 243 126 179 196 q 431 57 307 57 q 619 125 554 57 q 682 322 683 193 l 679 888 l 751 888 l 750 435 l 750 328 m 618 1138 l 615 1128 q 358 1004 497 1067 l 347 1008 l 332 1044 q 589 1182 483 1118 l 599 1179 l 618 1138 z "},"Û":{"ha":860,"x_min":111,"x_max":751,"o":"m 272 1057 q 422 1172 332 1097 l 449 1172 q 600 1057 550 1092 l 583 1022 l 574 1022 q 436 1117 469 1092 q 299 1022 403 1093 l 289 1022 l 272 1057 m 749 328 q 668 81 753 168 q 426 -7 583 -7 q 191 78 272 -7 q 111 322 110 163 l 113 447 l 111 888 l 183 888 l 181 329 q 243 126 179 196 q 431 57 307 57 q 618 124 554 57 q 682 322 682 192 l 679 888 l 751 888 l 750 435 l 749 328 z "},"Ü":{"ha":860,"x_min":111,"x_max":751,"o":"m 335 1136 q 379 1092 379 1136 q 367 1057 379 1069 q 332 1044 354 1044 q 288 1089 288 1044 q 300 1124 288 1111 q 335 1136 313 1136 m 542 1136 q 586 1092 586 1136 q 574 1057 586 1069 q 539 1044 561 1044 q 494 1089 494 1044 q 507 1124 494 1111 q 542 1136 519 1136 m 749 328 q 668 81 753 168 q 426 -7 583 -7 q 191 78 272 -7 q 111 322 110 163 l 113 447 l 111 888 l 183 888 l 181 329 q 243 126 179 196 q 431 57 307 57 q 618 124 554 57 q 682 322 682 192 l 679 888 l 751 888 l 750 435 l 749 328 z "},"Ý":{"ha":711,"x_min":28,"x_max":683,"o":"m 379 0 l 307 0 l 311 265 l 310 328 l 28 888 l 108 888 l 125 844 l 342 414 l 350 414 l 586 843 l 604 888 l 683 888 l 378 326 l 376 265 l 379 0 m 529 1138 l 526 1128 q 269 1004 408 1067 l 258 1008 l 243 1044 q 500 1182 394 1118 l 510 1179 l 529 1138 z "},"Þ":{"ha":704,"x_min":140,"x_max":640,"o":"m 378 728 q 573 662 506 728 q 640 471 640 596 q 559 247 640 325 q 325 168 478 168 l 211 167 l 213 0 l 140 0 l 143 269 l 140 888 l 214 888 l 213 726 l 378 728 m 367 228 q 515 304 464 243 q 567 468 567 365 q 369 667 567 658 l 213 664 l 211 274 l 211 231 l 367 228 z "},"ß":{"ha":754,"x_min":113,"x_max":690,"o":"m 385 692 q 636 629 499 692 l 642 614 l 443 386 q 629 310 568 358 q 690 181 690 261 q 628 45 690 96 q 472 -6 567 -6 q 283 43 365 -6 l 290 110 l 299 113 q 381 67 335 83 q 468 51 428 51 q 576 89 535 51 q 618 182 618 126 q 553 285 618 246 q 358 346 489 324 l 354 364 l 553 592 q 381 635 465 635 q 233 587 288 635 q 179 458 179 539 l 178 214 l 181 0 l 113 0 l 114 203 l 114 458 q 187 628 114 564 q 385 692 260 692 z "},"à":{"ha":700,"x_min":40,"x_max":647,"o":"m 450 774 q 231 956 297 899 l 229 965 l 258 1003 l 267 1004 q 483 808 376 896 l 460 775 l 450 774 m 576 0 l 561 63 l 510 200 l 182 200 l 128 65 l 110 0 l 40 0 l 317 688 l 394 688 l 647 0 l 576 0 m 357 614 l 350 614 l 206 257 l 344 256 l 489 257 l 357 614 z "},"á":{"ha":700,"x_min":40,"x_max":647,"o":"m 576 0 l 561 63 l 510 200 l 182 200 l 128 65 l 110 0 l 40 0 l 317 688 l 394 688 l 647 0 l 576 0 m 357 614 l 350 614 l 206 257 l 344 256 l 489 257 l 357 614 m 524 965 l 522 956 q 303 774 456 899 l 293 775 l 269 808 q 486 1004 376 896 l 494 1003 l 524 965 z "},"â":{"ha":700,"x_min":40,"x_max":647,"o":"m 188 810 q 343 990 258 885 l 372 990 q 528 810 461 879 l 506 778 l 496 778 q 357 931 418 858 q 219 778 288 847 l 210 778 l 188 810 m 576 0 l 561 63 l 510 200 l 182 200 l 128 65 l 110 0 l 40 0 l 317 688 l 394 688 l 647 0 l 576 0 m 357 614 l 350 614 l 206 257 l 344 256 l 489 257 l 357 614 z "},"ã":{"ha":700,"x_min":40,"x_max":647,"o":"m 576 0 l 561 63 l 510 200 l 182 200 l 128 65 l 110 0 l 40 0 l 317 688 l 394 688 l 647 0 l 576 0 m 357 614 l 350 614 l 206 257 l 344 256 l 489 257 l 357 614 m 563 924 l 483 842 l 472 838 q 361 865 443 840 q 256 890 272 890 q 211 858 243 890 l 181 829 l 172 829 l 149 854 l 149 863 l 228 944 l 239 947 q 356 919 271 944 q 454 896 435 896 q 504 931 469 896 q 531 957 504 931 l 538 957 l 563 932 l 563 924 z "},"ä":{"ha":700,"x_min":40,"x_max":647,"o":"m 251 843 q 207 888 207 843 q 219 922 207 910 q 254 935 232 935 q 299 890 299 935 q 286 856 299 868 q 251 843 274 843 m 458 843 q 414 888 414 843 q 426 922 414 910 q 461 935 439 935 q 506 890 506 935 q 493 856 506 868 q 458 843 481 843 m 576 0 l 561 63 l 510 200 l 182 200 l 128 65 l 110 0 l 40 0 l 317 688 l 394 688 l 647 0 l 576 0 m 357 614 l 350 614 l 206 257 l 344 256 l 489 257 l 357 614 z "},"å":{"ha":700,"x_min":40,"x_max":647,"o":"m 576 0 l 561 63 l 510 200 l 182 200 l 128 65 l 110 0 l 40 0 l 317 688 l 394 688 l 647 0 l 576 0 m 357 614 l 350 614 l 206 257 l 344 256 l 489 257 l 357 614 m 354 1003 q 433 973 404 1003 q 461 899 461 943 q 429 819 461 849 q 353 790 397 790 q 276 819 307 790 q 246 897 246 847 q 275 974 246 944 q 354 1003 304 1003 m 353 961 q 305 944 322 961 q 288 899 288 928 q 306 849 288 867 q 353 832 324 832 q 401 849 382 832 q 421 896 421 865 q 403 943 421 925 q 353 961 386 961 z "},"æ":{"ha":964,"x_min":6,"x_max":919,"o":"m 914 0 l 533 0 l 526 63 l 489 285 l 199 225 l 104 65 l 78 0 l 6 0 l 406 688 l 803 688 l 808 679 l 800 626 l 613 632 l 499 632 l 544 353 l 800 400 l 806 396 l 807 340 l 554 297 l 593 57 l 726 57 l 915 61 l 919 54 l 914 0 m 435 614 l 428 614 l 239 294 l 481 340 l 435 614 z "},"ç":{"ha":644,"x_min":71,"x_max":590,"o":"m 378 51 q 576 119 483 51 l 586 115 l 581 53 q 394 -7 497 0 l 374 -74 l 418 -101 q 468 -175 468 -131 q 440 -235 468 -212 q 369 -258 411 -258 q 278 -214 314 -258 l 288 -174 l 293 -172 q 367 -215 329 -215 q 403 -204 389 -215 q 417 -174 417 -193 q 385 -133 417 -151 l 321 -94 l 347 -6 q 142 92 213 3 q 71 340 71 182 q 154 601 71 510 q 390 693 238 693 q 590 639 504 693 l 575 576 l 565 574 q 383 635 489 635 q 203 561 265 635 q 142 344 142 488 q 203 127 142 203 q 378 51 264 51 z "},"è":{"ha":589,"x_min":136,"x_max":536,"o":"m 428 774 q 208 956 275 899 l 207 965 l 236 1003 l 244 1004 q 461 808 354 896 l 438 775 l 428 774 m 528 0 l 136 0 l 138 208 l 136 688 l 528 688 l 533 679 l 526 626 l 356 631 l 204 631 l 203 383 l 346 382 l 468 385 l 472 376 l 467 322 l 339 325 l 201 324 l 201 214 l 203 57 l 346 57 l 529 60 l 536 53 l 528 0 z "},"é":{"ha":589,"x_min":136,"x_max":536,"o":"m 528 0 l 136 0 l 139 208 l 136 688 l 528 688 l 533 679 l 526 626 l 356 631 l 206 631 l 204 383 l 346 382 l 468 385 l 472 376 l 467 322 l 340 325 l 203 324 l 203 214 l 204 57 l 346 57 l 529 60 l 536 53 l 528 0 m 501 965 l 500 956 q 281 774 433 899 l 271 775 l 247 808 q 464 1004 354 896 l 472 1003 l 501 965 z "},"ê":{"ha":589,"x_min":136,"x_max":536,"o":"m 164 810 q 319 990 235 885 l 349 990 q 504 810 438 879 l 482 778 l 472 778 q 333 931 394 858 q 196 778 264 847 l 186 778 l 164 810 m 528 0 l 136 0 l 138 208 l 136 688 l 528 688 l 533 679 l 526 626 l 356 631 l 204 631 l 203 383 l 346 382 l 468 385 l 472 376 l 467 322 l 339 325 l 201 324 l 201 214 l 203 57 l 346 57 l 529 60 l 536 53 l 528 0 z "},"ë":{"ha":589,"x_min":136,"x_max":536,"o":"m 229 843 q 185 888 185 843 q 197 922 185 910 q 232 935 210 935 q 276 890 276 935 q 264 856 276 868 q 229 843 251 843 m 436 843 q 392 888 392 843 q 404 922 392 910 q 439 935 417 935 q 483 890 483 935 q 471 856 483 868 q 436 843 458 843 m 528 0 l 136 0 l 138 208 l 136 688 l 528 688 l 533 679 l 526 626 l 356 631 l 204 631 l 203 383 l 346 382 l 468 385 l 472 376 l 467 322 l 339 325 l 201 324 l 201 214 l 203 57 l 346 57 l 529 60 l 536 53 l 528 0 z "},"ì":{"ha":346,"x_min":49,"x_max":303,"o":"m 86 1004 q 303 808 196 896 l 279 775 l 269 774 q 50 956 117 899 l 49 965 l 78 1003 l 86 1004 m 204 0 l 136 0 l 138 208 l 136 688 l 204 688 l 201 214 l 204 0 z "},"í":{"ha":346,"x_min":89,"x_max":343,"o":"m 204 0 l 136 0 l 139 208 l 136 688 l 206 688 l 203 214 l 204 0 m 343 965 l 342 956 q 122 774 275 899 l 113 775 l 89 808 q 306 1004 196 896 l 314 1003 l 343 965 z "},"î":{"ha":346,"x_min":6,"x_max":346,"o":"m 6 810 q 161 990 76 885 l 190 990 q 346 810 279 879 l 324 778 l 314 778 q 175 931 236 858 q 38 778 106 847 l 28 778 l 6 810 m 204 0 l 136 0 l 138 208 l 136 688 l 204 688 l 201 214 l 204 0 z "},"ï":{"ha":346,"x_min":50,"x_max":301,"o":"m 97 935 q 142 890 142 935 q 129 856 142 868 q 94 843 117 843 q 50 888 50 843 q 63 922 50 910 q 97 935 75 935 m 257 935 q 301 890 301 935 q 289 856 301 868 q 254 843 276 843 q 210 888 210 843 q 222 922 210 910 q 257 935 235 935 m 204 0 l 136 0 l 138 208 l 136 688 l 204 688 l 201 214 l 204 0 z "},"ð":{"ha":801,"x_min":22,"x_max":729,"o":"m 407 693 q 646 608 563 693 q 729 367 729 524 q 640 90 729 186 q 386 -6 551 -6 q 154 0 274 -6 l 157 208 l 157 314 l 26 314 l 22 321 l 25 367 l 156 367 l 154 688 l 407 693 m 396 51 q 592 128 524 51 q 660 354 660 206 q 403 633 660 633 q 224 628 315 633 l 222 367 l 413 367 l 417 360 l 414 314 l 221 314 l 221 214 l 222 57 q 396 51 317 51 z "},"ñ":{"ha":822,"x_min":136,"x_max":686,"o":"m 683 0 l 611 0 l 206 574 l 200 574 l 199 222 l 200 0 l 136 0 l 139 203 l 138 688 l 210 688 l 615 113 l 622 113 l 622 685 l 686 689 l 683 199 l 683 0 m 615 924 l 536 842 l 525 838 q 414 865 496 840 q 308 890 325 890 q 264 858 296 890 l 233 829 l 225 829 l 201 854 l 201 863 l 281 944 l 292 947 q 408 919 324 944 q 507 896 488 896 q 557 931 522 896 q 583 957 557 931 l 590 957 l 615 932 l 615 924 z "},"ò":{"ha":771,"x_min":71,"x_max":700,"o":"m 299 1004 q 515 808 408 896 l 492 775 l 482 774 q 263 956 329 899 l 261 965 l 290 1003 l 299 1004 m 394 694 q 621 606 542 694 q 700 357 700 518 q 616 88 700 182 q 376 -7 532 -7 q 150 83 229 -7 q 71 339 71 174 q 155 602 71 510 q 394 694 239 694 m 388 635 q 142 347 142 635 q 381 51 142 51 q 631 346 631 51 q 388 635 631 635 z "},"ó":{"ha":771,"x_min":71,"x_max":700,"o":"m 394 694 q 621 606 542 694 q 700 357 700 518 q 616 88 700 182 q 378 -7 532 -7 q 151 83 231 -7 q 71 339 71 174 q 155 602 71 510 q 394 694 239 694 m 389 635 q 142 347 142 635 q 381 51 142 51 q 631 346 631 51 q 389 635 631 635 m 556 965 l 554 956 q 335 774 488 899 l 325 775 l 301 808 q 518 1004 408 896 l 526 1003 l 556 965 z "},"ô":{"ha":771,"x_min":71,"x_max":700,"o":"m 218 810 q 374 990 289 885 l 403 990 q 558 810 492 879 l 536 778 l 526 778 q 388 931 449 858 q 250 778 318 847 l 240 778 l 218 810 m 394 694 q 621 606 542 694 q 700 357 700 518 q 616 88 700 182 q 376 -7 532 -7 q 150 83 229 -7 q 71 339 71 174 q 155 602 71 510 q 394 694 239 694 m 388 635 q 142 347 142 635 q 381 51 142 51 q 631 346 631 51 q 388 635 631 635 z "},"õ":{"ha":771,"x_min":71,"x_max":700,"o":"m 394 694 q 621 606 542 694 q 700 357 700 518 q 616 88 700 182 q 378 -7 532 -7 q 151 83 231 -7 q 71 339 71 174 q 155 602 71 510 q 394 694 239 694 m 389 635 q 142 347 142 635 q 381 51 142 51 q 631 346 631 51 q 389 635 631 635 m 594 924 l 515 842 l 504 838 q 393 865 475 840 q 288 890 304 890 q 243 858 275 890 l 213 829 l 204 829 l 181 854 l 181 863 l 260 944 l 271 947 q 388 919 303 944 q 486 896 467 896 q 536 931 501 896 q 563 957 536 931 l 569 957 l 594 932 l 594 924 z "},"ö":{"ha":771,"x_min":71,"x_max":700,"o":"m 286 935 q 331 890 331 935 q 318 856 331 868 q 283 843 306 843 q 239 888 239 843 q 251 922 239 910 q 286 935 264 935 m 493 935 q 538 890 538 935 q 525 856 538 868 q 490 843 513 843 q 446 888 446 843 q 458 922 446 910 q 493 935 471 935 m 394 694 q 621 606 542 694 q 700 357 700 518 q 616 88 700 182 q 376 -7 532 -7 q 150 83 229 -7 q 71 339 71 174 q 155 602 71 510 q 394 694 239 694 m 388 635 q 142 347 142 635 q 381 51 142 51 q 631 346 631 51 q 388 635 631 635 z "},"÷":{"ha":667,"x_min":65,"x_max":635,"o":"m 631 344 l 71 344 l 65 350 l 69 399 l 628 399 l 635 392 l 631 344 m 356 168 q 400 124 400 168 q 355 77 400 77 q 310 121 310 77 q 322 155 310 142 q 356 168 335 168 m 356 649 q 400 604 400 649 q 355 557 400 557 q 310 601 310 557 q 322 636 310 623 q 356 649 335 649 z "},"ø":{"ha":771,"x_min":71,"x_max":700,"o":"m 563 654 q 700 357 700 572 q 616 88 700 182 q 376 -7 532 -7 q 258 11 315 -7 l 190 -131 l 147 -114 l 144 -104 l 210 33 q 71 339 71 117 q 155 602 71 510 q 394 694 239 694 q 514 676 457 694 l 563 778 l 603 761 l 608 751 l 563 654 m 142 347 q 238 92 142 161 l 488 619 q 388 635 442 635 q 142 347 142 635 m 381 51 q 631 346 631 51 q 535 594 631 526 l 283 67 q 381 51 329 51 z "},"ù":{"ha":757,"x_min":114,"x_max":647,"o":"m 294 1004 q 511 808 404 896 l 488 775 l 478 774 q 258 956 325 899 l 257 965 l 286 1003 l 294 1004 m 644 243 q 577 60 647 125 q 378 -6 507 -6 q 181 59 249 -6 q 114 243 113 124 l 115 344 l 115 688 l 183 688 l 179 251 q 229 103 178 154 q 379 53 281 53 q 529 103 478 53 q 581 251 581 154 l 578 688 l 647 688 l 644 336 l 644 243 z "},"ú":{"ha":757,"x_min":114,"x_max":647,"o":"m 644 243 q 576 60 647 125 q 376 -6 506 -6 q 181 59 249 -6 q 114 243 113 124 l 115 344 l 114 688 l 183 688 l 179 251 q 229 103 178 154 q 379 53 281 53 q 529 103 478 53 q 581 251 581 154 l 578 688 l 647 688 l 644 336 l 644 243 m 551 965 l 550 956 q 331 774 483 899 l 321 775 l 297 808 q 514 1004 404 896 l 522 1003 l 551 965 z "},"û":{"ha":757,"x_min":114,"x_max":647,"o":"m 215 810 q 371 990 286 885 l 400 990 q 556 810 489 879 l 533 778 l 524 778 q 385 931 446 858 q 247 778 315 847 l 238 778 l 215 810 m 644 243 q 577 60 647 125 q 378 -6 507 -6 q 181 59 249 -6 q 114 243 113 124 l 115 344 l 115 688 l 183 688 l 179 251 q 229 103 178 154 q 379 53 281 53 q 529 103 478 53 q 581 251 581 154 l 578 688 l 647 688 l 644 336 l 644 243 z "},"ü":{"ha":757,"x_min":114,"x_max":647,"o":"m 282 935 q 326 890 326 935 q 314 856 326 868 q 279 843 301 843 q 235 888 235 843 q 247 922 235 910 q 282 935 260 935 m 489 935 q 533 890 533 935 q 521 856 533 868 q 486 843 508 843 q 442 888 442 843 q 454 922 442 910 q 489 935 467 935 m 644 243 q 577 60 647 125 q 378 -6 507 -6 q 181 59 249 -6 q 114 243 113 124 l 115 344 l 115 688 l 183 688 l 179 251 q 229 103 178 154 q 379 53 281 53 q 529 103 478 53 q 581 251 581 154 l 578 688 l 647 688 l 644 336 l 644 243 z "},"ý":{"ha":640,"x_min":44,"x_max":594,"o":"m 343 0 l 275 0 l 278 203 l 276 249 l 44 688 l 121 688 l 135 653 l 307 329 l 314 329 l 503 650 l 519 688 l 594 688 l 343 250 l 342 203 l 343 0 m 493 965 l 492 956 q 272 774 425 899 l 263 775 l 239 808 q 456 1004 346 896 l 464 1003 l 493 965 z "},"þ":{"ha":633,"x_min":136,"x_max":561,"o":"m 342 567 q 504 515 447 567 q 561 365 561 463 q 492 190 561 251 q 296 128 424 128 l 204 128 l 206 0 l 136 0 l 139 208 l 136 688 l 206 688 l 204 565 l 342 567 m 331 183 q 489 360 489 207 q 329 511 489 504 l 204 508 l 203 214 l 203 186 l 331 183 z "},"ÿ":{"ha":640,"x_min":44,"x_max":593,"o":"m 221 843 q 176 888 176 843 q 189 922 176 910 q 224 935 201 935 q 268 890 268 935 q 256 856 268 868 q 221 843 243 843 m 428 843 q 383 888 383 843 q 396 922 383 910 q 431 935 408 935 q 475 890 475 935 q 463 856 475 868 q 428 843 450 843 m 343 0 l 275 0 l 276 203 l 276 249 l 44 688 l 119 688 l 133 653 l 307 329 l 314 329 l 503 650 l 519 688 l 593 688 l 342 250 l 340 203 l 343 0 z "},"Ā":{"ha":788,"x_min":22,"x_max":753,"o":"m 678 0 l 658 75 l 592 267 l 381 269 l 190 267 l 118 78 l 97 0 l 22 0 l 361 888 l 443 888 l 753 0 l 678 0 m 404 804 l 396 804 l 215 331 l 389 329 l 569 331 l 404 804 m 593 1067 l 197 1067 l 192 1074 l 196 1118 l 592 1118 l 597 1113 l 593 1067 z "},"ā":{"ha":700,"x_min":40,"x_max":647,"o":"m 576 0 l 561 63 l 510 200 l 182 200 l 128 65 l 110 0 l 40 0 l 317 688 l 394 688 l 647 0 l 576 0 m 357 614 l 350 614 l 206 257 l 344 256 l 489 257 l 357 614 m 554 865 l 158 865 l 153 872 l 157 917 l 553 917 l 558 911 l 554 865 z "},"Ă":{"ha":788,"x_min":22,"x_max":753,"o":"m 678 0 l 658 75 l 592 267 l 381 269 l 190 267 l 118 78 l 97 0 l 22 0 l 361 888 l 443 888 l 753 0 l 678 0 m 404 804 l 396 804 l 215 331 l 389 329 l 569 331 l 404 804 m 554 1124 q 494 1039 536 1068 q 393 1010 451 1010 q 236 1124 271 1010 l 260 1151 l 272 1151 q 394 1064 299 1064 q 517 1151 489 1064 l 529 1151 l 554 1124 z "},"ă":{"ha":700,"x_min":40,"x_max":647,"o":"m 576 0 l 561 63 l 510 200 l 182 200 l 128 65 l 110 0 l 40 0 l 317 688 l 394 688 l 647 0 l 576 0 m 357 614 l 350 614 l 206 257 l 344 256 l 489 257 l 357 614 m 517 936 q 356 782 485 782 q 199 936 226 782 l 222 965 l 235 965 q 357 838 257 838 q 479 965 457 838 l 492 965 l 517 936 z "},"Ą":{"ha":788,"x_min":22,"x_max":842,"o":"m 842 -197 q 706 -274 774 -274 q 634 -247 661 -274 q 607 -175 607 -219 q 624 -108 607 -146 q 688 0 642 -69 l 676 0 l 658 75 l 592 267 l 382 269 l 190 267 l 118 78 l 97 0 l 22 0 l 361 888 l 443 888 l 753 0 l 738 0 q 658 -165 658 -121 q 714 -221 658 -221 q 821 -158 769 -221 l 826 -158 l 842 -197 m 404 804 l 396 804 l 215 331 l 389 329 l 569 331 l 404 804 z "},"ą":{"ha":700,"x_min":40,"x_max":715,"o":"m 715 -196 q 600 -272 661 -272 q 534 -247 561 -272 q 507 -181 507 -222 q 524 -112 507 -150 q 588 0 540 -74 l 576 0 l 561 63 l 510 200 l 182 200 l 128 65 l 110 0 l 40 0 l 317 688 l 394 688 l 647 0 l 639 0 q 560 -168 560 -117 q 608 -219 560 -219 q 696 -153 654 -219 l 700 -153 l 715 -196 m 357 614 l 350 614 l 206 257 l 344 256 l 489 257 l 357 614 z "},"Ć":{"ha":725,"x_min":60,"x_max":685,"o":"m 442 894 q 685 821 581 894 l 669 756 l 658 754 q 439 832 561 832 q 212 732 290 832 q 133 443 133 632 q 210 155 133 254 q 429 56 286 56 q 672 143 561 56 l 683 139 l 678 71 q 425 -8 558 -8 q 155 108 250 -8 q 60 439 60 224 q 159 776 60 657 q 442 894 258 894 m 619 1138 l 617 1128 q 360 1004 499 1067 l 349 1008 l 333 1044 q 590 1182 485 1118 l 600 1179 l 619 1138 z "},"ć":{"ha":644,"x_min":71,"x_max":590,"o":"m 390 693 q 590 639 504 693 l 576 576 l 565 574 q 385 635 489 635 q 205 561 267 635 q 143 344 143 488 q 203 126 143 201 q 378 51 264 51 q 576 119 483 51 l 586 115 l 581 53 q 376 -7 485 -7 q 150 83 229 -7 q 71 340 71 174 q 154 601 71 510 q 390 693 238 693 m 531 965 l 529 956 q 310 774 463 899 l 300 775 l 276 808 q 493 1004 383 896 l 501 1003 l 531 965 z "},"Ĉ":{"ha":725,"x_min":60,"x_max":685,"o":"m 442 894 q 685 821 581 894 l 669 756 l 658 754 q 439 832 561 832 q 212 732 290 832 q 133 443 133 632 q 210 155 133 254 q 429 56 286 56 q 672 143 561 56 l 683 139 l 678 71 q 425 -8 558 -8 q 155 108 250 -8 q 60 439 60 224 q 159 776 60 657 q 442 894 258 894 m 272 1057 q 422 1172 332 1097 l 449 1172 q 600 1057 550 1092 l 583 1022 l 574 1022 q 436 1117 469 1092 q 299 1022 403 1093 l 289 1022 l 272 1057 z "},"ĉ":{"ha":644,"x_min":71,"x_max":590,"o":"m 193 810 q 349 990 264 885 l 378 990 q 533 810 467 879 l 511 778 l 501 778 q 363 931 424 858 q 225 778 293 847 l 215 778 l 193 810 m 390 693 q 590 639 504 693 l 575 576 l 565 574 q 383 635 489 635 q 203 561 265 635 q 142 344 142 488 q 203 127 142 203 q 378 51 264 51 q 576 119 483 51 l 586 115 l 581 53 q 376 -7 485 -7 q 150 83 229 -7 q 71 340 71 174 q 154 601 71 510 q 390 693 238 693 z "},"Ċ":{"ha":725,"x_min":60,"x_max":685,"o":"m 442 894 q 685 821 581 894 l 669 756 l 658 754 q 439 832 561 832 q 212 732 290 832 q 133 443 133 632 q 210 155 133 254 q 429 56 286 56 q 672 143 561 56 l 683 139 l 678 71 q 425 -8 558 -8 q 155 108 250 -8 q 60 439 60 224 q 159 776 60 657 q 442 894 258 894 m 436 1156 q 482 1110 482 1156 q 435 1061 482 1061 q 389 1107 389 1061 q 401 1142 389 1129 q 436 1156 414 1156 z "},"ċ":{"ha":644,"x_min":71,"x_max":590,"o":"m 363 954 q 408 908 408 954 q 361 860 408 860 q 315 906 315 860 q 328 941 315 928 q 363 954 340 954 m 390 693 q 590 639 504 693 l 575 576 l 565 574 q 383 635 489 635 q 203 561 265 635 q 142 344 142 488 q 203 127 142 203 q 378 51 264 51 q 576 119 483 51 l 586 115 l 581 53 q 376 -7 485 -7 q 150 83 229 -7 q 71 340 71 174 q 154 601 71 510 q 390 693 238 693 z "},"Č":{"ha":725,"x_min":60,"x_max":685,"o":"m 442 894 q 685 821 581 894 l 669 756 l 658 754 q 439 832 561 832 q 212 732 290 832 q 133 443 133 632 q 210 155 133 254 q 429 56 286 56 q 672 143 561 56 l 683 139 l 678 71 q 425 -8 558 -8 q 155 108 250 -8 q 60 439 60 224 q 159 776 60 657 q 442 894 258 894 m 600 1125 q 450 1010 540 1085 l 424 1010 q 272 1125 322 1090 l 289 1160 l 299 1160 q 436 1065 403 1090 q 574 1160 469 1089 l 583 1160 l 600 1125 z "},"č":{"ha":644,"x_min":71,"x_max":590,"o":"m 390 693 q 590 639 504 693 l 576 576 l 565 574 q 385 635 489 635 q 205 561 267 635 q 143 344 143 488 q 203 126 143 201 q 378 51 264 51 q 576 119 483 51 l 586 115 l 581 53 q 376 -7 485 -7 q 150 83 229 -7 q 71 340 71 174 q 154 601 71 510 q 390 693 238 693 m 532 958 q 376 778 461 883 l 347 778 q 192 958 258 889 l 214 990 l 224 990 q 363 838 301 910 q 500 990 432 921 l 510 990 l 532 958 z "},"Ď":{"ha":892,"x_min":140,"x_max":832,"o":"m 442 893 q 731 785 631 893 q 832 474 832 676 q 725 117 832 242 q 418 -7 618 -7 q 140 0 314 -7 l 144 269 l 140 888 l 442 893 m 428 54 q 673 158 588 54 q 758 461 758 263 q 676 738 758 644 q 438 832 594 832 q 214 825 357 832 l 210 274 l 213 63 q 428 54 340 54 m 597 1125 q 447 1010 538 1085 l 421 1010 q 269 1125 319 1090 l 286 1160 l 296 1160 q 433 1065 400 1090 q 571 1160 467 1089 l 581 1160 l 597 1125 z "},"ď":{"ha":782,"x_min":136,"x_max":711,"o":"m 389 693 q 628 608 544 693 q 711 367 711 524 q 623 90 711 186 q 369 -6 535 -6 q 136 0 256 -6 l 139 208 l 136 688 l 389 693 m 378 51 q 574 128 506 51 q 642 354 642 206 q 385 633 642 633 q 206 628 297 633 l 203 214 l 204 57 q 378 51 299 51 m 538 958 q 382 778 467 883 l 353 778 q 197 958 264 889 l 219 990 l 229 990 q 368 838 307 910 q 506 990 438 921 l 515 990 l 538 958 z "},"Đ":{"ha":892,"x_min":140,"x_max":832,"o":"m 442 893 q 731 785 631 893 q 832 474 832 676 q 725 117 832 242 q 418 -7 618 -7 q 140 0 314 -7 l 144 269 l 140 888 l 442 893 m 428 54 q 673 158 588 54 q 758 461 758 263 q 676 738 758 644 q 438 832 594 832 q 214 825 357 832 l 210 274 l 213 63 q 428 54 340 54 m 631 1067 l 235 1067 l 229 1074 l 233 1118 l 629 1118 l 635 1113 l 631 1067 z "},"đ":{"ha":782,"x_min":136,"x_max":711,"o":"m 389 693 q 628 608 544 693 q 711 367 711 524 q 623 90 711 186 q 369 -6 535 -6 q 136 0 256 -6 l 139 208 l 136 688 l 389 693 m 378 51 q 574 128 506 51 q 642 354 642 206 q 385 633 642 633 q 206 628 297 633 l 203 214 l 204 57 q 378 51 299 51 m 567 865 l 171 865 l 165 872 l 169 917 l 565 917 l 571 911 l 567 865 z "},"Ē":{"ha":651,"x_min":140,"x_max":615,"o":"m 608 0 l 140 0 l 144 269 l 140 888 l 607 888 l 613 879 l 604 822 l 397 825 l 214 824 l 211 489 l 385 488 l 533 489 l 539 482 l 532 425 l 211 426 l 210 274 l 213 63 l 392 61 l 610 65 l 615 57 l 608 0 m 574 1067 l 178 1067 l 172 1074 l 176 1118 l 572 1118 l 578 1113 l 574 1067 z "},"ē":{"ha":589,"x_min":131,"x_max":536,"o":"m 528 0 l 136 0 l 139 208 l 136 688 l 528 688 l 533 679 l 526 626 l 356 631 l 206 631 l 204 383 l 346 382 l 468 385 l 472 376 l 467 322 l 340 325 l 203 324 l 203 214 l 204 57 l 346 57 l 529 60 l 536 53 l 528 0 m 532 865 l 136 865 l 131 872 l 135 917 l 531 917 l 536 911 l 532 865 z "},"Ĕ":{"ha":651,"x_min":140,"x_max":615,"o":"m 608 0 l 140 0 l 144 269 l 140 888 l 607 888 l 613 879 l 604 822 l 397 825 l 214 824 l 211 489 l 385 488 l 533 489 l 539 482 l 532 425 l 211 426 l 210 274 l 213 63 l 392 61 l 610 65 l 615 57 l 608 0 m 535 1124 q 474 1039 517 1068 q 374 1010 432 1010 q 217 1124 251 1010 l 240 1151 l 253 1151 q 375 1064 279 1064 q 497 1151 469 1064 l 510 1151 l 535 1124 z "},"ĕ":{"ha":589,"x_min":136,"x_max":536,"o":"m 528 0 l 136 0 l 139 208 l 136 688 l 528 688 l 533 679 l 526 626 l 356 631 l 206 631 l 204 383 l 346 382 l 468 385 l 472 376 l 467 322 l 340 325 l 203 324 l 203 214 l 204 57 l 346 57 l 529 60 l 536 53 l 528 0 m 493 936 q 332 782 461 782 q 175 936 203 782 l 199 965 l 211 965 q 333 838 233 838 q 456 965 433 838 l 468 965 l 493 936 z "},"Ė":{"ha":651,"x_min":140,"x_max":615,"o":"m 375 1061 q 329 1107 329 1061 q 342 1142 329 1129 q 376 1156 354 1156 q 422 1110 422 1156 q 375 1061 422 1061 m 608 0 l 140 0 l 144 269 l 140 888 l 607 888 l 613 879 l 604 822 l 397 825 l 214 824 l 211 489 l 385 488 l 532 489 l 539 482 l 531 425 l 211 426 l 210 274 l 213 63 l 392 61 l 610 65 l 615 57 l 608 0 z "},"ė":{"ha":589,"x_min":136,"x_max":536,"o":"m 333 860 q 288 906 288 860 q 300 941 288 928 q 335 954 313 954 q 381 908 381 954 q 333 860 381 860 m 528 0 l 136 0 l 138 208 l 136 688 l 528 688 l 533 679 l 526 626 l 356 631 l 204 631 l 203 383 l 346 382 l 468 385 l 472 376 l 467 322 l 339 325 l 201 324 l 201 214 l 203 57 l 346 57 l 529 60 l 536 53 l 528 0 z "},"Ę":{"ha":651,"x_min":140,"x_max":624,"o":"m 624 -197 q 492 -274 560 -274 q 418 -246 446 -274 q 390 -172 390 -218 q 422 -79 390 -124 l 476 0 l 140 0 l 144 269 l 140 888 l 607 888 l 613 879 l 604 822 l 397 825 l 214 824 l 211 489 l 385 488 l 532 489 l 539 482 l 531 425 l 211 426 l 210 274 l 213 63 l 392 61 l 610 65 l 615 57 l 608 0 l 528 0 l 468 -90 q 442 -162 442 -131 q 457 -205 442 -189 q 500 -221 472 -221 q 604 -158 553 -221 l 608 -158 l 624 -197 z "},"ę":{"ha":589,"x_min":136,"x_max":539,"o":"m 539 -200 q 407 -276 475 -276 q 333 -249 361 -276 q 306 -175 306 -221 q 338 -82 306 -126 l 393 0 l 136 0 l 138 208 l 136 688 l 528 688 l 533 679 l 526 626 l 356 631 l 204 631 l 203 383 l 346 382 l 468 385 l 472 376 l 467 322 l 339 325 l 201 324 l 201 214 l 203 57 l 346 57 l 529 60 l 536 53 l 528 0 l 444 0 l 383 -93 q 357 -165 357 -133 q 372 -208 357 -192 q 415 -224 388 -224 q 519 -161 468 -224 l 524 -161 l 539 -200 z "},"Ě":{"ha":651,"x_min":140,"x_max":615,"o":"m 608 0 l 140 0 l 144 269 l 140 888 l 607 888 l 613 879 l 604 822 l 397 825 l 214 824 l 211 489 l 385 488 l 533 489 l 539 482 l 532 425 l 211 426 l 210 274 l 213 63 l 392 61 l 610 65 l 615 57 l 608 0 m 540 1125 q 390 1010 481 1085 l 364 1010 q 213 1125 263 1090 l 229 1160 l 239 1160 q 376 1065 343 1090 q 514 1160 410 1089 l 524 1160 l 540 1125 z "},"ě":{"ha":589,"x_min":136,"x_max":536,"o":"m 528 0 l 136 0 l 139 208 l 136 688 l 528 688 l 533 679 l 526 626 l 356 631 l 206 631 l 204 383 l 346 382 l 468 385 l 472 376 l 467 322 l 340 325 l 203 324 l 203 214 l 204 57 l 346 57 l 529 60 l 536 53 l 528 0 m 503 958 q 347 778 432 883 l 318 778 q 163 958 229 889 l 185 990 l 194 990 q 333 838 272 910 q 471 990 403 921 l 481 990 l 503 958 z "},"Ĝ":{"ha":836,"x_min":60,"x_max":738,"o":"m 482 894 q 738 825 613 894 l 721 758 l 710 757 q 474 832 585 832 q 220 731 307 832 q 133 433 133 631 q 442 56 133 56 q 661 92 533 56 l 663 221 l 661 339 l 731 344 l 729 229 l 732 42 q 440 -8 563 -7 q 156 106 253 -8 q 60 431 60 219 q 169 774 60 654 q 482 894 279 894 m 289 1057 q 439 1172 349 1097 l 465 1172 q 617 1057 567 1092 l 600 1022 l 590 1022 q 453 1117 486 1092 q 315 1022 419 1093 l 306 1022 l 289 1057 z "},"ĝ":{"ha":735,"x_min":71,"x_max":633,"o":"m 222 810 q 378 990 293 885 l 407 990 q 563 810 496 879 l 540 778 l 531 778 q 392 931 453 858 q 254 778 322 847 l 244 778 l 222 810 m 421 693 q 633 642 526 693 l 611 576 l 601 576 q 413 635 504 635 q 142 335 142 635 q 388 51 142 51 q 564 82 464 51 l 564 267 l 628 271 l 626 183 l 626 32 q 386 -6 486 -6 q 151 82 231 -6 q 71 333 71 169 q 162 600 71 507 q 421 693 253 693 z "},"Ğ":{"ha":836,"x_min":60,"x_max":738,"o":"m 482 894 q 738 825 613 894 l 721 758 l 710 757 q 474 832 585 832 q 220 731 307 832 q 133 433 133 631 q 442 56 133 56 q 661 92 533 56 l 663 221 l 661 339 l 731 344 l 729 229 l 732 42 q 440 -8 563 -7 q 156 106 253 -8 q 60 431 60 219 q 169 774 60 654 q 482 894 279 894 m 611 1124 q 551 1039 593 1068 q 450 1010 508 1010 q 293 1124 328 1010 l 317 1151 l 329 1151 q 451 1064 356 1064 q 574 1151 546 1064 l 586 1151 l 611 1124 z "},"ğ":{"ha":735,"x_min":71,"x_max":633,"o":"m 421 693 q 633 642 526 693 l 611 576 l 601 576 q 413 635 504 635 q 143 335 143 635 q 389 51 143 51 q 565 82 465 51 l 565 174 l 564 267 l 628 271 l 628 32 q 386 -6 488 -6 q 151 82 232 -6 q 71 333 71 169 q 163 600 71 507 q 421 693 254 693 m 551 936 q 390 782 519 782 q 233 936 261 782 l 257 965 l 269 965 q 392 838 292 838 q 514 965 492 838 l 526 965 l 551 936 z "},"Ġ":{"ha":836,"x_min":60,"x_max":738,"o":"m 482 894 q 738 825 613 894 l 721 758 l 710 757 q 474 832 585 832 q 220 731 307 832 q 133 433 133 631 q 442 56 133 56 q 661 92 533 56 l 663 221 l 661 339 l 731 344 l 729 229 l 732 42 q 440 -8 563 -7 q 156 106 253 -8 q 60 431 60 219 q 169 774 60 654 q 482 894 279 894 m 453 1156 q 499 1110 499 1156 q 451 1061 499 1061 q 406 1107 406 1061 q 418 1142 406 1129 q 453 1156 431 1156 z "},"ġ":{"ha":735,"x_min":71,"x_max":633,"o":"m 392 954 q 438 908 438 954 q 390 860 438 860 q 344 906 344 860 q 357 941 344 928 q 392 954 369 954 m 421 693 q 633 642 526 693 l 611 576 l 601 576 q 413 635 504 635 q 142 335 142 635 q 388 51 142 51 q 564 82 464 51 l 564 267 l 628 271 l 626 183 l 626 32 q 386 -6 486 -6 q 151 82 231 -6 q 71 333 71 169 q 162 600 71 507 q 421 693 253 693 z "},"Ģ":{"ha":836,"x_min":60,"x_max":739,"o":"m 482 894 q 739 825 614 894 l 722 758 l 710 757 q 474 832 585 832 q 221 731 308 832 q 133 433 133 631 q 442 56 133 56 q 661 92 535 56 l 664 221 l 663 339 l 731 344 l 729 229 l 732 42 q 440 -8 563 -7 q 156 106 253 -8 q 60 431 60 219 q 169 774 60 654 q 482 894 279 894 m 444 -85 q 499 -162 499 -115 q 390 -315 499 -236 l 364 -292 l 365 -285 q 438 -174 438 -229 q 397 -118 438 -142 l 397 -110 q 444 -85 424 -92 z "},"ģ":{"ha":735,"x_min":71,"x_max":633,"o":"m 421 693 q 633 642 526 693 l 611 576 l 601 576 q 413 635 504 635 q 142 335 142 635 q 388 51 142 51 q 564 82 464 51 l 564 267 l 628 271 l 626 183 l 626 32 q 386 -6 486 -6 q 151 82 231 -6 q 71 333 71 169 q 162 600 71 507 q 421 693 253 693 m 385 -85 q 439 -162 439 -115 q 331 -315 439 -236 l 304 -292 l 306 -285 q 378 -174 378 -229 q 338 -118 378 -142 l 338 -110 q 385 -85 364 -92 z "},"Ĥ":{"ha":940,"x_min":140,"x_max":800,"o":"m 301 1057 q 451 1172 361 1097 l 478 1172 q 629 1057 579 1092 l 613 1022 l 603 1022 q 465 1117 499 1092 q 328 1022 432 1093 l 318 1022 l 301 1057 m 799 0 l 726 0 l 731 269 l 729 418 l 460 419 l 211 418 l 210 274 l 213 0 l 140 0 l 144 269 l 140 888 l 214 888 l 211 482 l 468 481 l 729 482 l 726 888 l 800 888 l 796 274 l 799 0 z "},"ĥ":{"ha":822,"x_min":136,"x_max":686,"o":"m 243 810 q 399 990 314 885 l 428 990 q 583 810 517 879 l 561 778 l 551 778 q 413 931 474 858 q 275 778 343 847 l 265 778 l 243 810 m 686 0 l 618 0 l 619 208 l 619 317 l 201 317 l 201 214 l 204 0 l 136 0 l 138 208 l 136 688 l 204 688 l 203 378 l 619 378 l 618 688 l 686 688 l 683 214 l 686 0 z "},"Ħ":{"ha":983,"x_min":65,"x_max":918,"o":"m 817 274 l 819 0 l 747 0 l 751 269 l 750 418 l 479 419 l 231 418 l 231 274 l 233 0 l 160 0 l 164 269 l 161 668 l 71 668 l 65 674 l 69 722 l 161 722 l 160 888 l 233 888 l 232 722 l 749 722 l 747 888 l 819 888 l 818 722 l 911 722 l 918 715 l 914 668 l 818 668 l 817 274 m 232 668 l 232 482 l 488 481 l 750 482 l 749 668 l 232 668 z "},"ħ":{"ha":856,"x_min":74,"x_max":783,"o":"m 699 214 l 700 0 l 632 0 l 635 208 l 635 317 l 217 317 l 217 214 l 218 0 l 150 0 l 153 208 l 151 506 l 78 506 l 74 511 l 78 553 l 151 553 l 150 688 l 219 688 l 218 553 l 633 553 l 632 688 l 700 688 l 700 553 l 778 553 l 783 549 l 779 506 l 700 506 l 699 214 m 218 506 l 218 378 l 633 378 l 633 506 l 218 506 z "},"Ĩ":{"ha":354,"x_min":-7,"x_max":361,"o":"m 213 0 l 140 0 l 144 269 l 140 888 l 214 888 l 210 274 l 213 0 m 361 1121 l 289 1039 l 279 1036 q 178 1064 251 1039 q 92 1088 110 1088 q 47 1053 79 1088 l 25 1028 l 18 1028 l -7 1053 l -7 1061 l 65 1142 l 75 1146 q 178 1117 97 1143 q 263 1094 250 1094 q 307 1129 275 1094 l 329 1154 l 338 1154 l 361 1129 l 361 1121 z "},"ĩ":{"ha":346,"x_min":-10,"x_max":358,"o":"m 204 0 l 136 0 l 139 208 l 136 688 l 206 688 l 203 214 l 204 0 m 358 919 l 286 838 l 276 835 q 175 863 249 838 q 89 886 107 886 q 44 851 76 886 l 22 826 l 15 826 l -10 851 l -10 860 l 63 940 l 72 944 q 175 915 94 942 q 260 893 247 893 q 304 928 272 893 l 326 953 l 335 953 l 358 928 l 358 919 z "},"Ī":{"ha":354,"x_min":24,"x_max":329,"o":"m 213 0 l 140 0 l 144 269 l 140 888 l 214 888 l 210 274 l 213 0 m 325 1067 l 31 1067 l 24 1074 l 29 1118 l 322 1118 l 329 1113 l 325 1067 z "},"ī":{"ha":346,"x_min":22,"x_max":328,"o":"m 204 0 l 136 0 l 139 208 l 136 688 l 206 688 l 203 214 l 204 0 m 324 865 l 29 865 l 22 872 l 28 917 l 321 917 l 328 911 l 324 865 z "},"Ĭ":{"ha":354,"x_min":18,"x_max":336,"o":"m 213 0 l 140 0 l 144 269 l 140 888 l 214 888 l 210 274 l 213 0 m 336 1124 q 276 1039 318 1068 q 175 1010 233 1010 q 18 1124 53 1010 l 42 1151 l 54 1151 q 176 1064 81 1064 q 299 1151 271 1064 l 311 1151 l 336 1124 z "},"ĭ":{"ha":346,"x_min":17,"x_max":335,"o":"m 204 0 l 136 0 l 139 208 l 136 688 l 206 688 l 203 214 l 204 0 m 335 936 q 174 782 303 782 q 17 936 44 782 l 40 965 l 53 965 q 175 838 75 838 q 297 965 275 838 l 310 965 l 335 936 z "},"Į":{"ha":354,"x_min":47,"x_max":224,"o":"m 224 -219 q 133 -274 186 -274 q 71 -250 94 -274 q 47 -187 47 -226 q 69 -114 47 -156 q 140 0 90 -72 l 144 269 l 140 888 l 214 888 l 210 274 l 213 0 l 190 0 q 99 -178 99 -133 q 142 -221 99 -221 q 201 -175 178 -221 l 208 -175 l 224 -219 z "},"į":{"ha":346,"x_min":43,"x_max":219,"o":"m 219 -219 q 129 -274 182 -274 q 67 -250 90 -274 q 43 -187 43 -226 q 65 -114 43 -156 q 136 0 86 -72 l 138 208 l 136 688 l 204 688 l 201 214 l 204 0 l 186 0 q 94 -178 94 -133 q 138 -221 94 -221 q 197 -175 174 -221 l 204 -175 l 219 -219 z "},"İ":{"ha":354,"x_min":131,"x_max":224,"o":"m 178 1156 q 224 1110 224 1156 q 176 1061 224 1061 q 131 1107 131 1061 q 143 1142 131 1129 q 178 1156 156 1156 m 213 0 l 140 0 l 144 269 l 140 888 l 214 888 l 210 274 l 213 0 z "},"ı":{"ha":346,"x_min":136,"x_max":206,"o":"m 204 0 l 136 0 l 139 208 l 136 688 l 206 688 l 203 214 l 204 0 z "},"Ĳ":{"ha":757,"x_min":140,"x_max":618,"o":"m 213 0 l 140 0 l 144 269 l 140 888 l 214 888 l 210 274 l 213 0 m 617 161 q 569 -8 617 60 q 407 -139 522 -75 l 378 -99 l 378 -87 q 510 23 471 -32 q 549 160 549 78 l 549 286 l 546 826 l 372 826 l 364 833 l 369 888 l 618 888 l 615 294 l 617 161 z "},"ĳ":{"ha":729,"x_min":136,"x_max":590,"o":"m 204 0 l 136 0 l 139 208 l 136 688 l 206 688 l 203 214 l 204 0 m 589 228 l 589 126 q 555 -7 589 46 q 436 -108 521 -60 l 406 -72 l 406 -64 q 497 19 469 -25 q 525 125 525 63 l 525 219 l 522 633 l 388 632 l 381 639 l 388 688 l 590 688 l 589 228 z "},"Ĵ":{"ha":403,"x_min":4,"x_max":332,"o":"m 263 161 q 215 -8 263 60 q 53 -139 168 -75 l 24 -99 l 24 -87 q 156 23 117 -32 q 194 160 194 78 l 194 286 l 192 826 l 18 826 l 10 833 l 15 888 l 264 888 l 261 294 l 263 161 m 4 1057 q 154 1172 64 1097 l 181 1172 q 332 1057 282 1092 l 315 1022 l 306 1022 q 168 1117 201 1092 q 31 1022 135 1093 l 21 1022 l 4 1057 z "},"ĵ":{"ha":383,"x_min":-25,"x_max":315,"o":"m 243 228 l 243 126 q 209 -7 243 46 q 90 -108 175 -60 l 60 -72 l 60 -64 q 151 19 124 -25 q 179 125 179 63 l 179 219 l 176 633 l 42 632 l 35 639 l 42 688 l 244 688 l 243 228 m -25 810 q 131 990 46 885 l 160 990 q 315 810 249 879 l 293 778 l 283 778 q 144 931 206 858 q 7 778 75 847 l -3 778 l -25 810 z "},"Ķ":{"ha":733,"x_min":139,"x_max":728,"o":"m 211 0 l 139 0 l 143 269 l 139 888 l 213 888 l 208 274 l 211 0 m 319 472 q 728 15 518 224 l 726 6 q 661 -11 706 -3 l 651 -7 q 239 468 410 249 l 239 474 l 560 817 l 617 888 l 704 888 l 319 472 m 404 -85 q 458 -162 458 -115 q 350 -315 458 -236 l 324 -292 l 325 -285 q 397 -174 397 -229 q 357 -118 397 -142 l 357 -110 q 404 -85 383 -92 z "},"ķ":{"ha":658,"x_min":136,"x_max":632,"o":"m 204 0 l 136 0 l 138 208 l 136 688 l 204 688 l 201 214 l 204 0 m 301 365 q 632 15 447 192 l 631 6 q 567 -10 608 -4 l 557 -6 q 224 361 358 196 l 224 367 l 482 631 l 529 688 l 614 688 l 301 365 m 336 -85 q 390 -162 390 -115 q 282 -315 390 -236 l 256 -292 l 257 -285 q 329 -174 329 -229 q 289 -118 329 -142 l 289 -110 q 336 -85 315 -92 z "},"ĸ":{"ha":658,"x_min":136,"x_max":632,"o":"m 204 0 l 136 0 l 139 208 l 136 688 l 206 688 l 203 214 l 204 0 m 301 365 q 632 15 447 192 l 631 6 q 568 -10 610 -4 l 557 -6 q 224 361 369 185 l 224 367 l 482 631 l 529 688 l 614 688 l 301 365 z "},"Ĺ":{"ha":567,"x_min":138,"x_max":561,"o":"m 553 0 l 138 0 l 142 269 l 138 888 l 211 888 l 207 274 l 210 63 l 554 63 l 561 54 l 553 0 m 461 1138 l 458 1128 q 201 1004 340 1067 l 190 1008 l 175 1044 q 432 1182 326 1118 l 442 1179 l 461 1138 z "},"ĺ":{"ha":515,"x_min":135,"x_max":488,"o":"m 481 0 l 135 0 l 136 208 l 135 688 l 203 688 l 200 214 l 201 58 l 482 58 l 488 51 l 481 0 m 397 965 l 396 956 q 176 774 329 899 l 167 775 l 143 808 q 360 1004 250 896 l 368 1003 l 397 965 z "},"Ļ":{"ha":567,"x_min":138,"x_max":561,"o":"m 553 0 l 138 0 l 142 269 l 138 888 l 211 888 l 207 274 l 210 63 l 554 63 l 561 54 l 553 0 m 340 -85 q 394 -162 394 -115 q 286 -315 394 -236 l 260 -292 l 261 -285 q 333 -174 333 -229 q 293 -118 333 -142 l 293 -110 q 340 -85 319 -92 z "},"ļ":{"ha":515,"x_min":135,"x_max":486,"o":"m 481 0 l 135 0 l 136 208 l 135 688 l 203 688 l 200 214 l 201 58 l 482 58 l 486 51 l 481 0 m 281 -85 q 335 -162 335 -115 q 226 -315 335 -236 l 200 -292 l 201 -285 q 274 -174 274 -229 q 233 -118 274 -142 l 233 -110 q 281 -85 260 -92 z "},"Ľ":{"ha":579,"x_min":138,"x_max":561,"o":"m 553 0 l 138 0 l 142 269 l 138 888 l 211 888 l 207 274 l 210 63 l 554 63 l 561 54 l 553 0 m 440 581 l 451 803 l 506 807 l 511 799 l 486 579 l 447 574 l 440 581 z "},"ľ":{"ha":529,"x_min":135,"x_max":486,"o":"m 481 0 l 135 0 l 136 208 l 135 688 l 203 688 l 200 214 l 201 58 l 482 58 l 486 51 l 481 0 m 393 426 l 404 650 l 458 654 l 464 646 l 439 425 l 400 419 l 393 426 z "},"Ŀ":{"ha":567,"x_min":138,"x_max":561,"o":"m 553 0 l 138 0 l 142 269 l 138 888 l 211 888 l 207 274 l 210 63 l 554 63 l 561 54 l 553 0 m 450 565 q 496 519 496 565 q 449 471 496 471 q 403 517 403 471 q 415 552 403 539 q 450 565 428 565 z "},"ŀ":{"ha":529,"x_min":135,"x_max":486,"o":"m 481 0 l 135 0 l 136 208 l 135 688 l 203 688 l 200 214 l 201 58 l 482 58 l 486 51 l 481 0 m 372 339 q 326 385 326 339 q 339 420 326 407 q 374 433 351 433 q 419 388 419 433 q 372 339 419 339 z "},"Ł":{"ha":582,"x_min":22,"x_max":578,"o":"m 569 0 l 154 0 l 158 269 l 157 429 l 47 371 l 38 376 l 22 422 l 157 493 l 154 888 l 228 888 l 225 529 l 426 636 l 436 632 l 451 588 l 225 467 l 224 274 l 226 63 l 571 63 l 578 54 l 569 0 z "},"ł":{"ha":542,"x_min":39,"x_max":511,"o":"m 504 0 l 158 0 l 160 208 l 160 329 l 61 281 l 51 286 l 39 328 l 160 386 l 158 688 l 226 688 l 225 418 l 378 492 l 385 489 l 399 446 l 225 361 l 224 214 l 225 58 l 506 58 l 511 51 l 504 0 z "},"Ń":{"ha":940,"x_min":140,"x_max":800,"o":"m 796 0 l 722 0 l 215 767 l 207 767 l 206 285 l 208 0 l 140 0 l 144 264 l 142 888 l 217 888 l 724 121 l 731 121 l 732 883 l 800 889 l 796 253 l 796 0 m 649 1138 l 646 1128 q 389 1004 528 1067 l 378 1008 l 363 1044 q 619 1182 514 1118 l 629 1179 l 649 1138 z "},"ń":{"ha":822,"x_min":136,"x_max":686,"o":"m 683 0 l 611 0 l 206 574 l 200 574 l 199 222 l 200 0 l 136 0 l 139 203 l 138 688 l 210 688 l 615 113 l 622 113 l 622 685 l 686 689 l 683 199 l 683 0 m 576 965 l 575 956 q 356 774 508 899 l 346 775 l 322 808 q 539 1004 429 896 l 547 1003 l 576 965 z "},"Ņ":{"ha":940,"x_min":140,"x_max":801,"o":"m 797 0 l 722 0 l 215 767 l 207 767 l 206 285 l 208 0 l 140 0 l 144 264 l 142 888 l 217 888 l 724 121 l 732 121 l 732 883 l 801 889 l 796 253 l 797 0 m 478 -85 q 532 -162 532 -115 q 424 -315 532 -236 l 397 -292 l 399 -285 q 471 -174 471 -229 q 431 -118 471 -142 l 431 -110 q 478 -85 457 -92 z "},"ņ":{"ha":822,"x_min":136,"x_max":686,"o":"m 683 0 l 611 0 l 206 574 l 200 574 l 199 222 l 200 0 l 136 0 l 138 203 l 138 688 l 208 688 l 615 113 l 622 113 l 622 685 l 686 689 l 682 199 l 683 0 m 421 -85 q 475 -162 475 -115 q 367 -315 475 -236 l 340 -292 l 342 -285 q 414 -174 414 -229 q 374 -118 414 -142 l 374 -110 q 421 -85 400 -92 z "},"Ň":{"ha":940,"x_min":140,"x_max":800,"o":"m 796 0 l 722 0 l 215 767 l 207 767 l 206 285 l 208 0 l 140 0 l 144 264 l 142 888 l 217 888 l 724 121 l 731 121 l 732 883 l 800 889 l 796 253 l 796 0 m 631 1125 q 481 1010 571 1085 l 454 1010 q 303 1125 353 1090 l 319 1160 l 329 1160 q 467 1065 433 1090 q 604 1160 500 1089 l 614 1160 l 631 1125 z "},"ň":{"ha":822,"x_min":136,"x_max":686,"o":"m 683 0 l 611 0 l 206 574 l 200 574 l 199 222 l 200 0 l 136 0 l 139 203 l 138 688 l 210 688 l 615 113 l 622 113 l 622 685 l 686 689 l 683 199 l 683 0 m 579 958 q 424 778 508 883 l 394 778 q 239 958 306 889 l 261 990 l 271 990 q 410 838 349 910 q 547 990 479 921 l 557 990 l 579 958 z "},"Ŋ":{"ha":940,"x_min":140,"x_max":800,"o":"m 796 67 q 749 -90 796 -26 q 586 -212 701 -153 l 557 -172 l 557 -161 q 669 -81 631 -119 q 719 4 707 -43 l 215 767 l 207 767 l 206 285 l 208 0 l 140 0 l 144 264 l 142 888 l 217 888 l 724 122 l 731 122 l 732 883 l 800 889 l 796 253 l 796 67 z "},"ŋ":{"ha":822,"x_min":136,"x_max":686,"o":"m 683 50 q 653 -73 683 -24 q 551 -167 624 -122 l 525 -136 l 525 -126 q 615 1 604 -69 l 206 574 l 199 574 l 199 222 l 200 0 l 136 0 l 140 203 l 138 688 l 210 688 l 615 118 l 624 118 l 622 685 l 686 689 l 682 199 l 683 50 z "},"Ō":{"ha":876,"x_min":60,"x_max":818,"o":"m 447 896 q 722 783 626 896 q 818 460 818 669 q 717 113 818 235 q 429 -8 615 -8 q 156 108 251 -8 q 60 439 60 224 q 160 777 60 658 q 447 896 261 896 m 442 833 q 210 735 289 833 q 132 446 132 636 q 208 153 132 253 q 433 53 285 53 q 665 154 585 53 q 744 450 744 256 q 667 736 744 639 q 442 833 590 833 m 638 1067 l 242 1067 l 236 1074 l 240 1118 l 636 1118 l 642 1113 l 638 1067 z "},"ō":{"ha":771,"x_min":71,"x_max":700,"o":"m 394 694 q 621 606 542 694 q 700 357 700 518 q 616 88 700 182 q 378 -7 532 -7 q 151 83 231 -7 q 71 339 71 174 q 155 602 71 510 q 394 694 239 694 m 389 635 q 142 347 142 635 q 381 51 142 51 q 631 346 631 51 q 389 635 631 635 m 586 865 l 190 865 l 185 872 l 189 917 l 585 917 l 590 911 l 586 865 z "},"Ŏ":{"ha":876,"x_min":60,"x_max":818,"o":"m 447 896 q 722 783 626 896 q 818 460 818 669 q 717 113 818 235 q 429 -8 615 -8 q 156 108 251 -8 q 60 439 60 224 q 160 777 60 658 q 447 896 261 896 m 442 833 q 210 735 289 833 q 132 446 132 636 q 208 153 132 253 q 433 53 285 53 q 665 154 585 53 q 744 450 744 256 q 667 736 744 639 q 442 833 590 833 m 599 1124 q 538 1039 581 1068 q 438 1010 496 1010 q 281 1124 315 1010 l 304 1151 l 317 1151 q 439 1064 343 1064 q 561 1151 533 1064 l 574 1151 l 599 1124 z "},"ŏ":{"ha":771,"x_min":71,"x_max":700,"o":"m 394 694 q 621 606 542 694 q 700 357 700 518 q 616 88 700 182 q 378 -7 532 -7 q 151 83 231 -7 q 71 339 71 174 q 155 602 71 510 q 394 694 239 694 m 389 635 q 142 347 142 635 q 381 51 142 51 q 631 346 631 51 q 389 635 631 635 m 547 936 q 386 782 515 782 q 229 936 257 782 l 253 965 l 265 965 q 388 838 288 838 q 510 965 488 838 l 522 965 l 547 936 z "},"Ő":{"ha":876,"x_min":60,"x_max":818,"o":"m 447 896 q 722 783 626 896 q 818 460 818 669 q 717 113 818 235 q 429 -8 615 -8 q 156 108 251 -8 q 60 439 60 224 q 160 777 60 658 q 447 896 261 896 m 442 833 q 210 735 289 833 q 132 446 132 636 q 208 153 132 253 q 433 53 285 53 q 665 154 585 53 q 744 450 744 256 q 667 736 744 639 q 442 833 590 833 m 282 1026 q 436 1185 386 1131 l 446 1185 l 479 1160 l 478 1150 q 318 1000 428 1100 l 308 1000 l 282 1026 m 472 1026 q 626 1185 576 1131 l 635 1185 l 669 1160 l 668 1150 q 508 1000 618 1100 l 499 1000 l 472 1026 z "},"ő":{"ha":771,"x_min":71,"x_max":700,"o":"m 394 694 q 621 606 542 694 q 700 357 700 518 q 616 88 700 182 q 378 -7 532 -7 q 151 83 231 -7 q 71 339 71 174 q 155 602 71 510 q 394 694 239 694 m 389 635 q 142 347 142 635 q 381 51 142 51 q 631 346 631 51 q 389 635 631 635 m 228 800 q 422 1003 329 899 l 431 1003 l 464 976 l 464 967 q 264 774 372 874 l 254 774 l 228 800 m 417 800 q 611 1003 518 899 l 621 1003 l 654 976 l 653 967 q 453 774 561 874 l 443 774 l 417 800 z "},"Œ":{"ha":1171,"x_min":60,"x_max":1135,"o":"m 496 904 q 610 896 538 904 q 719 888 682 888 l 1125 888 l 1131 879 l 1124 822 l 931 825 l 731 825 l 731 489 l 893 488 l 1053 489 l 1058 482 l 1051 425 l 729 426 l 729 63 l 914 61 l 1128 65 l 1135 57 l 1126 0 l 719 0 q 596 -8 676 0 q 478 -17 515 -17 q 169 103 278 -17 q 60 440 60 224 q 174 782 60 660 q 496 904 288 904 m 490 842 q 224 739 317 842 q 132 442 132 636 q 222 148 132 250 q 486 46 311 46 q 626 60 568 46 q 655 74 647 65 q 663 101 663 82 l 658 776 q 654 813 658 803 q 639 825 650 822 q 577 836 622 831 q 490 842 532 842 z "},"œ":{"ha":1013,"x_min":71,"x_max":961,"o":"m 432 700 q 526 693 475 700 q 618 688 588 688 l 956 688 l 960 679 l 954 626 l 792 631 l 631 631 l 631 383 l 763 382 l 894 385 l 900 376 l 893 322 l 758 325 l 629 324 l 629 57 l 779 57 l 957 60 l 961 53 l 954 0 l 618 0 q 515 -7 574 0 q 415 -12 449 -12 q 161 80 251 -12 q 71 339 71 172 q 165 605 71 510 q 432 700 260 700 m 426 639 q 214 564 286 639 q 142 343 142 489 q 424 46 142 46 q 536 58 496 46 q 559 69 553 63 q 565 92 565 76 l 561 586 q 547 625 561 622 q 426 639 488 639 z "},"Ŕ":{"ha":747,"x_min":140,"x_max":686,"o":"m 446 364 q 686 17 550 196 l 686 7 q 624 -11 664 -4 l 613 -6 q 385 347 478 188 l 210 347 l 210 274 l 213 0 l 140 0 l 144 269 l 140 888 l 376 889 q 571 825 503 889 q 639 640 639 761 q 589 472 639 543 q 446 364 539 400 m 392 408 q 565 636 565 456 q 368 828 565 821 l 214 825 l 211 411 l 392 408 m 542 1167 l 540 1157 q 321 975 474 1100 l 311 976 l 288 1010 q 504 1206 394 1097 l 513 1204 l 542 1167 z "},"ŕ":{"ha":669,"x_min":136,"x_max":599,"o":"m 403 281 q 599 17 490 149 l 599 7 q 538 -8 572 -4 l 525 -1 q 344 265 422 138 l 203 264 l 203 214 l 204 0 l 136 0 l 139 208 l 136 688 l 339 689 q 501 638 444 689 q 558 494 558 588 q 518 365 558 421 q 403 281 478 310 m 347 319 q 488 489 488 356 q 328 633 488 625 l 206 631 l 203 322 l 347 319 m 478 965 l 476 956 q 257 774 410 899 l 247 775 l 224 808 q 440 1004 331 896 l 449 1003 l 478 965 z "},"Ŗ":{"ha":747,"x_min":140,"x_max":688,"o":"m 447 364 q 688 17 554 192 l 686 7 q 624 -11 665 -3 l 613 -6 q 385 347 478 188 l 210 347 l 210 274 l 213 0 l 140 0 l 144 269 l 140 888 l 376 889 q 571 825 503 889 q 639 640 639 761 q 589 472 639 543 q 447 364 539 400 m 392 408 q 565 636 565 456 q 367 828 565 821 l 214 825 l 211 411 l 392 408 m 388 -85 q 442 -162 442 -115 q 333 -315 442 -236 l 307 -292 l 308 -285 q 381 -174 381 -229 q 340 -118 381 -142 l 340 -110 q 388 -85 367 -92 z "},"ŗ":{"ha":669,"x_min":136,"x_max":599,"o":"m 403 281 q 599 17 497 140 l 597 7 q 538 -8 572 -4 l 524 -1 q 344 265 417 146 l 201 264 l 201 214 l 204 0 l 136 0 l 138 208 l 136 688 l 339 689 q 501 638 444 689 q 558 494 558 588 q 517 366 558 422 q 403 281 476 310 m 347 319 q 486 489 486 356 q 328 633 486 625 l 204 631 l 201 322 l 347 319 m 324 -85 q 378 -162 378 -115 q 269 -315 378 -236 l 243 -292 l 244 -285 q 317 -174 317 -229 q 276 -118 317 -142 l 276 -110 q 324 -85 303 -92 z "},"Ř":{"ha":747,"x_min":140,"x_max":686,"o":"m 446 364 q 686 17 550 196 l 686 7 q 624 -11 664 -4 l 613 -6 q 385 347 478 188 l 210 347 l 210 274 l 213 0 l 140 0 l 144 269 l 140 888 l 376 889 q 571 825 503 889 q 639 640 639 761 q 589 472 639 543 q 446 364 539 400 m 392 408 q 565 636 565 456 q 368 828 565 821 l 214 825 l 211 411 l 392 408 m 544 1160 q 389 979 474 1085 l 360 979 q 204 1160 271 1090 l 226 1192 l 236 1192 q 375 1039 314 1111 q 513 1192 444 1122 l 522 1192 l 544 1160 z "},"ř":{"ha":669,"x_min":136,"x_max":599,"o":"m 403 281 q 599 17 490 149 l 599 7 q 538 -8 572 -4 l 525 -1 q 344 265 422 138 l 203 264 l 203 214 l 204 0 l 136 0 l 139 208 l 136 688 l 339 689 q 501 638 444 689 q 558 494 558 588 q 518 365 558 421 q 403 281 478 310 m 347 319 q 488 489 488 356 q 328 633 488 625 l 206 631 l 203 322 l 347 319 m 481 958 q 325 778 410 883 l 296 778 q 140 958 207 889 l 163 990 l 172 990 q 311 838 250 910 q 449 990 381 921 l 458 990 l 481 958 z "},"Ś":{"ha":638,"x_min":65,"x_max":571,"o":"m 357 893 q 542 851 449 893 l 529 785 l 515 781 q 349 832 435 832 q 247 808 290 832 q 180 744 203 783 q 157 665 157 706 q 182 590 157 622 q 244 535 207 558 q 343 483 281 513 q 462 419 417 447 q 539 345 507 390 q 571 236 571 300 q 535 115 571 171 q 435 26 500 58 q 290 -7 371 -7 q 65 56 165 -7 l 74 129 l 83 133 q 186 73 129 93 q 296 53 243 53 q 403 78 357 53 q 474 143 449 103 q 499 228 499 183 q 473 308 499 274 q 410 364 447 342 q 308 418 374 386 q 192 481 236 453 q 117 553 147 508 q 86 660 86 597 q 120 777 86 724 q 216 862 154 831 q 357 893 278 893 m 503 1167 l 501 1157 q 282 975 435 1100 l 272 976 l 249 1010 q 465 1206 356 1097 l 474 1204 l 503 1167 z "},"ś":{"ha":576,"x_min":76,"x_max":497,"o":"m 319 692 q 475 660 400 692 l 464 593 l 451 590 q 313 638 382 638 q 202 599 243 638 q 161 514 161 561 q 198 440 161 468 q 310 381 235 413 q 408 330 372 351 q 471 273 444 308 q 497 186 497 238 q 469 91 497 135 q 388 21 440 47 q 265 -6 335 -6 q 76 42 163 -6 l 83 113 l 93 117 q 178 66 129 83 q 272 49 228 49 q 385 87 342 49 q 429 176 429 125 q 392 253 429 225 q 278 318 356 282 q 181 367 218 346 q 119 424 144 389 q 93 508 93 458 q 122 601 93 560 q 201 667 150 643 q 319 692 253 692 m 453 965 l 451 956 q 232 774 385 899 l 222 775 l 199 808 q 415 1004 306 896 l 424 1003 l 453 965 z "},"Ŝ":{"ha":638,"x_min":65,"x_max":571,"o":"m 165 1011 q 321 1192 236 1086 l 350 1192 q 506 1011 439 1081 l 483 979 l 474 979 q 335 1132 396 1060 q 197 979 265 1049 l 188 979 l 165 1011 m 357 893 q 542 851 451 893 l 531 785 l 515 781 q 349 832 435 832 q 247 808 290 832 q 180 744 203 783 q 157 665 157 706 q 182 590 157 622 q 244 535 207 558 q 343 483 281 513 q 462 419 417 447 q 539 345 507 390 q 571 236 571 300 q 535 115 571 171 q 436 26 500 58 q 292 -7 372 -7 q 65 56 165 -7 l 74 129 l 85 133 q 187 73 131 93 q 296 53 243 53 q 403 78 357 53 q 475 143 450 103 q 500 228 500 183 q 474 308 500 274 q 412 364 449 342 q 310 418 375 386 q 193 481 238 453 q 117 553 149 508 q 86 660 86 597 q 120 777 86 724 q 216 862 154 831 q 357 893 278 893 z "},"ŝ":{"ha":576,"x_min":76,"x_max":497,"o":"m 115 810 q 271 990 186 885 l 300 990 q 456 810 389 879 l 433 778 l 424 778 q 285 931 346 858 q 147 778 215 847 l 138 778 l 115 810 m 319 692 q 476 660 401 692 l 464 593 l 451 590 q 313 638 382 638 q 202 599 243 638 q 161 514 161 561 q 198 440 161 468 q 310 381 235 413 q 408 330 372 351 q 471 273 444 308 q 497 186 497 238 q 469 91 497 135 q 388 21 440 47 q 265 -6 335 -6 q 76 42 163 -6 l 83 113 l 94 117 q 180 66 132 83 q 272 49 228 49 q 386 87 342 49 q 431 176 431 125 q 393 253 431 225 q 278 318 356 282 q 181 367 218 346 q 119 424 144 389 q 93 508 93 458 q 122 601 93 560 q 201 667 150 643 q 319 692 253 692 z "},"Ş":{"ha":638,"x_min":65,"x_max":571,"o":"m 571 236 q 506 78 571 146 q 336 -4 440 10 l 315 -74 l 360 -101 q 410 -175 410 -131 q 381 -235 410 -212 q 311 -258 353 -258 q 219 -214 256 -258 l 229 -174 l 235 -172 q 308 -215 271 -215 q 344 -204 331 -215 q 358 -174 358 -193 q 326 -133 358 -151 l 263 -94 l 289 -7 q 65 56 164 -7 l 74 129 l 85 133 q 187 73 131 93 q 296 53 243 53 q 403 78 357 53 q 475 143 450 103 q 500 228 500 183 q 474 308 500 274 q 412 364 449 342 q 310 418 375 386 q 193 481 238 453 q 117 553 149 508 q 86 660 86 597 q 120 777 86 724 q 216 862 154 831 q 357 893 278 893 q 542 851 451 893 l 531 785 l 515 781 q 349 832 435 832 q 247 808 290 832 q 180 744 203 783 q 157 665 157 706 q 182 590 157 622 q 244 535 207 558 q 343 483 281 513 q 462 419 417 447 q 539 345 507 390 q 571 236 571 300 z "},"ş":{"ha":576,"x_min":76,"x_max":497,"o":"m 497 186 q 442 58 497 113 q 294 -4 388 4 l 274 -74 l 318 -101 q 368 -175 368 -131 q 340 -235 368 -212 q 269 -258 311 -258 q 178 -214 214 -258 l 188 -174 l 193 -172 q 267 -215 229 -215 q 303 -204 289 -215 q 317 -174 317 -193 q 285 -133 317 -151 l 221 -94 l 247 -6 q 76 42 153 -1 l 83 113 l 94 117 q 180 66 132 83 q 272 49 228 49 q 386 87 342 49 q 431 176 431 125 q 393 253 431 225 q 278 318 356 282 q 181 367 218 346 q 119 424 144 389 q 93 508 93 458 q 122 601 93 560 q 201 667 150 643 q 319 692 253 692 q 476 660 401 692 l 464 593 l 451 590 q 313 638 382 638 q 202 599 243 638 q 161 514 161 561 q 198 440 161 468 q 310 381 235 413 q 408 330 372 351 q 471 273 444 308 q 497 186 497 238 z "},"Š":{"ha":638,"x_min":65,"x_max":571,"o":"m 357 893 q 542 851 449 893 l 529 785 l 515 781 q 349 832 435 832 q 247 808 290 832 q 180 744 203 783 q 157 665 157 706 q 182 590 157 622 q 244 535 207 558 q 343 483 281 513 q 462 419 417 447 q 539 345 507 390 q 571 236 571 300 q 535 115 571 171 q 435 26 500 58 q 290 -7 371 -7 q 65 56 165 -7 l 74 129 l 83 133 q 186 73 129 93 q 296 53 243 53 q 403 78 357 53 q 474 143 449 103 q 499 228 499 183 q 473 308 499 274 q 410 364 447 342 q 308 418 374 386 q 192 481 236 453 q 117 553 147 508 q 86 660 86 597 q 120 777 86 724 q 216 862 154 831 q 357 893 278 893 m 504 1160 q 349 979 433 1085 l 319 979 q 164 1160 231 1090 l 186 1192 l 196 1192 q 335 1039 274 1111 q 472 1192 404 1122 l 482 1192 l 504 1160 z "},"š":{"ha":576,"x_min":76,"x_max":497,"o":"m 319 692 q 475 660 400 692 l 464 593 l 451 590 q 313 638 382 638 q 202 599 243 638 q 161 514 161 561 q 198 440 161 468 q 310 381 235 413 q 408 330 372 351 q 471 273 444 308 q 497 186 497 238 q 469 91 497 135 q 388 21 440 47 q 265 -6 335 -6 q 76 42 163 -6 l 83 113 l 93 117 q 178 66 129 83 q 272 49 228 49 q 385 87 342 49 q 429 176 429 125 q 392 253 429 225 q 278 318 356 282 q 181 367 218 346 q 119 424 144 389 q 93 508 93 458 q 122 601 93 560 q 201 667 150 643 q 319 692 253 692 m 454 958 q 299 778 383 883 l 269 778 q 114 958 181 889 l 136 990 l 146 990 q 285 838 224 910 q 422 990 354 921 l 432 990 l 454 958 z "},"Ţ":{"ha":671,"x_min":35,"x_max":638,"o":"m 631 824 l 482 828 l 374 828 l 369 274 l 372 0 l 356 0 l 333 -74 l 378 -101 q 428 -175 428 -131 q 399 -235 428 -212 q 329 -258 371 -258 q 238 -214 274 -258 l 247 -174 l 253 -172 q 326 -215 289 -215 q 363 -204 349 -215 q 376 -174 376 -193 q 344 -133 376 -151 l 281 -94 l 308 0 l 300 0 l 304 269 l 300 828 l 193 828 l 40 824 l 35 832 l 42 888 l 632 888 l 638 879 l 631 824 z "},"ţ":{"ha":601,"x_min":50,"x_max":550,"o":"m 544 624 l 421 629 l 335 629 l 332 214 l 335 0 l 322 0 l 301 -75 l 346 -101 q 394 -175 394 -133 q 367 -235 394 -212 q 299 -257 340 -257 q 208 -212 244 -257 l 218 -174 l 224 -174 q 296 -217 257 -217 q 332 -205 318 -217 q 346 -174 346 -193 q 315 -132 346 -153 l 251 -93 l 278 0 l 267 0 l 268 208 l 267 629 l 182 629 l 56 624 l 50 631 l 56 688 l 546 688 l 550 679 l 544 624 z "},"Ť":{"ha":671,"x_min":35,"x_max":638,"o":"m 631 824 l 482 828 l 374 828 l 369 274 l 372 0 l 300 0 l 304 269 l 300 828 l 192 828 l 40 824 l 35 832 l 42 888 l 631 888 l 638 879 l 631 824 m 511 1160 q 356 979 440 1085 l 326 979 q 171 1160 238 1090 l 193 1192 l 203 1192 q 342 1039 281 1111 q 479 1192 411 1122 l 489 1192 l 511 1160 z "},"ť":{"ha":601,"x_min":51,"x_max":551,"o":"m 546 624 l 422 629 l 336 629 l 333 214 l 336 0 l 268 0 l 269 208 l 268 629 l 183 629 l 57 624 l 51 631 l 57 688 l 547 688 l 551 679 l 546 624 m 465 958 q 310 778 394 883 l 281 778 q 125 958 192 889 l 147 990 l 157 990 q 296 838 235 910 q 433 990 365 921 l 443 990 l 465 958 z "},"Ŧ":{"ha":671,"x_min":35,"x_max":638,"o":"m 371 483 l 515 483 l 522 476 l 518 433 l 371 433 l 369 274 l 372 0 l 300 0 l 304 269 l 303 433 l 168 433 l 163 439 l 167 483 l 303 483 l 300 828 l 193 828 l 40 824 l 35 832 l 42 888 l 632 888 l 638 879 l 631 824 l 482 828 l 374 828 l 371 483 z "},"ŧ":{"ha":601,"x_min":51,"x_max":551,"o":"m 335 358 l 469 358 l 476 351 l 472 308 l 333 308 l 333 214 l 336 0 l 268 0 l 269 208 l 269 308 l 136 308 l 131 314 l 135 358 l 269 358 l 268 629 l 183 629 l 57 624 l 51 631 l 57 688 l 547 688 l 551 679 l 546 624 l 424 629 l 336 629 l 335 358 z "},"Ũ":{"ha":860,"x_min":113,"x_max":751,"o":"m 750 328 q 668 81 753 168 q 426 -7 583 -7 q 192 78 274 -7 q 113 322 111 163 l 113 888 l 183 888 l 181 329 q 243 126 179 196 q 431 57 307 57 q 619 125 554 57 q 682 322 683 193 l 679 888 l 751 888 l 750 435 l 750 328 m 642 1125 l 563 1043 l 551 1039 q 440 1067 522 1042 q 335 1092 351 1092 q 290 1060 322 1092 l 260 1031 l 251 1031 l 228 1056 l 228 1064 l 307 1146 l 318 1149 q 435 1121 350 1146 q 533 1097 514 1097 q 583 1132 549 1097 q 610 1158 583 1132 l 617 1158 l 642 1133 l 642 1125 z "},"ũ":{"ha":757,"x_min":114,"x_max":647,"o":"m 644 243 q 576 60 647 125 q 376 -6 506 -6 q 181 59 249 -6 q 114 243 113 124 l 115 344 l 114 688 l 183 688 l 179 251 q 229 103 178 154 q 379 53 281 53 q 529 103 478 53 q 581 251 581 154 l 578 688 l 647 688 l 644 336 l 644 243 m 589 924 l 510 842 l 499 838 q 388 865 469 840 q 282 890 299 890 q 238 858 269 890 l 207 829 l 199 829 l 175 854 l 175 863 l 254 944 l 265 947 q 382 919 297 944 q 481 896 461 896 q 531 931 496 896 q 557 957 531 931 l 564 957 l 589 932 l 589 924 z "},"Ū":{"ha":860,"x_min":113,"x_max":751,"o":"m 750 328 q 668 81 753 168 q 426 -7 583 -7 q 192 78 274 -7 q 113 322 111 163 l 113 888 l 183 888 l 181 329 q 243 126 179 196 q 431 57 307 57 q 619 125 554 57 q 682 322 683 193 l 679 888 l 751 888 l 750 435 l 750 328 m 633 1067 l 238 1067 l 232 1074 l 236 1118 l 632 1118 l 638 1113 l 633 1067 z "},"ū":{"ha":757,"x_min":114,"x_max":647,"o":"m 644 243 q 576 60 647 125 q 376 -6 506 -6 q 181 59 249 -6 q 114 243 113 124 l 115 344 l 114 688 l 183 688 l 179 251 q 229 103 178 154 q 379 53 281 53 q 529 103 478 53 q 581 251 581 154 l 578 688 l 647 688 l 644 336 l 644 243 m 581 865 l 185 865 l 179 872 l 183 917 l 579 917 l 585 911 l 581 865 z "},"Ŭ":{"ha":860,"x_min":113,"x_max":751,"o":"m 750 328 q 668 81 753 168 q 426 -7 583 -7 q 192 78 274 -7 q 113 322 111 163 l 113 888 l 183 888 l 181 329 q 243 126 179 196 q 431 57 307 57 q 619 125 554 57 q 682 322 683 193 l 679 888 l 751 888 l 750 435 l 750 328 m 594 1138 q 433 983 563 983 q 276 1138 304 983 l 300 1167 l 313 1167 q 435 1039 335 1039 q 557 1167 535 1039 l 569 1167 l 594 1138 z "},"ŭ":{"ha":757,"x_min":114,"x_max":647,"o":"m 644 243 q 576 60 647 125 q 376 -6 506 -6 q 181 59 249 -6 q 114 243 113 124 l 115 344 l 114 688 l 183 688 l 179 251 q 229 103 178 154 q 379 53 281 53 q 529 103 478 53 q 581 251 581 154 l 578 688 l 647 688 l 644 336 l 644 243 m 543 936 q 382 782 511 782 q 225 936 253 782 l 249 965 l 261 965 q 383 838 283 838 q 506 965 483 838 l 518 965 l 543 936 z "},"Ů":{"ha":860,"x_min":113,"x_max":751,"o":"m 750 328 q 668 81 753 168 q 426 -7 583 -7 q 192 78 274 -7 q 113 322 111 163 l 113 888 l 183 888 l 181 329 q 243 126 179 196 q 431 57 307 57 q 619 125 554 57 q 682 322 683 193 l 679 888 l 751 888 l 750 435 l 750 328 m 433 1204 q 512 1174 483 1204 q 540 1100 540 1144 q 508 1021 540 1050 q 432 992 476 992 q 356 1020 386 992 q 325 1099 325 1049 q 354 1175 325 1146 q 433 1204 383 1204 m 432 1163 q 384 1146 401 1163 q 367 1100 367 1129 q 385 1051 367 1068 q 432 1033 403 1033 q 481 1050 461 1033 q 500 1097 500 1067 q 483 1144 500 1126 q 432 1163 465 1163 z "},"ů":{"ha":757,"x_min":114,"x_max":647,"o":"m 644 243 q 576 60 647 125 q 376 -6 506 -6 q 181 59 249 -6 q 114 243 113 124 l 115 344 l 114 688 l 183 688 l 179 251 q 229 103 178 154 q 379 53 281 53 q 529 103 478 53 q 581 251 581 154 l 578 688 l 647 688 l 644 336 l 644 243 m 381 1003 q 459 973 431 1003 q 488 899 488 943 q 456 819 488 849 q 379 790 424 790 q 303 819 333 790 q 272 897 272 847 q 301 974 272 944 q 381 1003 331 1003 m 379 961 q 331 944 349 961 q 314 899 314 928 q 332 849 314 867 q 379 832 350 832 q 428 849 408 832 q 447 896 447 865 q 430 943 447 925 q 379 961 413 961 z "},"Ű":{"ha":860,"x_min":113,"x_max":751,"o":"m 750 328 q 668 81 753 168 q 426 -7 583 -7 q 192 78 274 -7 q 113 322 111 163 l 113 888 l 183 888 l 181 329 q 243 126 179 196 q 431 57 307 57 q 619 125 554 57 q 682 322 683 193 l 679 888 l 751 888 l 750 435 l 750 328 m 276 1026 q 431 1185 381 1131 l 440 1185 l 474 1160 l 472 1150 q 313 1000 422 1100 l 303 1000 l 276 1026 m 467 1026 q 621 1185 571 1131 l 629 1185 l 664 1160 l 663 1150 q 503 1000 613 1100 l 493 1000 l 467 1026 z "},"ű":{"ha":757,"x_min":114,"x_max":649,"o":"m 644 243 q 576 60 647 125 q 376 -6 506 -6 q 181 59 249 -6 q 114 243 113 124 l 115 344 l 114 688 l 183 688 l 179 251 q 229 103 178 154 q 379 53 281 53 q 529 103 478 53 q 581 251 581 154 l 578 688 l 647 688 l 644 336 l 644 243 m 222 800 q 417 1003 324 899 l 425 1003 l 458 976 l 458 967 q 258 774 367 874 l 249 774 l 222 800 m 411 800 q 606 1003 513 899 l 615 1003 l 649 976 l 647 967 q 447 774 556 874 l 438 774 l 411 800 z "},"Ų":{"ha":860,"x_min":111,"x_max":751,"o":"m 749 328 q 622 44 753 128 l 533 -94 q 507 -167 507 -135 q 522 -207 507 -192 q 564 -222 538 -222 q 671 -158 619 -222 l 675 -158 l 692 -197 q 557 -274 624 -274 q 484 -246 511 -274 q 457 -172 457 -218 q 486 -85 457 -129 l 550 10 q 426 -7 494 -7 q 191 78 272 -7 q 111 322 110 163 l 113 447 l 111 888 l 183 888 l 181 329 q 243 126 179 196 q 431 57 307 57 q 618 124 554 57 q 682 322 682 192 l 679 888 l 751 888 l 750 435 l 749 328 z "},"ų":{"ha":757,"x_min":114,"x_max":647,"o":"m 447 -96 q 421 -168 421 -136 q 436 -208 421 -193 q 478 -224 451 -224 q 585 -160 533 -224 l 589 -160 l 606 -199 q 471 -275 538 -275 q 398 -247 425 -275 q 371 -174 371 -219 q 400 -86 371 -129 l 458 1 q 378 -6 417 -6 q 181 59 249 -6 q 114 243 113 124 l 115 344 l 115 688 l 183 688 l 179 251 q 229 103 178 154 q 379 53 281 53 q 529 103 478 53 q 581 251 581 154 l 578 688 l 647 688 l 644 336 l 644 243 q 524 24 649 83 l 447 -96 z "},"Ŵ":{"ha":1235,"x_min":31,"x_max":1219,"o":"m 443 1057 q 593 1172 503 1097 l 619 1172 q 771 1057 721 1092 l 754 1022 l 744 1022 q 607 1117 640 1092 q 469 1022 574 1093 l 460 1022 l 443 1057 m 814 0 l 619 560 l 613 560 l 404 0 l 331 0 l 31 888 l 104 888 l 121 814 l 368 88 l 375 88 l 588 660 l 508 888 l 583 888 l 603 808 l 850 88 l 858 88 l 1129 811 l 1149 888 l 1219 888 l 888 0 l 814 0 z "},"ŵ":{"ha":1064,"x_min":49,"x_max":1031,"o":"m 332 810 q 488 990 403 885 l 517 990 q 672 810 606 879 l 650 778 l 640 778 q 501 931 563 858 q 364 778 432 847 l 354 778 l 332 810 m 689 0 l 535 417 l 528 417 l 363 0 l 290 0 l 49 688 l 119 688 l 132 625 l 328 81 l 335 81 l 504 513 l 442 688 l 514 688 l 529 619 l 724 81 l 732 81 l 946 622 l 963 688 l 1031 688 l 761 0 l 689 0 z "},"Ŷ":{"ha":711,"x_min":28,"x_max":683,"o":"m 183 1057 q 333 1172 243 1097 l 360 1172 q 511 1057 461 1092 l 494 1022 l 485 1022 q 347 1117 381 1092 q 210 1022 314 1093 l 200 1022 l 183 1057 m 379 0 l 307 0 l 311 265 l 310 328 l 28 888 l 108 888 l 125 844 l 340 414 l 350 414 l 586 843 l 603 888 l 683 888 l 378 326 l 376 265 l 379 0 z "},"ŷ":{"ha":640,"x_min":44,"x_max":593,"o":"m 156 810 q 311 990 226 885 l 340 990 q 496 810 429 879 l 474 778 l 464 778 q 325 931 386 858 q 188 778 256 847 l 178 778 l 156 810 m 343 0 l 275 0 l 276 203 l 276 249 l 44 688 l 119 688 l 133 653 l 307 329 l 314 329 l 503 650 l 519 688 l 593 688 l 342 250 l 340 203 l 343 0 z "},"Ÿ":{"ha":711,"x_min":28,"x_max":683,"o":"m 242 1044 q 197 1089 197 1044 q 210 1124 197 1111 q 244 1136 222 1136 q 289 1092 289 1136 q 276 1057 289 1069 q 242 1044 264 1044 m 449 1044 q 404 1089 404 1044 q 417 1124 404 1111 q 451 1136 429 1136 q 496 1092 496 1136 q 483 1057 496 1069 q 449 1044 471 1044 m 379 0 l 307 0 l 311 265 l 310 328 l 28 888 l 108 888 l 125 844 l 340 414 l 350 414 l 586 843 l 603 888 l 683 888 l 378 326 l 376 265 l 379 0 z "},"Ź":{"ha":719,"x_min":44,"x_max":664,"o":"m 132 61 l 543 61 l 658 67 l 664 60 l 657 -1 l 524 0 l 110 0 l 44 -3 l 44 53 l 571 826 l 179 826 l 71 819 l 65 828 l 72 889 l 196 888 l 597 888 l 658 889 l 658 833 l 132 61 m 551 1138 l 549 1128 q 292 1004 431 1067 l 281 1008 l 265 1044 q 522 1182 417 1118 l 532 1179 l 551 1138 z "},"ź":{"ha":643,"x_min":60,"x_max":575,"o":"m 143 56 l 471 56 l 569 63 l 575 57 l 568 -1 l 451 0 l 117 0 l 60 -1 l 60 49 l 486 631 l 168 631 l 79 624 l 75 631 l 82 689 l 183 688 l 518 688 l 569 689 l 569 636 l 143 56 m 471 965 l 469 956 q 250 774 403 899 l 240 775 l 217 808 q 433 1004 324 896 l 442 1003 l 471 965 z "},"Ż":{"ha":719,"x_min":44,"x_max":664,"o":"m 369 1156 q 415 1110 415 1156 q 368 1061 415 1061 q 322 1107 322 1061 q 335 1142 322 1129 q 369 1156 347 1156 m 133 61 l 544 61 l 658 67 l 664 60 l 657 -1 l 524 0 l 110 0 l 44 -3 l 44 53 l 571 826 l 181 826 l 72 819 l 65 828 l 72 889 l 196 888 l 599 888 l 658 889 l 658 833 l 133 61 z "},"ż":{"ha":643,"x_min":60,"x_max":575,"o":"m 303 954 q 349 908 349 954 q 301 860 349 860 q 256 906 256 860 q 268 941 256 928 q 303 954 281 954 m 143 56 l 471 56 l 569 63 l 575 57 l 568 -1 l 453 0 l 117 0 l 60 -1 l 60 49 l 488 631 l 169 631 l 81 624 l 75 631 l 82 689 l 185 688 l 518 688 l 569 689 l 569 636 l 143 56 z "},"Ž":{"ha":719,"x_min":44,"x_max":664,"o":"m 132 61 l 543 61 l 658 67 l 664 60 l 657 -1 l 524 0 l 110 0 l 44 -3 l 44 53 l 571 826 l 179 826 l 71 819 l 65 828 l 72 889 l 196 888 l 597 888 l 658 889 l 658 833 l 132 61 m 533 1125 q 383 1010 474 1085 l 357 1010 q 206 1125 256 1090 l 222 1160 l 232 1160 q 369 1065 336 1090 q 507 1160 403 1089 l 517 1160 l 533 1125 z "},"ž":{"ha":643,"x_min":60,"x_max":575,"o":"m 143 56 l 471 56 l 569 63 l 575 57 l 568 -1 l 451 0 l 117 0 l 60 -1 l 60 49 l 486 631 l 168 631 l 79 624 l 75 631 l 82 689 l 183 688 l 518 688 l 569 689 l 569 636 l 143 56 m 472 958 q 317 778 401 883 l 288 778 q 132 958 199 889 l 154 990 l 164 990 q 303 838 242 910 q 440 990 372 921 l 450 990 l 472 958 z "},"ƒ":{"ha":357,"x_min":-18,"x_max":489,"o":"m 396 851 q 489 840 431 851 l 476 790 l 471 786 q 390 801 435 801 q 242 658 263 801 l 224 514 l 379 514 l 383 507 l 379 468 l 218 468 l 190 257 l 165 61 q 124 -86 156 -31 q 13 -207 92 -142 l -18 -178 l -17 -169 q 72 -65 46 -111 q 107 58 97 -18 l 131 253 l 157 468 l 68 468 l 63 474 l 67 514 l 163 514 l 181 651 q 248 800 192 749 q 396 851 304 851 z "},"Ơ":{"ha":882,"x_min":60,"x_max":854,"o":"m 789 1054 q 833 1020 811 1054 q 854 940 854 986 q 809 841 854 876 q 693 806 764 806 q 818 454 818 693 q 717 113 818 235 q 431 -8 615 -8 q 156 108 251 -8 q 60 439 60 224 q 160 777 60 658 q 446 896 260 896 q 608 864 526 896 q 688 846 660 846 q 763 869 732 846 q 794 933 794 893 q 749 1031 794 985 l 751 1039 q 789 1054 774 1054 m 442 833 q 210 735 289 833 q 132 446 132 636 q 208 153 132 253 q 433 53 285 53 q 665 153 585 53 q 744 447 744 254 q 442 833 744 833 z "},"ơ":{"ha":776,"x_min":71,"x_max":733,"o":"m 642 804 q 675 818 663 818 q 714 790 694 818 q 733 725 733 763 q 698 647 733 676 q 604 614 663 618 q 700 351 700 526 q 616 88 700 182 q 379 -7 532 -7 q 151 83 232 -7 q 71 339 71 174 q 155 602 71 510 q 394 694 239 694 q 529 672 456 694 q 593 658 567 658 q 653 675 629 658 q 678 722 678 692 q 639 797 678 761 l 642 804 m 383 47 q 567 123 504 47 q 631 347 631 199 q 388 636 631 636 q 142 342 142 636 q 383 47 142 47 z "},"Ư":{"ha":874,"x_min":111,"x_max":867,"o":"m 867 964 q 835 887 867 918 q 751 846 804 856 l 750 435 l 749 328 q 668 81 753 168 q 426 -7 583 -7 q 191 78 272 -7 q 111 322 110 163 l 113 447 l 111 888 l 183 888 l 181 329 q 243 126 179 196 q 431 57 307 57 q 618 124 554 57 q 682 322 682 192 l 679 888 l 714 888 q 783 906 758 888 q 807 960 807 925 q 761 1043 807 1001 l 764 1053 q 800 1068 786 1068 q 828 1053 813 1068 q 856 1015 844 1039 q 867 964 867 992 z "},"ư":{"ha":769,"x_min":113,"x_max":742,"o":"m 643 243 q 576 60 646 125 q 376 -6 506 -6 q 179 59 247 -6 q 113 243 111 124 l 114 344 l 113 688 l 182 688 l 178 251 q 228 103 176 154 q 378 53 279 53 q 528 103 476 53 q 579 251 579 154 l 576 688 l 611 688 q 666 702 646 688 q 686 742 686 717 q 649 807 686 775 l 651 815 q 686 829 672 829 q 723 804 704 829 q 742 747 742 779 q 716 684 742 710 q 646 650 690 658 l 643 336 l 643 243 z "},"Ǎ":{"ha":788,"x_min":22,"x_max":753,"o":"m 678 0 l 658 75 l 592 267 l 381 269 l 190 267 l 118 78 l 97 0 l 22 0 l 361 888 l 443 888 l 753 0 l 678 0 m 404 804 l 396 804 l 215 331 l 389 329 l 569 331 l 404 804 m 558 1125 q 408 1010 499 1085 l 382 1010 q 231 1125 281 1090 l 247 1160 l 257 1160 q 394 1065 361 1090 q 532 1160 428 1089 l 542 1160 l 558 1125 z "},"ǎ":{"ha":700,"x_min":40,"x_max":647,"o":"m 576 0 l 561 63 l 510 200 l 182 200 l 128 65 l 110 0 l 40 0 l 317 688 l 394 688 l 647 0 l 576 0 m 357 614 l 350 614 l 206 257 l 344 256 l 489 257 l 357 614 m 526 958 q 371 778 456 883 l 342 778 q 186 958 253 889 l 208 990 l 218 990 q 357 838 296 910 q 494 990 426 921 l 504 990 l 526 958 z "},"Ǐ":{"ha":354,"x_min":14,"x_max":342,"o":"m 213 0 l 140 0 l 144 269 l 140 888 l 214 888 l 210 274 l 213 0 m 342 1125 q 192 1010 282 1085 l 165 1010 q 14 1125 64 1090 l 31 1160 l 40 1160 q 178 1065 144 1090 q 315 1160 211 1089 l 325 1160 l 342 1125 z "},"ǐ":{"ha":346,"x_min":4,"x_max":344,"o":"m 204 0 l 136 0 l 139 208 l 136 688 l 206 688 l 203 214 l 204 0 m 344 958 q 189 778 274 883 l 160 778 q 4 958 71 889 l 26 990 l 36 990 q 175 838 114 910 q 313 990 244 921 l 322 990 l 344 958 z "},"Ǒ":{"ha":876,"x_min":60,"x_max":818,"o":"m 447 896 q 722 783 626 896 q 818 460 818 669 q 717 113 818 235 q 429 -8 615 -8 q 156 108 251 -8 q 60 439 60 224 q 160 777 60 658 q 447 896 261 896 m 442 833 q 210 735 289 833 q 132 446 132 636 q 208 153 132 253 q 433 53 285 53 q 665 154 585 53 q 744 450 744 256 q 667 736 744 639 q 442 833 590 833 m 604 1125 q 454 1010 544 1085 l 428 1010 q 276 1125 326 1090 l 293 1160 l 303 1160 q 440 1065 407 1090 q 578 1160 474 1089 l 588 1160 l 604 1125 z "},"ǒ":{"ha":771,"x_min":71,"x_max":700,"o":"m 394 694 q 621 606 542 694 q 700 357 700 518 q 616 88 700 182 q 378 -7 532 -7 q 151 83 231 -7 q 71 339 71 174 q 155 602 71 510 q 394 694 239 694 m 389 635 q 142 347 142 635 q 381 51 142 51 q 631 346 631 51 q 389 635 631 635 m 557 958 q 401 778 486 883 l 372 778 q 217 958 283 889 l 239 990 l 249 990 q 388 838 326 910 q 525 990 457 921 l 535 990 l 557 958 z "},"Ǔ":{"ha":860,"x_min":113,"x_max":751,"o":"m 750 328 q 668 81 753 168 q 426 -7 583 -7 q 192 78 274 -7 q 113 322 111 163 l 113 888 l 183 888 l 181 329 q 243 126 179 196 q 431 57 307 57 q 619 125 554 57 q 682 322 683 193 l 679 888 l 751 888 l 750 435 l 750 328 m 604 1160 q 449 979 533 1085 l 419 979 q 264 1160 331 1090 l 286 1192 l 296 1192 q 435 1039 374 1111 q 572 1192 504 1122 l 582 1192 l 604 1160 z "},"ǔ":{"ha":757,"x_min":114,"x_max":647,"o":"m 644 243 q 576 60 647 125 q 376 -6 506 -6 q 181 59 249 -6 q 114 243 113 124 l 115 344 l 114 688 l 183 688 l 179 251 q 229 103 178 154 q 379 53 281 53 q 529 103 478 53 q 581 251 581 154 l 578 688 l 647 688 l 644 336 l 644 243 m 553 958 q 397 778 482 883 l 368 778 q 213 958 279 889 l 235 990 l 244 990 q 383 838 322 910 q 521 990 453 921 l 531 990 l 553 958 z "},"Ǖ":{"ha":860,"x_min":113,"x_max":751,"o":"m 750 328 q 668 81 753 168 q 426 -7 583 -7 q 192 78 274 -7 q 113 322 111 163 l 113 888 l 183 888 l 181 329 q 243 126 179 196 q 431 57 307 57 q 619 125 554 57 q 682 322 683 193 l 679 888 l 751 888 l 750 435 l 750 328 m 608 1206 l 264 1206 l 257 1211 l 261 1257 l 607 1257 l 613 1250 l 608 1206 m 331 1107 q 362 1095 350 1107 q 374 1064 374 1083 q 361 1032 374 1044 q 329 1019 349 1019 q 298 1031 310 1019 q 286 1063 286 1043 q 298 1094 286 1082 q 331 1107 310 1107 m 538 1107 q 569 1095 557 1107 q 581 1064 581 1083 q 569 1032 581 1044 q 536 1019 557 1019 q 505 1031 517 1019 q 493 1063 493 1043 q 506 1094 493 1082 q 538 1107 518 1107 z "},"ǖ":{"ha":757,"x_min":114,"x_max":647,"o":"m 644 243 q 576 60 647 125 q 376 -6 506 -6 q 181 59 249 -6 q 114 243 113 124 l 115 344 l 114 688 l 183 688 l 179 251 q 229 103 178 154 q 379 53 281 53 q 529 103 478 53 q 581 251 581 154 l 578 688 l 647 688 l 644 336 l 644 243 m 556 1004 l 211 1004 l 204 1010 l 208 1056 l 554 1056 l 560 1049 l 556 1004 m 278 906 q 309 894 297 906 q 321 863 321 882 q 308 831 321 843 q 276 818 296 818 q 245 830 257 818 q 233 861 233 842 q 245 893 233 881 q 278 906 257 906 m 485 906 q 516 894 504 906 q 528 863 528 882 q 516 831 528 843 q 483 818 504 818 q 452 830 464 818 q 440 861 440 842 q 453 893 440 881 q 485 906 465 906 z "},"Ǘ":{"ha":860,"x_min":113,"x_max":751,"o":"m 750 328 q 668 81 753 168 q 426 -7 583 -7 q 192 78 274 -7 q 113 322 111 163 l 113 888 l 183 888 l 181 329 q 243 126 179 196 q 431 57 307 57 q 619 125 554 57 q 682 322 683 193 l 679 888 l 751 888 l 750 435 l 750 328 m 583 1269 l 578 1260 q 304 1183 463 1224 l 294 1190 l 286 1229 q 563 1319 425 1267 l 571 1314 l 583 1269 m 331 1107 q 362 1095 350 1107 q 374 1064 374 1083 q 361 1032 374 1044 q 329 1019 349 1019 q 298 1031 310 1019 q 286 1063 286 1043 q 298 1094 286 1082 q 331 1107 310 1107 m 538 1107 q 569 1095 557 1107 q 581 1064 581 1083 q 569 1032 581 1044 q 536 1019 557 1019 q 505 1031 517 1019 q 493 1063 493 1043 q 506 1094 493 1082 q 538 1107 518 1107 z "},"ǘ":{"ha":757,"x_min":114,"x_max":647,"o":"m 644 243 q 576 60 647 125 q 376 -6 506 -6 q 181 59 249 -6 q 114 243 113 124 l 115 344 l 114 688 l 183 688 l 179 251 q 229 103 178 154 q 379 53 281 53 q 529 103 478 53 q 581 251 581 154 l 578 688 l 647 688 l 644 336 l 644 243 m 531 1068 l 525 1058 q 251 982 410 1022 l 242 989 l 233 1028 q 510 1118 372 1065 l 518 1113 l 531 1068 m 278 906 q 309 894 297 906 q 321 863 321 882 q 308 831 321 843 q 276 818 296 818 q 245 830 257 818 q 233 861 233 842 q 245 893 233 881 q 278 906 257 906 m 485 906 q 516 894 504 906 q 528 863 528 882 q 516 831 528 843 q 483 818 504 818 q 452 830 464 818 q 440 861 440 842 q 453 893 440 881 q 485 906 465 906 z "},"Ǚ":{"ha":860,"x_min":113,"x_max":751,"o":"m 750 328 q 668 81 753 168 q 426 -7 583 -7 q 192 78 274 -7 q 113 322 111 163 l 113 888 l 183 888 l 181 329 q 243 126 179 196 q 431 57 307 57 q 619 125 554 57 q 682 322 683 193 l 679 888 l 751 888 l 750 435 l 750 328 m 599 1261 q 449 1146 525 1210 l 422 1146 q 271 1261 336 1215 l 288 1296 l 297 1296 q 435 1201 401 1226 q 572 1296 468 1225 l 582 1296 l 599 1261 m 331 1107 q 362 1095 350 1107 q 374 1064 374 1083 q 361 1032 374 1044 q 329 1019 349 1019 q 298 1031 310 1019 q 286 1063 286 1043 q 298 1094 286 1082 q 331 1107 310 1107 m 538 1107 q 569 1095 557 1107 q 581 1064 581 1083 q 569 1032 581 1044 q 536 1019 557 1019 q 505 1031 517 1019 q 493 1063 493 1043 q 506 1094 493 1082 q 538 1107 518 1107 z "},"ǚ":{"ha":757,"x_min":114,"x_max":647,"o":"m 644 243 q 576 60 647 125 q 376 -6 506 -6 q 181 59 249 -6 q 114 243 113 124 l 115 344 l 114 688 l 183 688 l 179 251 q 229 103 178 154 q 379 53 281 53 q 529 103 478 53 q 581 251 581 154 l 578 688 l 647 688 l 644 336 l 644 243 m 546 1060 q 396 944 472 1008 l 369 944 q 218 1060 283 1014 l 235 1094 l 244 1094 q 382 1000 349 1025 q 519 1094 415 1024 l 529 1094 l 546 1060 m 278 906 q 309 894 297 906 q 321 863 321 882 q 308 831 321 843 q 276 818 296 818 q 245 830 257 818 q 233 861 233 842 q 245 893 233 881 q 278 906 257 906 m 485 906 q 516 894 504 906 q 528 863 528 882 q 516 831 528 843 q 483 818 504 818 q 452 830 464 818 q 440 861 440 842 q 453 893 440 881 q 485 906 465 906 z "},"Ǜ":{"ha":860,"x_min":113,"x_max":751,"o":"m 750 328 q 668 81 753 168 q 426 -7 583 -7 q 192 78 274 -7 q 113 322 111 163 l 113 888 l 183 888 l 181 329 q 243 126 179 196 q 431 57 307 57 q 619 125 554 57 q 682 322 683 193 l 679 888 l 751 888 l 750 435 l 750 328 m 307 1319 q 583 1229 444 1267 l 575 1190 l 565 1183 q 292 1260 394 1228 l 286 1269 l 299 1314 l 307 1319 m 331 1107 q 362 1095 350 1107 q 374 1064 374 1083 q 361 1032 374 1044 q 329 1019 349 1019 q 298 1031 310 1019 q 286 1063 286 1043 q 298 1094 286 1082 q 331 1107 310 1107 m 538 1107 q 569 1095 557 1107 q 581 1064 581 1083 q 569 1032 581 1044 q 536 1019 557 1019 q 505 1031 517 1019 q 493 1063 493 1043 q 506 1094 493 1082 q 538 1107 518 1107 z "},"ǜ":{"ha":757,"x_min":114,"x_max":647,"o":"m 644 243 q 576 60 647 125 q 376 -6 506 -6 q 181 59 249 -6 q 114 243 113 124 l 115 344 l 114 688 l 183 688 l 179 251 q 229 103 178 154 q 379 53 281 53 q 529 103 478 53 q 581 251 581 154 l 578 688 l 647 688 l 644 336 l 644 243 m 254 1118 q 531 1028 392 1065 l 522 989 l 513 982 q 239 1058 342 1026 l 233 1068 l 246 1113 l 254 1118 m 278 906 q 309 894 297 906 q 321 863 321 882 q 308 831 321 843 q 276 818 296 818 q 245 830 257 818 q 233 861 233 842 q 245 893 233 881 q 278 906 257 906 m 485 906 q 516 894 504 906 q 528 863 528 882 q 516 831 528 843 q 483 818 504 818 q 452 830 464 818 q 440 861 440 842 q 453 893 440 881 q 485 906 465 906 z "},"Ǫ":{"ha":876,"x_min":60,"x_max":818,"o":"m 513 -90 q 486 -162 486 -131 q 501 -205 486 -189 q 544 -221 517 -221 q 649 -158 597 -221 l 653 -158 l 668 -197 q 536 -274 604 -274 q 463 -246 490 -274 q 435 -172 435 -218 q 467 -79 435 -124 l 521 0 q 429 -8 478 -8 q 156 108 251 -8 q 60 439 60 224 q 160 777 60 658 q 449 896 261 896 q 722 783 626 896 q 818 460 818 669 q 758 174 818 286 q 583 18 699 61 l 513 -90 m 132 446 q 208 153 132 253 q 432 53 285 53 q 664 153 585 53 q 743 450 743 254 q 667 736 743 639 q 442 833 590 833 q 210 735 289 833 q 132 446 132 636 z "},"ǫ":{"ha":771,"x_min":71,"x_max":700,"o":"m 444 -94 q 418 -167 418 -135 q 433 -207 418 -192 q 475 -222 449 -222 q 582 -158 531 -222 l 586 -158 l 603 -197 q 468 -274 535 -274 q 395 -246 422 -274 q 368 -172 368 -218 q 397 -85 368 -128 l 453 0 q 376 -7 414 -7 q 150 83 229 -7 q 71 339 71 174 q 155 602 71 510 q 394 694 239 694 q 621 606 542 694 q 700 357 700 518 q 653 140 700 226 q 517 18 606 54 l 444 -94 m 142 347 q 381 51 142 51 q 631 346 631 51 q 388 635 631 635 q 142 347 142 635 z "},"Ǻ":{"ha":788,"x_min":22,"x_max":753,"o":"m 285 1125 q 561 1217 432 1167 l 571 1213 l 582 1168 l 578 1158 q 303 1079 488 1129 l 294 1086 l 285 1125 m 676 0 l 658 75 l 592 265 l 382 268 l 190 265 l 118 78 l 97 0 l 22 0 l 353 854 q 294 951 294 882 q 324 1028 294 999 q 403 1057 353 1057 q 481 1027 453 1057 q 510 953 510 997 q 450 856 510 882 l 753 0 l 676 0 m 401 1015 q 353 999 371 1015 q 336 953 336 982 q 354 903 336 921 q 401 886 372 886 q 450 903 431 886 q 469 950 469 919 q 452 997 469 979 q 401 1015 435 1015 m 404 800 l 396 800 l 215 329 l 389 328 l 569 329 l 404 800 z "},"ǻ":{"ha":700,"x_min":40,"x_max":647,"o":"m 235 1071 q 511 1163 382 1113 l 521 1158 l 532 1114 l 528 1104 q 253 1025 438 1075 l 244 1032 l 235 1071 m 246 897 q 275 974 246 944 q 354 1003 304 1003 q 433 973 404 1003 q 461 899 461 943 q 429 819 461 849 q 353 790 397 790 q 276 819 307 790 q 246 897 246 847 m 421 896 q 403 943 421 925 q 353 961 386 961 q 305 944 322 961 q 288 899 288 928 q 306 849 288 867 q 353 832 324 832 q 401 849 382 832 q 421 896 421 865 m 576 0 l 561 63 l 510 200 l 182 200 l 128 65 l 110 0 l 40 0 l 317 688 l 394 688 l 647 0 l 576 0 m 357 614 l 350 614 l 206 257 l 344 256 l 489 257 l 357 614 z "},"Ǽ":{"ha":1111,"x_min":-21,"x_max":1083,"o":"m 1075 0 l 621 0 l 614 75 l 565 381 l 218 311 l 89 78 l 57 0 l -21 0 l 468 888 l 939 888 l 944 879 l 936 822 l 708 826 l 567 826 l 625 453 l 938 511 l 944 506 l 944 451 l 635 394 l 686 61 l 850 61 l 1078 65 l 1083 57 l 1075 0 m 497 804 l 492 804 l 257 382 l 556 439 l 497 804 m 871 1138 l 868 1128 q 611 1004 750 1067 l 600 1008 l 585 1044 q 842 1182 736 1118 l 851 1179 l 871 1138 z "},"ǽ":{"ha":964,"x_min":6,"x_max":919,"o":"m 914 0 l 533 0 l 526 63 l 489 285 l 199 225 l 104 65 l 78 0 l 6 0 l 406 688 l 803 688 l 808 679 l 800 626 l 613 632 l 499 632 l 544 353 l 800 400 l 806 396 l 807 340 l 554 297 l 593 57 l 726 57 l 915 61 l 919 54 l 914 0 m 435 614 l 428 614 l 239 294 l 481 340 l 435 614 m 735 965 l 733 956 q 514 774 667 899 l 504 775 l 481 808 q 697 1004 588 896 l 706 1003 l 735 965 z "},"Ǿ":{"ha":876,"x_min":60,"x_max":818,"o":"m 650 844 q 818 460 818 742 q 717 113 818 233 q 429 -8 617 -8 q 267 24 339 -8 l 194 -132 l 149 -117 l 144 -110 l 218 50 q 60 439 60 160 q 160 777 60 658 q 449 896 261 896 q 599 869 533 896 l 657 996 l 703 981 l 708 971 l 650 844 m 132 446 q 247 113 132 207 l 571 810 q 442 833 513 833 q 210 735 289 833 q 132 446 132 636 m 432 53 q 664 153 585 53 q 743 450 743 254 q 619 782 743 692 l 294 82 q 432 53 353 53 m 619 1138 l 617 1128 q 360 1004 499 1067 l 349 1008 l 333 1044 q 590 1182 485 1118 l 600 1179 l 619 1138 z "},"ǿ":{"ha":771,"x_min":71,"x_max":700,"o":"m 563 654 q 700 357 700 572 q 616 88 700 182 q 376 -7 532 -7 q 258 11 315 -7 l 190 -131 l 147 -114 l 144 -104 l 210 33 q 71 339 71 117 q 155 602 71 510 q 394 694 239 694 q 514 676 457 694 l 563 778 l 603 761 l 608 751 l 563 654 m 142 347 q 238 92 142 161 l 488 619 q 388 635 442 635 q 142 347 142 635 m 381 51 q 631 346 631 51 q 535 594 631 526 l 283 67 q 381 51 329 51 m 526 967 l 525 957 q 306 775 458 900 l 296 776 l 272 810 q 489 1006 379 897 l 497 1004 l 526 967 z "},"Ș":{"ha":638,"x_min":65,"x_max":571,"o":"m 357 893 q 542 851 451 893 l 531 785 l 515 781 q 349 832 435 832 q 247 808 290 832 q 180 744 203 783 q 157 665 157 706 q 182 590 157 622 q 244 535 207 558 q 343 483 281 513 q 462 419 417 447 q 539 345 507 390 q 571 236 571 300 q 535 115 571 171 q 436 26 500 58 q 292 -7 372 -7 q 65 56 165 -7 l 74 129 l 85 133 q 187 73 131 93 q 296 53 243 53 q 403 78 357 53 q 475 143 450 103 q 500 228 500 183 q 474 308 500 274 q 412 364 449 342 q 310 418 375 386 q 193 481 238 453 q 117 553 149 508 q 86 660 86 597 q 120 777 86 724 q 216 862 154 831 q 357 893 278 893 m 322 -85 q 376 -162 376 -115 q 268 -315 376 -236 l 242 -292 l 243 -285 q 315 -174 315 -229 q 275 -118 315 -142 l 275 -110 q 322 -85 301 -92 z "},"ș":{"ha":576,"x_min":76,"x_max":497,"o":"m 319 692 q 476 660 401 692 l 464 593 l 451 590 q 313 638 382 638 q 202 599 243 638 q 161 514 161 561 q 198 440 161 468 q 310 381 235 413 q 408 330 372 351 q 471 273 444 308 q 497 186 497 238 q 469 91 497 135 q 388 21 440 47 q 265 -6 335 -6 q 76 42 163 -6 l 83 113 l 94 117 q 180 66 132 83 q 272 49 228 49 q 386 87 342 49 q 431 176 431 125 q 393 253 431 225 q 278 318 356 282 q 181 367 218 346 q 119 424 144 389 q 93 508 93 458 q 122 601 93 560 q 201 667 150 643 q 319 692 253 692 m 281 -85 q 335 -162 335 -115 q 226 -315 335 -236 l 200 -292 l 201 -285 q 274 -174 274 -229 q 233 -118 274 -142 l 233 -110 q 281 -85 260 -92 z "},"Ț":{"ha":671,"x_min":35,"x_max":638,"o":"m 631 824 l 482 828 l 374 828 l 369 274 l 372 0 l 300 0 l 304 269 l 300 828 l 193 828 l 40 824 l 35 832 l 42 888 l 632 888 l 638 879 l 631 824 m 340 -85 q 394 -162 394 -115 q 286 -315 394 -236 l 260 -292 l 261 -285 q 333 -174 333 -229 q 293 -118 333 -142 l 293 -110 q 340 -85 319 -92 z "},"ț":{"ha":601,"x_min":51,"x_max":551,"o":"m 546 624 l 424 629 l 336 629 l 333 214 l 336 0 l 268 0 l 269 208 l 268 629 l 183 629 l 57 624 l 51 631 l 57 688 l 547 688 l 551 679 l 546 624 m 308 -85 q 363 -162 363 -115 q 254 -315 363 -236 l 228 -292 l 229 -285 q 301 -174 301 -229 q 261 -118 301 -142 l 261 -110 q 308 -85 288 -92 z "},"ȷ":{"ha":383,"x_min":35,"x_max":244,"o":"m 243 228 l 243 126 q 209 -7 243 46 q 90 -108 175 -60 l 60 -72 l 60 -64 q 151 19 124 -25 q 179 125 179 63 l 179 219 l 176 633 l 42 632 l 35 639 l 42 688 l 244 688 l 243 228 z "},"ˆ":{"ha":542,"x_min":100,"x_max":440,"o":"m 100 756 q 256 936 171 831 l 285 936 q 440 756 374 825 l 418 724 l 408 724 q 269 876 331 804 q 132 724 200 793 l 122 724 l 100 756 z "},"ˇ":{"ha":542,"x_min":100,"x_max":440,"o":"m 440 904 q 285 724 369 829 l 256 724 q 100 904 167 835 l 122 936 l 132 936 q 271 783 210 856 q 408 936 340 867 l 418 936 l 440 904 z "},"ˉ":{"ha":542,"x_min":68,"x_max":474,"o":"m 469 811 l 74 811 l 68 818 l 72 863 l 468 863 l 474 857 l 469 811 z "},"˘":{"ha":542,"x_min":113,"x_max":431,"o":"m 431 882 q 269 728 399 728 q 113 882 140 728 l 136 911 l 149 911 q 271 783 171 783 q 393 911 371 783 l 406 911 l 431 882 z "},"˙":{"ha":331,"x_min":117,"x_max":210,"o":"m 164 900 q 210 854 210 900 q 163 806 210 806 q 117 851 117 806 q 129 887 117 874 q 164 900 142 900 z "},"˚":{"ha":542,"x_min":161,"x_max":376,"o":"m 269 949 q 348 919 319 949 q 376 844 376 889 q 344 765 376 794 q 268 736 313 736 q 192 765 222 736 q 161 843 161 793 q 190 919 161 890 q 269 949 219 949 m 268 907 q 220 890 238 907 q 203 844 203 874 q 221 795 203 813 q 268 778 239 778 q 317 794 297 778 q 336 842 336 811 q 319 889 336 871 q 268 907 301 907 z "},"˛":{"ha":542,"x_min":164,"x_max":397,"o":"m 242 -90 q 215 -162 215 -131 q 231 -205 215 -189 q 274 -221 246 -221 q 378 -158 326 -221 l 382 -158 l 397 -197 q 265 -274 333 -274 q 192 -246 219 -274 q 164 -172 164 -218 q 196 -79 164 -124 l 282 47 l 332 47 l 242 -90 z "},"˜":{"ha":542,"x_min":64,"x_max":478,"o":"m 478 869 l 399 788 l 388 783 q 276 811 358 786 q 171 836 188 836 q 126 804 158 836 l 96 775 l 88 775 l 64 800 l 64 808 l 143 890 l 154 893 q 271 865 186 890 q 369 842 350 842 q 419 876 385 842 q 446 903 419 876 l 453 903 l 478 878 l 478 869 z "},"˝":{"ha":542,"x_min":57,"x_max":483,"o":"m 57 746 q 251 949 158 844 l 260 949 l 293 922 l 293 913 q 93 719 201 819 l 83 719 l 57 746 m 246 746 q 440 949 347 844 l 450 949 l 483 922 l 482 913 q 282 719 390 819 l 272 719 l 246 746 z "},"̃":{"ha":0,"x_min":64,"x_max":478,"o":"m 478 869 l 397 786 l 386 783 q 271 813 360 786 q 171 836 192 836 q 126 804 158 836 l 96 775 l 88 775 l 64 800 l 64 808 l 144 890 l 156 894 q 271 865 178 892 q 369 842 350 842 q 419 876 385 842 q 446 903 419 876 l 453 903 l 478 878 l 478 869 z "},"̣":{"ha":0,"x_min":113,"x_max":206,"o":"m 160 -85 q 206 -131 206 -85 q 158 -179 206 -179 q 113 -133 113 -179 q 125 -98 113 -111 q 160 -85 138 -85 z "},"̦":{"ha":0,"x_min":75,"x_max":210,"o":"m 155 -60 q 209 -139 209 -92 q 100 -292 209 -210 l 75 -268 l 75 -261 q 148 -150 148 -206 q 107 -95 148 -118 l 107 -87 q 155 -60 128 -70 z "},"Δ":{"ha":788,"x_min":22,"x_max":753,"o":"m 22 0 l 361 888 l 443 888 l 753 0 l 22 0 m 113 63 l 661 63 l 404 804 l 396 804 l 113 63 z "},"Ω":{"ha":1026,"x_min":61,"x_max":965,"o":"m 519 896 q 798 787 701 896 q 894 497 894 678 q 842 254 894 368 q 690 64 789 140 l 692 58 l 849 58 l 960 65 l 965 58 l 956 -3 l 828 0 l 651 0 l 597 -1 l 593 1 l 593 60 q 761 247 701 132 q 821 493 821 363 q 742 742 821 650 q 514 835 663 835 q 285 742 365 835 q 206 493 206 650 q 265 246 206 361 q 432 60 324 131 l 432 1 l 428 -1 l 374 0 l 183 0 l 67 -3 l 61 4 l 71 64 l 189 58 l 333 58 l 335 64 q 184 249 236 138 q 132 488 132 360 q 176 701 132 608 q 308 844 221 793 q 519 896 396 896 z "},"μ":{"ha":701,"x_min":113,"x_max":672,"o":"m 663 17 q 590 -6 629 -6 q 504 96 514 -6 l 497 96 q 296 -7 400 3 q 181 33 224 -7 l 181 -257 l 113 -257 l 114 271 l 113 626 l 181 635 l 181 188 q 214 90 182 125 q 306 56 246 56 q 501 160 401 56 l 501 626 l 569 635 l 567 128 q 611 50 565 50 q 663 68 638 50 l 672 63 l 663 17 z "},"π":{"ha":840,"x_min":14,"x_max":788,"o":"m 621 128 q 665 50 621 50 q 721 68 694 50 l 731 63 l 721 17 q 649 -6 683 -6 q 556 121 556 -6 l 556 626 l 290 626 l 290 275 l 292 -133 l 222 -133 l 224 271 l 222 626 l 156 626 q 119 609 140 626 q 47 544 97 592 l 36 544 l 14 574 l 14 583 l 114 681 l 136 688 l 782 688 l 788 679 l 781 626 l 622 626 l 621 128 z "},"Ẁ":{"ha":1235,"x_min":31,"x_max":1219,"o":"m 493 1185 q 750 1047 599 1121 l 735 1011 l 724 1007 q 467 1131 585 1069 l 464 1140 l 483 1182 l 493 1185 m 814 0 l 619 560 l 613 560 l 404 0 l 331 0 l 31 888 l 104 888 l 121 814 l 368 88 l 375 88 l 588 660 l 508 888 l 583 888 l 603 808 l 850 88 l 858 88 l 1129 811 l 1149 888 l 1219 888 l 888 0 l 814 0 z "},"ẁ":{"ha":1064,"x_min":49,"x_max":1031,"o":"m 411 1004 q 628 808 521 896 l 604 775 l 594 774 q 375 956 442 899 l 374 965 l 403 1003 l 411 1004 m 689 0 l 535 417 l 528 417 l 363 0 l 290 0 l 49 688 l 119 688 l 132 625 l 328 81 l 335 81 l 504 513 l 442 688 l 514 688 l 529 619 l 724 81 l 732 81 l 946 622 l 963 688 l 1031 688 l 761 0 l 689 0 z "},"Ẃ":{"ha":1235,"x_min":31,"x_max":1219,"o":"m 814 0 l 619 560 l 613 560 l 404 0 l 331 0 l 31 888 l 104 888 l 121 814 l 368 88 l 375 88 l 588 660 l 508 888 l 583 888 l 603 808 l 850 88 l 858 88 l 1129 811 l 1149 888 l 1219 888 l 888 0 l 814 0 m 790 1138 l 788 1128 q 531 1004 669 1067 l 519 1008 l 504 1044 q 761 1182 656 1118 l 771 1179 l 790 1138 z "},"ẃ":{"ha":1064,"x_min":49,"x_max":1031,"o":"m 689 0 l 535 417 l 529 417 l 363 0 l 290 0 l 49 688 l 119 688 l 133 625 l 328 81 l 335 81 l 504 513 l 442 688 l 514 688 l 529 619 l 724 81 l 732 81 l 946 622 l 963 688 l 1031 688 l 761 0 l 689 0 m 668 965 l 667 956 q 447 774 600 899 l 438 775 l 414 808 q 631 1004 521 896 l 639 1003 l 668 965 z "},"Ẅ":{"ha":1235,"x_min":31,"x_max":1219,"o":"m 506 1136 q 550 1092 550 1136 q 538 1057 550 1069 q 503 1044 525 1044 q 458 1089 458 1044 q 471 1124 458 1111 q 506 1136 483 1136 m 713 1136 q 757 1092 757 1136 q 744 1057 757 1069 q 710 1044 732 1044 q 665 1089 665 1044 q 678 1124 665 1111 q 713 1136 690 1136 m 814 0 l 619 560 l 613 560 l 404 0 l 331 0 l 31 888 l 104 888 l 121 814 l 368 88 l 375 88 l 588 660 l 508 888 l 583 888 l 603 808 l 850 88 l 858 88 l 1129 811 l 1149 888 l 1219 888 l 888 0 l 814 0 z "},"ẅ":{"ha":1064,"x_min":49,"x_max":1031,"o":"m 399 935 q 443 890 443 935 q 431 856 443 868 q 396 843 418 843 q 351 888 351 843 q 364 922 351 910 q 399 935 376 935 m 606 935 q 650 890 650 935 q 638 856 650 868 q 603 843 625 843 q 558 888 558 843 q 571 922 558 910 q 606 935 583 935 m 689 0 l 535 417 l 528 417 l 363 0 l 290 0 l 49 688 l 119 688 l 132 625 l 328 81 l 335 81 l 504 513 l 442 688 l 514 688 l 529 619 l 724 81 l 732 81 l 946 622 l 963 688 l 1031 688 l 761 0 l 689 0 z "},"ẞ":{"ha":851,"x_min":110,"x_max":800,"o":"m 433 893 q 736 813 571 893 l 742 793 l 493 493 q 723 399 646 461 q 800 233 800 338 q 766 107 800 161 q 672 23 732 53 q 538 -7 613 -7 q 420 9 481 -7 q 313 56 360 25 l 321 129 l 332 133 q 434 74 376 94 q 543 53 492 53 q 677 103 625 53 q 729 228 729 153 q 649 366 729 314 q 406 447 569 418 l 400 471 l 650 778 q 432 832 536 832 q 249 768 315 832 q 181 596 182 704 l 179 275 l 182 0 l 110 0 l 114 264 l 111 594 q 151 751 111 683 q 263 856 190 818 q 433 893 336 893 z "},"Ạ":{"ha":788,"x_min":22,"x_max":753,"o":"m 676 0 l 658 75 l 592 267 l 382 269 l 190 267 l 118 78 l 97 0 l 22 0 l 361 888 l 443 888 l 753 0 l 676 0 m 404 804 l 396 804 l 215 331 l 389 329 l 569 331 l 404 804 m 390 -108 q 436 -156 436 -108 q 424 -190 436 -178 q 389 -203 411 -203 q 343 -157 343 -203 q 356 -122 343 -135 q 390 -108 368 -108 z "},"ạ":{"ha":700,"x_min":40,"x_max":647,"o":"m 576 0 l 561 63 l 510 200 l 182 200 l 128 65 l 110 0 l 40 0 l 317 688 l 394 688 l 647 0 l 576 0 m 357 614 l 350 614 l 206 257 l 344 256 l 489 257 l 357 614 m 347 -108 q 393 -156 393 -108 q 381 -190 393 -178 q 346 -203 368 -203 q 300 -157 300 -203 q 313 -122 300 -135 q 347 -108 325 -108 z "},"Ả":{"ha":788,"x_min":22,"x_max":753,"o":"m 678 0 l 658 75 l 592 267 l 381 269 l 190 267 l 118 78 l 97 0 l 22 0 l 361 888 l 443 888 l 753 0 l 678 0 m 404 804 l 396 804 l 215 331 l 389 329 l 569 331 l 404 804 m 392 1221 q 445 1201 424 1221 q 467 1154 467 1182 q 397 1057 467 1110 l 422 1013 l 386 994 l 349 1061 q 418 1147 418 1111 q 382 1175 418 1175 q 304 1143 343 1175 l 288 1171 q 392 1221 338 1221 z "},"ả":{"ha":700,"x_min":40,"x_max":647,"o":"m 576 0 l 561 63 l 510 200 l 182 200 l 128 65 l 110 0 l 40 0 l 317 688 l 394 688 l 647 0 l 576 0 m 357 614 l 350 614 l 206 257 l 344 256 l 489 257 l 357 614 m 354 1021 q 408 1001 386 1021 q 429 954 429 982 q 360 857 429 910 l 385 813 l 349 794 l 311 861 q 381 947 381 911 q 344 975 381 975 q 267 943 306 975 l 250 971 q 354 1021 300 1021 z "},"Ấ":{"ha":788,"x_min":22,"x_max":753,"o":"m 678 0 l 658 75 l 592 267 l 381 269 l 190 267 l 118 78 l 97 0 l 22 0 l 361 888 l 443 888 l 753 0 l 678 0 m 404 804 l 396 804 l 215 331 l 389 329 l 569 331 l 404 804 m 607 1251 l 503 1129 l 493 1129 l 465 1153 l 563 1281 l 571 1281 l 607 1261 l 607 1251 m 231 1029 q 381 1144 290 1069 l 407 1144 q 558 1029 508 1064 l 542 994 l 532 994 q 394 1089 428 1065 q 257 994 361 1065 l 247 994 l 231 1029 z "},"ấ":{"ha":700,"x_min":40,"x_max":647,"o":"m 576 0 l 561 63 l 510 200 l 182 200 l 128 65 l 110 0 l 40 0 l 317 688 l 394 688 l 647 0 l 576 0 m 357 614 l 350 614 l 206 257 l 344 256 l 489 257 l 357 614 m 568 1050 l 464 928 l 454 928 l 426 951 l 524 1079 l 532 1079 l 568 1060 l 568 1050 m 192 828 q 342 943 251 868 l 368 943 q 519 828 469 863 l 503 793 l 493 793 q 356 888 389 864 q 218 793 322 864 l 208 793 l 192 828 z "},"Ầ":{"ha":788,"x_min":22,"x_max":753,"o":"m 678 0 l 658 75 l 592 267 l 381 269 l 190 267 l 118 78 l 97 0 l 22 0 l 361 888 l 443 888 l 753 0 l 678 0 m 404 804 l 396 804 l 215 331 l 389 329 l 569 331 l 404 804 m 568 1153 l 540 1129 l 531 1129 l 426 1251 l 426 1261 l 463 1281 l 471 1281 l 568 1153 m 231 1029 q 381 1144 290 1069 l 407 1144 q 558 1029 508 1064 l 542 994 l 532 994 q 394 1089 428 1065 q 257 994 361 1065 l 247 994 l 231 1029 z "},"ầ":{"ha":700,"x_min":40,"x_max":647,"o":"m 576 0 l 561 63 l 510 200 l 182 200 l 128 65 l 110 0 l 40 0 l 317 688 l 394 688 l 647 0 l 576 0 m 357 614 l 350 614 l 206 257 l 344 256 l 489 257 l 357 614 m 529 951 l 501 928 l 492 928 l 388 1050 l 388 1060 l 424 1079 l 432 1079 l 529 951 m 192 828 q 342 943 251 868 l 368 943 q 519 828 469 863 l 503 793 l 493 793 q 356 888 389 864 q 218 793 322 864 l 208 793 l 192 828 z "},"Ẩ":{"ha":788,"x_min":22,"x_max":753,"o":"m 511 1283 q 438 1253 472 1283 l 421 1279 q 521 1326 471 1326 q 572 1309 551 1326 q 592 1264 592 1292 q 526 1171 592 1222 l 550 1129 l 515 1111 l 479 1175 q 546 1257 546 1222 q 511 1283 546 1283 m 231 1029 q 381 1144 290 1069 l 407 1144 q 558 1029 508 1064 l 542 994 l 532 994 q 394 1089 428 1065 q 257 994 361 1064 l 247 994 l 231 1029 m 676 0 l 658 75 l 592 267 l 382 269 l 190 267 l 118 78 l 97 0 l 22 0 l 361 888 l 443 888 l 753 0 l 676 0 m 404 804 l 396 804 l 215 331 l 389 329 l 569 331 l 404 804 z "},"ẩ":{"ha":700,"x_min":40,"x_max":647,"o":"m 472 1082 q 399 1051 433 1082 l 382 1078 q 482 1125 432 1125 q 533 1108 513 1125 q 553 1063 553 1090 q 488 969 553 1021 l 511 928 l 476 910 l 440 974 q 507 1056 507 1021 q 472 1082 507 1082 m 192 828 q 342 943 251 868 l 368 943 q 519 828 469 863 l 503 793 l 493 793 q 356 888 389 863 q 218 793 322 863 l 208 793 l 192 828 m 576 0 l 561 63 l 510 200 l 182 200 l 128 65 l 110 0 l 40 0 l 317 688 l 394 688 l 647 0 l 576 0 m 357 614 l 350 614 l 206 257 l 344 256 l 489 257 l 357 614 z "},"Ẫ":{"ha":788,"x_min":22,"x_max":753,"o":"m 203 1203 l 203 1211 l 278 1292 l 289 1294 q 399 1267 315 1292 q 492 1244 476 1244 q 544 1285 507 1244 l 564 1304 l 571 1304 l 594 1279 l 594 1271 l 519 1190 l 508 1186 q 406 1213 492 1188 q 306 1238 322 1238 q 283 1226 296 1238 q 256 1200 271 1215 q 235 1178 250 1193 l 226 1178 l 203 1203 m 407 1144 q 558 1029 508 1064 l 542 994 l 532 994 q 394 1089 428 1065 q 257 994 361 1064 l 247 994 l 231 1029 q 381 1144 290 1069 l 407 1144 m 676 0 l 658 75 l 592 267 l 382 269 l 190 267 l 118 78 l 97 0 l 22 0 l 361 888 l 443 888 l 753 0 l 676 0 m 404 804 l 396 804 l 215 331 l 389 329 l 569 331 l 404 804 z "},"ẫ":{"ha":700,"x_min":40,"x_max":647,"o":"m 164 1001 l 164 1010 l 239 1090 l 250 1093 q 360 1065 276 1090 q 453 1043 438 1043 q 506 1083 468 1043 l 525 1103 l 532 1103 l 556 1078 l 556 1069 l 481 989 l 469 985 q 367 1011 453 986 q 267 1036 283 1036 q 244 1025 257 1036 q 217 999 232 1014 q 196 976 211 992 l 188 976 l 164 1001 m 368 943 q 519 828 469 863 l 503 793 l 493 793 q 356 888 389 863 q 218 793 322 863 l 208 793 l 192 828 q 342 943 251 868 l 368 943 m 576 0 l 561 63 l 510 200 l 182 200 l 128 65 l 110 0 l 40 0 l 317 688 l 394 688 l 647 0 l 576 0 m 357 614 l 350 614 l 206 257 l 344 256 l 489 257 l 357 614 z "},"Ậ":{"ha":788,"x_min":22,"x_max":753,"o":"m 229 1056 q 379 1171 289 1096 l 406 1171 q 557 1056 507 1090 l 540 1021 l 531 1021 q 393 1115 426 1092 q 256 1021 360 1090 l 246 1021 l 229 1056 m 676 0 l 658 75 l 592 267 l 382 269 l 190 267 l 118 78 l 97 0 l 22 0 l 361 888 l 443 888 l 753 0 l 676 0 m 404 804 l 396 804 l 215 331 l 389 329 l 569 331 l 404 804 m 390 -108 q 436 -156 436 -108 q 424 -190 436 -178 q 389 -203 411 -203 q 343 -157 343 -203 q 356 -122 343 -135 q 390 -108 368 -108 z "},"ậ":{"ha":700,"x_min":40,"x_max":647,"o":"m 188 810 q 343 990 258 885 l 372 990 q 528 810 461 879 l 506 778 l 496 778 q 357 931 418 858 q 219 778 288 847 l 210 778 l 188 810 m 576 0 l 561 63 l 510 200 l 182 200 l 128 65 l 110 0 l 40 0 l 317 688 l 394 688 l 647 0 l 576 0 m 357 614 l 350 614 l 206 257 l 344 256 l 489 257 l 357 614 m 347 -108 q 393 -156 393 -108 q 381 -190 393 -178 q 346 -203 368 -203 q 300 -157 300 -203 q 313 -122 300 -135 q 347 -108 325 -108 z "},"Ắ":{"ha":788,"x_min":22,"x_max":753,"o":"m 678 0 l 658 75 l 592 267 l 381 269 l 190 267 l 118 78 l 97 0 l 22 0 l 361 888 l 443 888 l 753 0 l 678 0 m 404 804 l 396 804 l 215 331 l 389 329 l 569 331 l 404 804 m 507 1250 q 383 1119 465 1204 l 374 1121 l 346 1144 q 464 1283 404 1211 l 474 1283 l 507 1258 l 507 1250 m 554 1096 q 494 1011 536 1040 q 393 982 451 982 q 236 1096 271 982 l 260 1124 l 272 1124 q 394 1036 299 1036 q 517 1124 489 1036 l 529 1124 l 554 1096 z "},"ắ":{"ha":700,"x_min":40,"x_max":647,"o":"m 576 0 l 561 63 l 510 200 l 182 200 l 128 65 l 110 0 l 40 0 l 317 688 l 394 688 l 647 0 l 576 0 m 357 614 l 350 614 l 206 257 l 344 256 l 489 257 l 357 614 m 468 1049 q 344 918 426 1003 l 335 919 l 307 943 q 425 1082 365 1010 l 435 1082 l 468 1057 l 468 1049 m 515 894 q 455 810 497 839 q 354 781 413 781 q 197 894 232 781 l 221 922 l 233 922 q 356 835 260 835 q 478 922 450 835 l 490 922 l 515 894 z "},"Ằ":{"ha":788,"x_min":22,"x_max":753,"o":"m 678 0 l 658 75 l 592 267 l 381 269 l 190 267 l 118 78 l 97 0 l 22 0 l 361 888 l 443 888 l 753 0 l 678 0 m 404 804 l 396 804 l 215 331 l 389 329 l 569 331 l 404 804 m 351 1244 q 438 1144 407 1178 l 410 1121 l 400 1119 l 375 1144 q 276 1250 310 1213 l 275 1258 l 310 1283 l 318 1283 l 351 1244 m 554 1096 q 494 1011 536 1040 q 393 982 451 982 q 236 1096 271 982 l 260 1124 l 272 1124 q 394 1036 299 1036 q 517 1124 489 1036 l 529 1124 l 554 1096 z "},"ằ":{"ha":700,"x_min":40,"x_max":647,"o":"m 576 0 l 561 63 l 510 200 l 182 200 l 128 65 l 110 0 l 40 0 l 317 688 l 394 688 l 647 0 l 576 0 m 357 614 l 350 614 l 206 257 l 344 256 l 489 257 l 357 614 m 313 1043 q 399 943 368 976 l 371 919 l 361 918 l 336 943 q 238 1049 271 1011 l 236 1057 l 271 1082 l 279 1082 l 313 1043 m 515 894 q 455 810 497 839 q 354 781 413 781 q 197 894 232 781 l 221 922 l 233 922 q 356 835 260 835 q 478 922 450 835 l 490 922 l 515 894 z "},"Ẳ":{"ha":788,"x_min":22,"x_max":753,"o":"m 389 1297 q 311 1265 350 1297 l 294 1293 q 399 1343 344 1343 q 452 1324 431 1343 q 474 1276 474 1304 q 404 1179 474 1232 l 429 1135 l 393 1117 l 356 1183 q 425 1269 425 1233 q 389 1297 425 1297 m 393 982 q 236 1096 271 982 l 260 1124 l 272 1124 q 394 1036 299 1036 q 517 1124 489 1036 l 529 1124 l 554 1096 q 494 1011 536 1040 q 393 982 451 982 m 676 0 l 658 75 l 592 267 l 382 269 l 190 267 l 118 78 l 97 0 l 22 0 l 361 888 l 443 888 l 753 0 l 676 0 m 404 804 l 396 804 l 215 331 l 389 329 l 569 331 l 404 804 z "},"ẳ":{"ha":700,"x_min":40,"x_max":647,"o":"m 350 1096 q 272 1064 311 1096 l 256 1092 q 360 1142 306 1142 q 413 1122 392 1142 q 435 1075 435 1103 q 365 978 435 1031 l 390 933 l 354 915 l 317 982 q 386 1068 386 1032 q 350 1096 386 1096 m 354 781 q 197 894 232 781 l 221 922 l 233 922 q 356 835 260 835 q 478 922 450 835 l 490 922 l 515 894 q 455 810 497 839 q 354 781 413 781 m 576 0 l 561 63 l 510 200 l 182 200 l 128 65 l 110 0 l 40 0 l 317 688 l 394 688 l 647 0 l 576 0 m 357 614 l 350 614 l 206 257 l 344 256 l 489 257 l 357 614 z "},"Ẵ":{"ha":788,"x_min":22,"x_max":753,"o":"m 203 1203 l 203 1211 l 278 1292 l 289 1294 q 399 1267 315 1292 q 492 1244 476 1244 q 544 1285 507 1244 l 564 1304 l 571 1304 l 594 1279 l 594 1271 l 519 1190 l 508 1186 q 406 1213 492 1188 q 306 1238 322 1238 q 283 1226 296 1238 q 256 1200 271 1215 q 235 1178 250 1193 l 226 1178 l 203 1203 m 396 1036 q 515 1122 489 1036 l 528 1122 l 553 1096 q 493 1011 535 1040 q 393 982 451 982 q 296 1011 336 982 q 239 1096 256 1040 l 263 1122 l 275 1122 q 396 1036 301 1036 m 676 0 l 658 75 l 592 267 l 382 269 l 190 267 l 118 78 l 97 0 l 22 0 l 361 888 l 443 888 l 753 0 l 676 0 m 404 804 l 396 804 l 215 331 l 389 329 l 569 331 l 404 804 z "},"ẵ":{"ha":700,"x_min":40,"x_max":647,"o":"m 164 1001 l 164 1010 l 239 1090 l 250 1093 q 360 1065 276 1090 q 453 1043 438 1043 q 506 1083 468 1043 l 525 1103 l 532 1103 l 556 1078 l 556 1069 l 481 989 l 469 985 q 367 1011 453 986 q 267 1036 283 1036 q 244 1025 257 1036 q 217 999 232 1014 q 196 976 211 992 l 188 976 l 164 1001 m 357 835 q 476 921 450 835 l 489 921 l 514 894 q 454 810 496 839 q 354 781 413 781 q 257 810 297 781 q 200 894 217 839 l 224 921 l 236 921 q 357 835 263 835 m 576 0 l 561 63 l 510 200 l 182 200 l 128 65 l 110 0 l 40 0 l 317 688 l 394 688 l 647 0 l 576 0 m 357 614 l 350 614 l 206 257 l 344 256 l 489 257 l 357 614 z "},"Ặ":{"ha":788,"x_min":22,"x_max":753,"o":"m 392 1008 q 235 1122 271 1008 l 260 1150 l 272 1150 q 394 1063 299 1063 q 517 1150 489 1063 l 528 1150 l 553 1122 q 392 1008 514 1008 m 676 0 l 658 75 l 592 267 l 382 269 l 190 267 l 118 78 l 97 0 l 22 0 l 361 888 l 443 888 l 753 0 l 676 0 m 404 804 l 396 804 l 215 331 l 389 329 l 569 331 l 404 804 m 390 -108 q 436 -156 436 -108 q 424 -190 436 -178 q 389 -203 411 -203 q 343 -157 343 -203 q 356 -122 343 -135 q 390 -108 368 -108 z "},"ặ":{"ha":700,"x_min":40,"x_max":647,"o":"m 356 782 q 199 936 226 782 l 222 965 l 235 965 q 357 838 257 838 q 479 965 457 838 l 492 965 l 517 936 q 356 782 485 782 m 576 0 l 561 63 l 510 200 l 182 200 l 128 65 l 110 0 l 40 0 l 317 688 l 394 688 l 647 0 l 576 0 m 357 614 l 350 614 l 206 257 l 344 256 l 489 257 l 357 614 m 347 -108 q 393 -156 393 -108 q 381 -190 393 -178 q 346 -203 368 -203 q 300 -157 300 -203 q 313 -122 300 -135 q 347 -108 325 -108 z "},"Ẹ":{"ha":651,"x_min":140,"x_max":615,"o":"m 608 0 l 140 0 l 144 269 l 140 888 l 607 888 l 613 879 l 604 822 l 397 825 l 214 824 l 211 489 l 385 488 l 532 489 l 539 482 l 531 425 l 211 426 l 210 274 l 213 63 l 392 61 l 610 65 l 615 57 l 608 0 m 381 -108 q 426 -156 426 -108 q 414 -190 426 -178 q 379 -203 401 -203 q 333 -157 333 -203 q 346 -122 333 -135 q 381 -108 358 -108 z "},"ẹ":{"ha":589,"x_min":136,"x_max":536,"o":"m 528 0 l 136 0 l 138 208 l 136 688 l 528 688 l 533 679 l 526 626 l 356 631 l 204 631 l 203 383 l 346 382 l 468 385 l 472 376 l 467 322 l 339 325 l 201 324 l 201 214 l 203 57 l 346 57 l 529 60 l 536 53 l 528 0 m 336 -108 q 382 -156 382 -108 q 369 -190 382 -178 q 335 -203 357 -203 q 289 -157 289 -203 q 301 -122 289 -135 q 336 -108 314 -108 z "},"Ẻ":{"ha":651,"x_min":140,"x_max":615,"o":"m 608 0 l 140 0 l 144 269 l 140 888 l 607 888 l 613 879 l 604 822 l 397 825 l 214 824 l 211 489 l 385 488 l 533 489 l 539 482 l 532 425 l 211 426 l 210 274 l 213 63 l 392 61 l 610 65 l 615 57 l 608 0 m 374 1221 q 427 1201 406 1221 q 449 1154 449 1182 q 379 1057 449 1110 l 404 1013 l 368 994 l 331 1061 q 400 1147 400 1111 q 364 1175 400 1175 q 286 1143 325 1175 l 269 1171 q 374 1221 319 1221 z "},"ẻ":{"ha":589,"x_min":136,"x_max":536,"o":"m 528 0 l 136 0 l 139 208 l 136 688 l 528 688 l 533 679 l 526 626 l 356 631 l 206 631 l 204 383 l 346 382 l 468 385 l 472 376 l 467 322 l 340 325 l 203 324 l 203 214 l 204 57 l 346 57 l 529 60 l 536 53 l 528 0 m 331 1021 q 384 1001 363 1021 q 406 954 406 982 q 336 857 406 910 l 361 813 l 325 794 l 288 861 q 357 947 357 911 q 321 975 357 975 q 243 943 282 975 l 226 971 q 331 1021 276 1021 z "},"Ẽ":{"ha":651,"x_min":140,"x_max":615,"o":"m 608 0 l 140 0 l 144 269 l 140 888 l 607 888 l 613 879 l 604 822 l 397 825 l 214 824 l 211 489 l 385 488 l 533 489 l 539 482 l 532 425 l 211 426 l 210 274 l 213 63 l 392 61 l 610 65 l 615 57 l 608 0 m 582 1125 l 503 1043 l 492 1039 q 381 1067 463 1042 q 275 1092 292 1092 q 231 1060 263 1092 l 200 1031 l 192 1031 l 168 1056 l 168 1064 l 247 1146 l 258 1149 q 375 1121 290 1146 q 474 1097 454 1097 q 524 1132 489 1097 q 550 1158 524 1132 l 557 1158 l 582 1133 l 582 1125 z "},"ẽ":{"ha":589,"x_min":126,"x_max":540,"o":"m 528 0 l 136 0 l 139 208 l 136 688 l 528 688 l 533 679 l 526 626 l 356 631 l 206 631 l 204 383 l 346 382 l 468 385 l 472 376 l 467 322 l 340 325 l 203 324 l 203 214 l 204 57 l 346 57 l 529 60 l 536 53 l 528 0 m 540 924 l 461 842 l 450 838 q 339 865 421 840 q 233 890 250 890 q 189 858 221 890 l 158 829 l 150 829 l 126 854 l 126 863 l 206 944 l 217 947 q 333 919 249 944 q 432 896 413 896 q 482 931 447 896 q 508 957 482 931 l 515 957 l 540 932 l 540 924 z "},"Ế":{"ha":651,"x_min":140,"x_max":615,"o":"m 608 0 l 140 0 l 144 269 l 140 888 l 607 888 l 613 879 l 604 822 l 397 825 l 214 824 l 211 489 l 385 488 l 533 489 l 539 482 l 532 425 l 211 426 l 210 274 l 213 63 l 392 61 l 610 65 l 615 57 l 608 0 m 588 1251 l 483 1129 l 474 1129 l 446 1153 l 543 1281 l 551 1281 l 588 1261 l 588 1251 m 211 1029 q 361 1144 271 1069 l 388 1144 q 539 1029 489 1064 l 522 994 l 513 994 q 375 1089 408 1065 q 238 994 342 1065 l 228 994 l 211 1029 z "},"ế":{"ha":589,"x_min":136,"x_max":546,"o":"m 528 0 l 136 0 l 139 208 l 136 688 l 528 688 l 533 679 l 526 626 l 356 631 l 206 631 l 204 383 l 346 382 l 468 385 l 472 376 l 467 322 l 340 325 l 203 324 l 203 214 l 204 57 l 346 57 l 529 60 l 536 53 l 528 0 m 546 1050 l 442 928 l 432 928 l 404 951 l 501 1079 l 510 1079 l 546 1060 l 546 1050 m 169 828 q 319 943 229 868 l 346 943 q 497 828 447 863 l 481 793 l 471 793 q 333 888 367 864 q 196 793 300 864 l 186 793 l 169 828 z "},"Ề":{"ha":651,"x_min":140,"x_max":615,"o":"m 608 0 l 140 0 l 144 269 l 140 888 l 607 888 l 613 879 l 604 822 l 397 825 l 214 824 l 211 489 l 385 488 l 533 489 l 539 482 l 532 425 l 211 426 l 210 274 l 213 63 l 392 61 l 610 65 l 615 57 l 608 0 m 549 1153 l 521 1129 l 511 1129 l 407 1251 l 407 1261 l 443 1281 l 451 1281 l 549 1153 m 211 1029 q 361 1144 271 1069 l 388 1144 q 539 1029 489 1064 l 522 994 l 513 994 q 375 1089 408 1065 q 238 994 342 1065 l 228 994 l 211 1029 z "},"ề":{"ha":589,"x_min":136,"x_max":536,"o":"m 528 0 l 136 0 l 139 208 l 136 688 l 528 688 l 533 679 l 526 626 l 356 631 l 206 631 l 204 383 l 346 382 l 468 385 l 472 376 l 467 322 l 340 325 l 203 324 l 203 214 l 204 57 l 346 57 l 529 60 l 536 53 l 528 0 m 507 951 l 479 928 l 469 928 l 365 1050 l 365 1060 l 401 1079 l 410 1079 l 507 951 m 169 828 q 319 943 229 868 l 346 943 q 497 828 447 863 l 481 793 l 471 793 q 333 888 367 864 q 196 793 300 864 l 186 793 l 169 828 z "},"Ể":{"ha":651,"x_min":140,"x_max":615,"o":"m 492 1283 q 418 1253 453 1283 l 401 1279 q 501 1326 451 1326 q 552 1309 532 1326 q 572 1264 572 1292 q 507 1171 572 1222 l 531 1129 l 496 1111 l 460 1175 q 526 1257 526 1222 q 492 1283 526 1283 m 211 1029 q 361 1144 271 1069 l 388 1144 q 539 1029 489 1064 l 522 994 l 513 994 q 375 1089 408 1064 q 238 994 342 1064 l 228 994 l 211 1029 m 608 0 l 140 0 l 144 269 l 140 888 l 607 888 l 613 879 l 604 822 l 397 825 l 214 824 l 211 489 l 385 488 l 532 489 l 539 482 l 531 425 l 211 426 l 210 274 l 213 63 l 392 61 l 610 65 l 615 57 l 608 0 z "},"ể":{"ha":589,"x_min":136,"x_max":536,"o":"m 450 1082 q 376 1051 411 1082 l 360 1078 q 460 1125 410 1125 q 510 1108 490 1125 q 531 1063 531 1090 q 465 969 531 1021 l 489 928 l 454 910 l 418 974 q 485 1056 485 1021 q 450 1082 485 1082 m 169 828 q 319 943 229 868 l 346 943 q 497 828 447 863 l 481 793 l 471 793 q 333 888 367 864 q 196 793 300 864 l 186 793 l 169 828 m 528 0 l 136 0 l 138 208 l 136 688 l 528 688 l 533 679 l 526 626 l 356 631 l 204 631 l 203 383 l 346 382 l 468 385 l 472 376 l 467 322 l 339 325 l 201 324 l 201 214 l 203 57 l 346 57 l 529 60 l 536 53 l 528 0 z "},"Ễ":{"ha":651,"x_min":140,"x_max":615,"o":"m 608 0 l 140 0 l 144 269 l 140 888 l 607 888 l 613 879 l 604 822 l 397 825 l 214 824 l 211 489 l 385 488 l 533 489 l 539 482 l 532 425 l 211 426 l 210 274 l 213 63 l 392 61 l 610 65 l 615 57 l 608 0 m 549 1153 l 521 1129 l 511 1129 l 407 1251 l 407 1261 l 443 1281 l 451 1281 l 549 1153 m 211 1029 q 361 1144 271 1069 l 388 1144 q 539 1029 489 1064 l 522 994 l 513 994 q 375 1089 408 1065 q 238 994 342 1065 l 228 994 l 211 1029 z "},"ễ":{"ha":589,"x_min":136,"x_max":536,"o":"m 142 1001 l 142 1010 l 217 1090 l 228 1093 q 338 1065 254 1090 q 431 1043 415 1043 q 483 1083 446 1043 l 503 1103 l 510 1103 l 533 1078 l 533 1069 l 458 989 l 447 985 q 344 1011 431 986 q 244 1036 261 1036 q 222 1025 235 1036 q 194 999 210 1014 q 174 976 189 992 l 165 976 l 142 1001 m 346 943 q 497 828 447 863 l 481 793 l 471 793 q 333 888 367 864 q 196 793 300 864 l 186 793 l 169 828 q 319 943 229 868 l 346 943 m 528 0 l 136 0 l 138 208 l 136 688 l 528 688 l 533 679 l 526 626 l 356 631 l 204 631 l 203 383 l 346 382 l 468 385 l 472 376 l 467 322 l 339 325 l 201 324 l 201 214 l 203 57 l 346 57 l 529 60 l 536 53 l 528 0 z "},"Ệ":{"ha":651,"x_min":140,"x_max":615,"o":"m 213 1057 q 363 1172 272 1097 l 389 1172 q 540 1057 490 1092 l 524 1022 l 514 1022 q 376 1117 410 1092 q 239 1022 343 1093 l 229 1022 l 213 1057 m 608 0 l 140 0 l 144 269 l 140 888 l 607 888 l 613 879 l 604 822 l 397 825 l 214 824 l 211 489 l 385 488 l 532 489 l 539 482 l 531 425 l 211 426 l 210 274 l 213 63 l 392 61 l 610 65 l 615 57 l 608 0 m 381 -108 q 426 -156 426 -108 q 414 -190 426 -178 q 379 -203 401 -203 q 333 -157 333 -203 q 346 -122 333 -135 q 381 -108 358 -108 z "},"ệ":{"ha":589,"x_min":136,"x_max":536,"o":"m 164 810 q 319 990 235 885 l 349 990 q 504 810 438 879 l 482 778 l 472 778 q 333 931 394 858 q 196 778 264 847 l 186 778 l 164 810 m 528 0 l 136 0 l 138 208 l 136 688 l 528 688 l 533 679 l 526 626 l 356 631 l 204 631 l 203 383 l 346 382 l 468 385 l 472 376 l 467 322 l 339 325 l 201 324 l 201 214 l 203 57 l 346 57 l 529 60 l 536 53 l 528 0 m 336 -108 q 382 -156 382 -108 q 369 -190 382 -178 q 335 -203 357 -203 q 289 -157 289 -203 q 301 -122 289 -135 q 336 -108 314 -108 z "},"Ỉ":{"ha":354,"x_min":71,"x_max":250,"o":"m 213 0 l 140 0 l 144 269 l 140 888 l 214 888 l 210 274 l 213 0 m 175 1221 q 228 1201 207 1221 q 250 1154 250 1182 q 181 1057 250 1110 l 206 1013 l 169 994 l 132 1061 q 201 1147 201 1111 q 165 1175 201 1175 q 88 1143 126 1175 l 71 1171 q 175 1221 121 1221 z "},"ỉ":{"ha":346,"x_min":68,"x_max":247,"o":"m 204 0 l 136 0 l 139 208 l 136 688 l 206 688 l 203 214 l 204 0 m 172 1021 q 226 1001 204 1021 q 247 954 247 982 q 178 857 247 910 l 203 813 l 167 794 l 129 861 q 199 947 199 911 q 163 975 199 975 q 85 943 124 975 l 68 971 q 172 1021 118 1021 z "},"Ị":{"ha":354,"x_min":122,"x_max":215,"o":"m 213 0 l 140 0 l 144 269 l 140 888 l 214 888 l 210 274 l 213 0 m 169 -108 q 215 -156 215 -108 q 203 -190 215 -178 q 168 -203 190 -203 q 122 -157 122 -203 q 135 -122 122 -135 q 169 -108 147 -108 z "},"ị":{"ha":346,"x_min":124,"x_max":217,"o":"m 204 0 l 136 0 l 138 208 l 136 688 l 204 688 l 201 214 l 204 0 m 171 -108 q 217 -156 217 -108 q 204 -190 217 -178 q 169 -203 192 -203 q 124 -157 124 -203 q 136 -122 124 -135 q 171 -108 149 -108 z "},"Ọ":{"ha":876,"x_min":60,"x_max":818,"o":"m 449 896 q 722 783 626 896 q 818 460 818 669 q 717 113 818 233 q 429 -8 617 -8 q 156 108 251 -8 q 60 439 60 224 q 160 777 60 658 q 449 896 261 896 m 442 833 q 210 735 289 833 q 132 446 132 636 q 208 153 132 253 q 432 53 285 53 q 664 153 585 53 q 743 450 743 254 q 667 736 743 639 q 442 833 590 833 m 436 -108 q 482 -156 482 -108 q 469 -190 482 -178 q 435 -203 457 -203 q 389 -157 389 -203 q 401 -122 389 -135 q 436 -108 414 -108 z "},"ọ":{"ha":771,"x_min":71,"x_max":700,"o":"m 394 694 q 621 606 542 694 q 700 357 700 518 q 616 88 700 182 q 376 -7 532 -7 q 150 83 229 -7 q 71 339 71 174 q 155 602 71 510 q 394 694 239 694 m 388 635 q 142 347 142 635 q 381 51 142 51 q 631 346 631 51 q 388 635 631 635 m 388 -108 q 433 -156 433 -108 q 421 -190 433 -178 q 386 -203 408 -203 q 340 -157 340 -203 q 353 -122 340 -135 q 388 -108 365 -108 z "},"Ỏ":{"ha":876,"x_min":60,"x_max":818,"o":"m 447 896 q 722 783 626 896 q 818 460 818 669 q 717 113 818 235 q 429 -8 615 -8 q 156 108 251 -8 q 60 439 60 224 q 160 777 60 658 q 447 896 261 896 m 442 833 q 210 735 289 833 q 132 446 132 636 q 208 153 132 253 q 433 53 285 53 q 665 154 585 53 q 744 450 744 256 q 667 736 744 639 q 442 833 590 833 m 438 1221 q 491 1201 469 1221 q 513 1154 513 1182 q 443 1057 513 1110 l 468 1013 l 432 994 l 394 1061 q 464 1147 464 1111 q 428 1175 464 1175 q 350 1143 389 1175 l 333 1171 q 438 1221 383 1221 z "},"ỏ":{"ha":771,"x_min":71,"x_max":700,"o":"m 394 694 q 621 606 542 694 q 700 357 700 518 q 616 88 700 182 q 378 -7 532 -7 q 151 83 231 -7 q 71 339 71 174 q 155 602 71 510 q 394 694 239 694 m 389 635 q 142 347 142 635 q 381 51 142 51 q 631 346 631 51 q 389 635 631 635 m 385 1021 q 438 1001 417 1021 q 460 954 460 982 q 390 857 460 910 l 415 813 l 379 794 l 342 861 q 411 947 411 911 q 375 975 411 975 q 297 943 336 975 l 281 971 q 385 1021 331 1021 z "},"Ố":{"ha":876,"x_min":60,"x_max":818,"o":"m 447 896 q 722 783 626 896 q 818 460 818 669 q 717 113 818 235 q 429 -8 615 -8 q 156 108 251 -8 q 60 439 60 224 q 160 777 60 658 q 447 896 261 896 m 442 833 q 210 735 289 833 q 132 446 132 636 q 208 153 132 253 q 433 53 285 53 q 665 154 585 53 q 744 450 744 256 q 667 736 744 639 q 442 833 590 833 m 651 1251 l 547 1129 l 538 1129 l 510 1153 l 607 1281 l 615 1281 l 651 1261 l 651 1251 m 275 1029 q 425 1144 335 1069 l 451 1144 q 603 1029 553 1064 l 586 994 l 576 994 q 439 1089 472 1065 q 301 994 406 1065 l 292 994 l 275 1029 z "},"ố":{"ha":771,"x_min":71,"x_max":700,"o":"m 394 694 q 621 606 542 694 q 700 357 700 518 q 616 88 700 182 q 378 -7 532 -7 q 151 83 231 -7 q 71 339 71 174 q 155 602 71 510 q 394 694 239 694 m 389 635 q 142 347 142 635 q 381 51 142 51 q 631 346 631 51 q 389 635 631 635 m 600 1050 l 496 928 l 486 928 l 458 951 l 556 1079 l 564 1079 l 600 1060 l 600 1050 m 224 828 q 374 943 283 868 l 400 943 q 551 828 501 863 l 535 793 l 525 793 q 388 888 421 864 q 250 793 354 864 l 240 793 l 224 828 z "},"Ồ":{"ha":876,"x_min":60,"x_max":818,"o":"m 447 896 q 722 783 626 896 q 818 460 818 669 q 717 113 818 235 q 429 -8 615 -8 q 156 108 251 -8 q 60 439 60 224 q 160 777 60 658 q 447 896 261 896 m 442 833 q 210 735 289 833 q 132 446 132 636 q 208 153 132 253 q 433 53 285 53 q 665 154 585 53 q 744 450 744 256 q 667 736 744 639 q 442 833 590 833 m 613 1153 l 585 1129 l 575 1129 l 471 1251 l 471 1261 l 507 1281 l 515 1281 l 613 1153 m 275 1029 q 425 1144 335 1069 l 451 1144 q 603 1029 553 1064 l 586 994 l 576 994 q 439 1089 472 1065 q 301 994 406 1065 l 292 994 l 275 1029 z "},"ồ":{"ha":771,"x_min":71,"x_max":700,"o":"m 394 694 q 621 606 542 694 q 700 357 700 518 q 616 88 700 182 q 378 -7 532 -7 q 151 83 231 -7 q 71 339 71 174 q 155 602 71 510 q 394 694 239 694 m 389 635 q 142 347 142 635 q 381 51 142 51 q 631 346 631 51 q 389 635 631 635 m 561 951 l 533 928 l 524 928 l 419 1050 l 419 1060 l 456 1079 l 464 1079 l 561 951 m 224 828 q 374 943 283 868 l 400 943 q 551 828 501 863 l 535 793 l 525 793 q 388 888 421 864 q 250 793 354 864 l 240 793 l 224 828 z "},"Ổ":{"ha":876,"x_min":60,"x_max":818,"o":"m 447 896 q 722 783 626 896 q 818 460 818 669 q 717 113 818 235 q 429 -8 615 -8 q 156 108 251 -8 q 60 439 60 224 q 160 777 60 658 q 447 896 261 896 m 442 833 q 210 735 289 833 q 132 446 132 636 q 208 153 132 253 q 433 53 285 53 q 665 154 585 53 q 744 450 744 256 q 667 736 744 639 q 442 833 590 833 m 550 1308 q 600 1289 580 1308 q 621 1244 621 1271 q 555 1152 621 1202 l 579 1109 l 544 1092 l 509 1156 q 575 1238 575 1203 q 540 1264 575 1264 q 466 1234 503 1264 l 450 1260 q 550 1308 498 1308 z "},"ổ":{"ha":771,"x_min":71,"x_max":700,"o":"m 514 1125 q 565 1108 544 1125 q 585 1063 585 1090 q 519 969 585 1021 l 543 928 l 508 910 l 472 974 q 539 1056 539 1021 q 504 1082 539 1082 q 431 1051 465 1082 l 414 1078 q 514 1125 464 1125 m 224 828 q 374 943 283 868 l 400 943 q 551 828 501 863 l 535 793 l 525 793 q 388 888 421 863 q 250 793 354 864 l 240 793 l 224 828 m 394 694 q 621 606 542 694 q 700 357 700 518 q 616 88 700 182 q 376 -7 532 -7 q 150 83 229 -7 q 71 339 71 174 q 155 602 71 510 q 394 694 239 694 m 388 635 q 142 347 142 635 q 381 51 142 51 q 631 346 631 51 q 388 635 631 635 z "},"Ỗ":{"ha":876,"x_min":60,"x_max":818,"o":"m 447 896 q 722 783 626 896 q 818 460 818 669 q 717 113 818 235 q 429 -8 615 -8 q 156 108 251 -8 q 60 439 60 224 q 160 777 60 658 q 447 896 261 896 m 442 833 q 210 735 289 833 q 132 446 132 636 q 208 153 132 253 q 433 53 285 53 q 665 154 585 53 q 744 450 744 256 q 667 736 744 639 q 442 833 590 833 m 629 1264 l 554 1183 l 544 1179 q 439 1207 516 1182 q 339 1231 355 1231 q 297 1200 327 1231 l 268 1171 l 260 1171 l 238 1196 l 238 1204 l 313 1284 l 323 1287 q 434 1260 354 1284 q 527 1237 508 1237 q 574 1271 541 1237 q 599 1297 574 1271 l 606 1297 l 629 1272 l 629 1264 z "},"ỗ":{"ha":771,"x_min":71,"x_max":700,"o":"m 588 1069 l 513 989 l 501 985 q 399 1011 485 986 q 299 1036 315 1036 q 276 1025 289 1036 q 249 999 264 1014 q 228 976 243 992 l 219 976 l 196 1001 l 196 1010 l 271 1090 l 282 1093 q 392 1065 308 1090 q 485 1043 469 1043 q 538 1083 500 1043 l 557 1103 l 564 1103 l 588 1078 l 588 1069 m 224 828 q 374 943 283 868 l 400 943 q 551 828 501 863 l 535 793 l 525 793 q 388 888 421 863 q 250 793 354 864 l 240 793 l 224 828 m 394 694 q 621 606 542 694 q 700 357 700 518 q 616 88 700 182 q 376 -7 532 -7 q 150 83 229 -7 q 71 339 71 174 q 155 602 71 510 q 394 694 239 694 m 388 635 q 142 347 142 635 q 381 51 142 51 q 631 346 631 51 q 388 635 631 635 z "},"Ộ":{"ha":876,"x_min":60,"x_max":818,"o":"m 293 1044 q 443 1160 353 1085 l 469 1160 q 621 1044 571 1079 l 604 1010 l 594 1010 q 457 1104 490 1079 q 319 1010 424 1079 l 310 1010 l 293 1044 m 449 896 q 722 783 626 896 q 818 460 818 669 q 717 113 818 233 q 429 -8 617 -8 q 156 108 251 -8 q 60 439 60 224 q 160 777 60 658 q 449 896 261 896 m 442 833 q 210 735 289 833 q 132 446 132 636 q 208 153 132 253 q 432 53 285 53 q 664 153 585 53 q 743 450 743 254 q 667 736 743 639 q 442 833 590 833 m 436 -108 q 482 -156 482 -108 q 469 -190 482 -178 q 435 -203 457 -203 q 389 -157 389 -203 q 401 -122 389 -135 q 436 -108 414 -108 z "},"ộ":{"ha":771,"x_min":71,"x_max":700,"o":"m 218 810 q 374 990 289 885 l 403 990 q 558 810 492 879 l 536 778 l 526 778 q 388 931 449 858 q 250 778 318 847 l 240 778 l 218 810 m 394 694 q 621 606 542 694 q 700 357 700 518 q 616 88 700 182 q 376 -7 532 -7 q 150 83 229 -7 q 71 339 71 174 q 155 602 71 510 q 394 694 239 694 m 388 635 q 142 347 142 635 q 381 51 142 51 q 631 346 631 51 q 388 635 631 635 m 388 -108 q 433 -156 433 -108 q 421 -190 433 -178 q 386 -203 408 -203 q 340 -157 340 -203 q 353 -122 340 -135 q 388 -108 365 -108 z "},"Ớ":{"ha":882,"x_min":60,"x_max":854,"o":"m 789 1054 q 833 1020 811 1054 q 854 940 854 986 q 809 841 854 876 q 693 806 764 806 q 818 454 818 693 q 717 113 818 235 q 431 -8 615 -8 q 156 108 251 -8 q 60 439 60 224 q 160 777 60 658 q 446 896 260 896 q 608 864 526 896 q 688 846 660 846 q 763 869 732 846 q 794 933 794 893 q 749 1031 794 985 l 751 1039 q 789 1054 774 1054 m 442 833 q 210 735 289 833 q 132 446 132 636 q 208 153 132 253 q 433 53 285 53 q 665 153 585 53 q 744 447 744 254 q 442 833 744 833 m 622 1138 l 619 1128 q 363 1004 501 1067 l 351 1008 l 336 1044 q 593 1182 488 1118 l 603 1179 l 622 1138 z "},"ớ":{"ha":776,"x_min":71,"x_max":733,"o":"m 642 804 q 675 818 663 818 q 714 790 694 818 q 733 725 733 763 q 698 647 733 676 q 604 614 663 618 q 700 351 700 526 q 616 88 700 182 q 379 -7 532 -7 q 151 83 232 -7 q 71 339 71 174 q 155 602 71 510 q 394 694 239 694 q 529 672 456 694 q 593 658 567 658 q 653 675 629 658 q 678 722 678 692 q 639 797 678 761 l 642 804 m 383 47 q 567 123 504 47 q 631 347 631 199 q 388 636 631 636 q 142 342 142 636 q 383 47 142 47 m 568 936 l 565 926 q 308 803 447 865 l 297 807 l 282 843 q 539 981 433 917 l 549 978 l 568 936 z "},"Ờ":{"ha":882,"x_min":60,"x_max":854,"o":"m 789 1054 q 833 1020 811 1054 q 854 940 854 986 q 809 841 854 876 q 693 806 764 806 q 818 454 818 693 q 717 113 818 235 q 431 -8 615 -8 q 156 108 251 -8 q 60 439 60 224 q 160 777 60 658 q 446 896 260 896 q 608 864 526 896 q 688 846 660 846 q 763 869 732 846 q 794 933 794 893 q 749 1031 794 985 l 751 1039 q 789 1054 774 1054 m 442 833 q 210 735 289 833 q 132 446 132 636 q 208 153 132 253 q 433 53 285 53 q 665 153 585 53 q 744 447 744 254 q 442 833 744 833 m 297 1140 l 300 1131 q 557 1007 418 1069 l 568 1011 l 583 1047 q 326 1185 432 1121 l 317 1182 l 297 1140 z "},"ờ":{"ha":776,"x_min":71,"x_max":733,"o":"m 271 983 q 528 846 376 919 l 513 810 l 501 806 q 244 929 363 868 l 242 939 l 261 981 l 271 983 m 640 804 q 675 818 661 818 q 714 790 694 818 q 733 725 733 763 q 698 647 733 676 q 604 614 663 618 q 700 351 700 526 q 616 88 700 182 q 379 -7 532 -7 q 151 83 231 -7 q 71 339 71 172 q 155 602 71 510 q 394 694 239 694 q 528 672 454 694 q 593 658 567 658 q 653 675 629 658 q 676 722 676 692 q 639 797 676 760 l 640 804 m 383 47 q 567 123 504 47 q 631 347 631 199 q 386 636 631 636 q 142 342 142 636 q 383 47 142 47 z "},"Ở":{"ha":882,"x_min":60,"x_max":854,"o":"m 789 1054 q 833 1020 811 1054 q 854 940 854 986 q 809 841 854 876 q 693 806 764 806 q 818 454 818 693 q 717 113 818 235 q 431 -8 615 -8 q 156 108 251 -8 q 60 439 60 224 q 160 777 60 658 q 446 896 260 896 q 608 864 526 896 q 688 846 660 846 q 763 869 732 846 q 794 933 794 893 q 749 1031 794 985 l 751 1039 q 789 1054 774 1054 m 442 833 q 210 735 289 833 q 132 446 132 636 q 208 153 132 253 q 433 53 285 53 q 665 153 585 53 q 744 447 744 254 q 442 833 744 833 m 438 1221 q 491 1201 469 1221 q 513 1154 513 1182 q 443 1057 513 1110 l 468 1013 l 432 994 l 394 1061 q 464 1147 464 1111 q 428 1175 464 1175 q 350 1143 389 1175 l 333 1171 q 438 1221 383 1221 z "},"ở":{"ha":776,"x_min":71,"x_max":733,"o":"m 642 804 q 675 818 663 818 q 714 790 694 818 q 733 725 733 763 q 698 647 733 676 q 604 614 663 618 q 700 351 700 526 q 616 88 700 182 q 379 -7 532 -7 q 151 83 232 -7 q 71 339 71 174 q 155 602 71 510 q 394 694 239 694 q 529 672 456 694 q 593 658 567 658 q 653 675 629 658 q 678 722 678 692 q 639 797 678 761 l 642 804 m 383 47 q 567 123 504 47 q 631 347 631 199 q 388 636 631 636 q 142 342 142 636 q 383 47 142 47 m 382 1021 q 435 1001 414 1021 q 457 954 457 982 q 388 857 457 910 l 413 813 l 376 794 l 339 861 q 408 947 408 911 q 372 975 408 975 q 294 943 333 975 l 278 971 q 382 1021 328 1021 z "},"Ỡ":{"ha":882,"x_min":60,"x_max":854,"o":"m 789 1054 q 833 1020 811 1054 q 854 940 854 986 q 809 841 854 876 q 693 806 764 806 q 818 454 818 693 q 717 113 818 235 q 431 -8 615 -8 q 156 108 251 -8 q 60 439 60 224 q 160 777 60 658 q 446 896 260 896 q 608 864 526 896 q 688 846 660 846 q 763 869 732 846 q 794 933 794 893 q 749 1031 794 985 l 751 1039 q 789 1054 774 1054 m 442 833 q 210 735 289 833 q 132 446 132 636 q 208 153 132 253 q 433 53 285 53 q 665 153 585 53 q 744 447 744 254 q 442 833 744 833 m 646 1125 l 567 1043 l 556 1039 q 444 1067 526 1042 q 339 1092 356 1092 q 294 1060 326 1092 l 264 1031 l 256 1031 l 232 1056 l 232 1064 l 311 1146 l 322 1149 q 439 1121 354 1146 q 538 1097 518 1097 q 588 1132 553 1097 q 614 1158 588 1132 l 621 1158 l 646 1133 l 646 1125 z "},"ỡ":{"ha":776,"x_min":71,"x_max":733,"o":"m 642 804 q 675 818 663 818 q 714 790 694 818 q 733 725 733 763 q 698 647 733 676 q 604 614 663 618 q 700 351 700 526 q 616 88 700 182 q 379 -7 532 -7 q 151 83 232 -7 q 71 339 71 174 q 155 602 71 510 q 394 694 239 694 q 529 672 456 694 q 593 658 567 658 q 653 675 629 658 q 678 722 678 692 q 639 797 678 761 l 642 804 m 383 47 q 567 123 504 47 q 631 347 631 199 q 388 636 631 636 q 142 342 142 636 q 383 47 142 47 m 592 924 l 513 842 l 501 838 q 390 865 472 840 q 285 890 301 890 q 240 858 272 890 l 210 829 l 201 829 l 178 854 l 178 863 l 257 944 l 268 947 q 385 919 300 944 q 483 896 464 896 q 533 931 499 896 q 560 957 533 931 l 567 957 l 592 932 l 592 924 z "},"Ợ":{"ha":882,"x_min":60,"x_max":856,"o":"m 789 1054 q 818 1039 803 1054 q 844 997 833 1024 q 856 940 856 971 q 810 841 856 876 q 693 806 764 806 q 818 454 818 693 q 717 113 818 235 q 431 -8 617 -8 q 156 108 251 -8 q 60 439 60 224 q 160 777 60 658 q 447 896 261 896 q 608 865 522 896 q 688 846 657 846 q 764 869 732 846 q 796 933 796 893 q 749 1031 796 983 l 751 1039 q 789 1054 774 1054 m 440 833 q 210 735 289 833 q 132 446 132 636 q 208 153 132 253 q 433 53 285 53 q 664 153 585 53 q 743 447 743 254 q 440 833 743 833 m 436 -108 q 482 -156 482 -108 q 469 -190 482 -178 q 435 -203 457 -203 q 389 -157 389 -203 q 401 -122 389 -135 q 436 -108 414 -108 z "},"ợ":{"ha":776,"x_min":71,"x_max":733,"o":"m 640 804 q 675 818 661 818 q 714 790 694 818 q 733 725 733 763 q 698 647 733 676 q 604 614 663 618 q 700 351 700 526 q 616 88 700 182 q 379 -7 532 -7 q 151 83 231 -7 q 71 339 71 172 q 155 602 71 510 q 394 694 239 694 q 528 672 454 694 q 593 658 567 658 q 653 675 629 658 q 676 722 676 692 q 639 797 676 760 l 640 804 m 383 47 q 567 123 504 47 q 631 347 631 199 q 386 636 631 636 q 142 342 142 636 q 383 47 142 47 m 388 -108 q 433 -156 433 -108 q 421 -190 433 -178 q 386 -203 408 -203 q 340 -157 340 -203 q 353 -122 340 -135 q 388 -108 365 -108 z "},"Ụ":{"ha":860,"x_min":111,"x_max":751,"o":"m 749 328 q 668 81 753 168 q 426 -7 583 -7 q 191 78 272 -7 q 111 322 110 163 l 113 447 l 111 888 l 183 888 l 181 329 q 243 126 179 196 q 431 57 307 57 q 618 124 554 57 q 682 322 682 192 l 679 888 l 751 888 l 750 435 l 749 328 m 428 -108 q 474 -156 474 -108 q 461 -190 474 -178 q 426 -203 449 -203 q 381 -157 381 -203 q 393 -122 381 -135 q 428 -108 406 -108 z "},"ụ":{"ha":757,"x_min":114,"x_max":647,"o":"m 644 243 q 577 60 647 125 q 378 -6 507 -6 q 181 59 249 -6 q 114 243 113 124 l 115 344 l 115 688 l 183 688 l 179 251 q 229 103 178 154 q 379 53 281 53 q 529 103 478 53 q 581 251 581 154 l 578 688 l 647 688 l 644 336 l 644 243 m 379 -108 q 425 -156 425 -108 q 413 -190 425 -178 q 378 -203 400 -203 q 332 -157 332 -203 q 344 -122 332 -135 q 379 -108 357 -108 z "},"Ủ":{"ha":860,"x_min":113,"x_max":751,"o":"m 750 328 q 668 81 753 168 q 426 -7 583 -7 q 192 78 274 -7 q 113 322 111 163 l 113 888 l 183 888 l 181 329 q 243 126 179 196 q 431 57 307 57 q 619 125 554 57 q 682 322 683 193 l 679 888 l 751 888 l 750 435 l 750 328 m 432 1221 q 485 1201 464 1221 q 507 1154 507 1182 q 438 1057 507 1110 l 463 1013 l 426 994 l 389 1061 q 458 1147 458 1111 q 422 1175 458 1175 q 344 1143 383 1175 l 328 1171 q 432 1221 378 1221 z "},"ủ":{"ha":757,"x_min":114,"x_max":647,"o":"m 644 243 q 576 60 647 125 q 376 -6 506 -6 q 181 59 249 -6 q 114 243 113 124 l 115 344 l 114 688 l 183 688 l 179 251 q 229 103 178 154 q 379 53 281 53 q 529 103 478 53 q 581 251 581 154 l 578 688 l 647 688 l 644 336 l 644 243 m 381 1021 q 434 1001 413 1021 q 456 954 456 982 q 386 857 456 910 l 411 813 l 375 794 l 338 861 q 407 947 407 911 q 371 975 407 975 q 293 943 332 975 l 276 971 q 381 1021 326 1021 z "},"Ứ":{"ha":874,"x_min":111,"x_max":867,"o":"m 867 964 q 835 887 867 918 q 751 846 804 856 l 750 435 l 749 328 q 668 81 753 168 q 426 -7 583 -7 q 191 78 272 -7 q 111 322 110 163 l 113 447 l 111 888 l 183 888 l 181 329 q 243 126 179 196 q 431 57 307 57 q 618 124 554 57 q 682 322 682 192 l 679 888 l 714 888 q 783 906 758 888 q 807 960 807 925 q 761 1043 807 1001 l 764 1053 q 800 1068 786 1068 q 828 1053 813 1068 q 856 1015 844 1039 q 867 964 867 992 m 618 1138 l 615 1128 q 358 1004 497 1067 l 347 1008 l 332 1044 q 589 1182 483 1118 l 599 1179 l 618 1138 z "},"ứ":{"ha":769,"x_min":113,"x_max":742,"o":"m 643 243 q 576 60 646 125 q 376 -6 506 -6 q 179 59 247 -6 q 113 243 111 124 l 114 344 l 113 688 l 182 688 l 178 251 q 228 103 176 154 q 378 53 279 53 q 528 103 476 53 q 579 251 579 154 l 576 688 l 611 688 q 666 702 646 688 q 686 742 686 717 q 649 807 686 775 l 651 815 q 686 829 672 829 q 723 804 704 829 q 742 747 742 779 q 716 684 742 710 q 646 650 690 658 l 643 336 l 643 243 m 553 938 l 550 928 q 293 804 432 867 l 282 808 l 267 844 q 524 982 418 918 l 533 979 l 553 938 z "},"Ừ":{"ha":874,"x_min":111,"x_max":867,"o":"m 553 1007 q 296 1131 414 1069 l 293 1140 l 313 1182 l 322 1185 q 579 1047 428 1121 l 564 1011 l 553 1007 m 867 964 q 835 887 867 918 q 751 846 804 856 l 750 435 l 749 328 q 668 81 753 168 q 426 -7 583 -7 q 191 78 272 -7 q 111 322 110 163 l 113 447 l 111 888 l 183 888 l 181 329 q 243 126 179 196 q 431 57 307 57 q 618 124 554 57 q 682 322 682 192 l 679 888 l 714 888 q 783 906 758 888 q 807 960 807 925 q 761 1043 807 1001 l 764 1053 q 800 1068 786 1068 q 828 1053 813 1068 q 856 1015 844 1039 q 867 964 867 992 z "},"ừ":{"ha":769,"x_min":113,"x_max":742,"o":"m 488 807 q 231 931 349 869 l 228 940 l 247 982 l 257 985 q 514 847 363 921 l 499 811 l 488 807 m 643 243 q 576 60 646 125 q 376 -6 506 -6 q 179 59 247 -6 q 113 243 111 124 l 114 344 l 113 688 l 182 688 l 178 251 q 228 103 176 154 q 378 53 279 53 q 528 103 476 53 q 579 251 579 154 l 576 688 l 611 688 q 666 702 646 688 q 686 742 686 717 q 649 807 686 775 l 651 815 q 686 829 672 829 q 723 804 704 829 q 742 747 742 779 q 716 684 742 710 q 646 650 690 658 l 643 336 l 643 243 z "},"Ử":{"ha":874,"x_min":111,"x_max":867,"o":"m 867 964 q 835 887 867 918 q 751 846 804 856 l 750 435 l 749 328 q 668 81 753 168 q 426 -7 583 -7 q 191 78 272 -7 q 111 322 110 163 l 113 447 l 111 888 l 183 888 l 181 329 q 243 126 179 196 q 431 57 307 57 q 618 124 554 57 q 682 322 682 192 l 679 888 l 714 888 q 783 906 758 888 q 807 960 807 925 q 761 1043 807 1001 l 764 1053 q 800 1068 786 1068 q 828 1053 813 1068 q 856 1015 844 1039 q 867 964 867 992 m 433 1221 q 487 1201 465 1221 q 508 1154 508 1182 q 439 1057 508 1110 l 464 1013 l 428 994 l 390 1061 q 460 1147 460 1111 q 424 1175 460 1175 q 346 1143 385 1175 l 329 1171 q 433 1221 379 1221 z "},"ử":{"ha":769,"x_min":113,"x_max":742,"o":"m 643 243 q 576 60 646 125 q 376 -6 506 -6 q 179 59 247 -6 q 113 243 111 124 l 114 344 l 113 688 l 182 688 l 178 251 q 228 103 176 154 q 378 53 279 53 q 528 103 476 53 q 579 251 579 154 l 576 688 l 611 688 q 666 702 646 688 q 686 742 686 717 q 649 807 686 775 l 651 815 q 686 829 672 829 q 723 804 704 829 q 742 747 742 779 q 716 684 742 710 q 646 650 690 658 l 643 336 l 643 243 m 368 1021 q 422 1001 400 1021 q 443 954 443 982 q 374 857 443 910 l 399 813 l 363 794 l 325 861 q 394 947 394 911 q 358 975 394 975 q 281 943 319 975 l 264 971 q 368 1021 314 1021 z "},"Ữ":{"ha":874,"x_min":111,"x_max":867,"o":"m 867 964 q 835 887 867 918 q 751 846 804 856 l 750 435 l 749 328 q 668 81 753 168 q 426 -7 583 -7 q 191 78 272 -7 q 111 322 110 163 l 113 447 l 111 888 l 183 888 l 181 329 q 243 126 179 196 q 431 57 307 57 q 618 124 554 57 q 682 322 682 192 l 679 888 l 714 888 q 783 906 758 888 q 807 960 807 925 q 761 1043 807 1001 l 764 1053 q 800 1068 786 1068 q 828 1053 813 1068 q 856 1015 844 1039 q 867 964 867 992 m 642 1125 l 563 1043 l 551 1039 q 440 1067 522 1042 q 335 1092 351 1092 q 290 1060 322 1092 l 260 1031 l 251 1031 l 228 1056 l 228 1064 l 307 1146 l 318 1149 q 435 1121 350 1146 q 533 1097 514 1097 q 583 1132 549 1097 q 610 1158 583 1132 l 617 1158 l 642 1133 l 642 1125 z "},"ữ":{"ha":769,"x_min":113,"x_max":742,"o":"m 643 243 q 576 60 646 125 q 376 -6 506 -6 q 179 59 247 -6 q 113 243 111 124 l 114 344 l 113 688 l 182 688 l 178 251 q 228 103 176 154 q 378 53 279 53 q 528 103 476 53 q 579 251 579 154 l 576 688 l 611 688 q 666 702 646 688 q 686 742 686 717 q 649 807 686 775 l 651 815 q 686 829 672 829 q 723 804 704 829 q 742 747 742 779 q 716 684 742 710 q 646 650 690 658 l 643 336 l 643 243 m 576 925 l 497 843 l 486 839 q 375 867 457 842 q 269 892 286 892 q 225 860 257 892 l 194 831 l 186 831 l 163 856 l 163 864 l 242 946 l 253 949 q 369 921 285 946 q 468 897 449 897 q 518 932 483 897 q 544 958 518 932 l 551 958 l 576 933 l 576 925 z "},"Ự":{"ha":874,"x_min":111,"x_max":867,"o":"m 867 964 q 835 887 867 918 q 751 846 804 856 l 750 435 l 749 328 q 668 81 753 168 q 426 -7 583 -7 q 191 78 272 -7 q 111 322 110 163 l 113 447 l 111 888 l 183 888 l 181 329 q 243 126 179 196 q 431 57 307 57 q 618 124 554 57 q 682 322 682 192 l 679 888 l 714 888 q 783 906 758 888 q 807 960 807 925 q 761 1043 807 1001 l 764 1053 q 800 1068 786 1068 q 828 1053 813 1068 q 856 1015 844 1039 q 867 964 867 992 m 431 -108 q 476 -156 476 -108 q 464 -190 476 -178 q 429 -203 451 -203 q 383 -157 383 -203 q 396 -122 383 -135 q 431 -108 408 -108 z "},"ự":{"ha":769,"x_min":113,"x_max":742,"o":"m 643 243 q 576 60 646 125 q 376 -6 506 -6 q 179 59 247 -6 q 113 243 111 124 l 114 344 l 113 688 l 182 688 l 178 251 q 228 103 176 154 q 378 53 279 53 q 528 103 476 53 q 579 251 579 154 l 576 688 l 611 688 q 666 702 646 688 q 686 742 686 717 q 649 807 686 775 l 651 815 q 686 829 672 829 q 723 804 704 829 q 742 747 742 779 q 716 684 742 710 q 646 650 690 658 l 643 336 l 643 243 m 382 -108 q 428 -156 428 -108 q 415 -190 428 -178 q 381 -203 403 -203 q 335 -157 335 -203 q 347 -122 335 -135 q 382 -108 360 -108 z "},"Ỳ":{"ha":711,"x_min":28,"x_max":683,"o":"m 464 1007 q 207 1131 325 1069 l 204 1140 l 224 1182 l 233 1185 q 490 1047 339 1121 l 475 1011 l 464 1007 m 379 0 l 307 0 l 311 265 l 310 328 l 28 888 l 108 888 l 125 844 l 340 414 l 350 414 l 586 843 l 603 888 l 683 888 l 378 326 l 376 265 l 379 0 z "},"ỳ":{"ha":640,"x_min":44,"x_max":593,"o":"m 418 774 q 199 956 265 899 l 197 965 l 226 1003 l 235 1004 q 451 808 344 896 l 428 775 l 418 774 m 343 0 l 275 0 l 276 203 l 276 249 l 44 688 l 119 688 l 133 653 l 307 329 l 314 329 l 503 650 l 519 688 l 593 688 l 342 250 l 340 203 l 343 0 z "},"Ỵ":{"ha":711,"x_min":28,"x_max":683,"o":"m 28 888 l 108 888 l 125 844 l 340 414 l 350 414 l 586 843 l 603 888 l 683 888 l 378 326 l 376 265 l 379 0 l 307 0 l 311 265 l 310 328 l 28 888 m 343 -108 q 389 -156 389 -108 q 376 -190 389 -178 q 342 -203 364 -203 q 296 -157 296 -203 q 308 -122 296 -135 q 343 -108 321 -108 z "},"ỵ":{"ha":640,"x_min":44,"x_max":593,"o":"m 44 688 l 119 688 l 133 653 l 307 329 l 314 329 l 503 650 l 519 688 l 593 688 l 342 250 l 340 203 l 343 0 l 275 0 l 276 203 l 276 249 l 44 688 m 308 -108 q 354 -156 354 -108 q 342 -190 354 -178 q 307 -203 329 -203 q 261 -157 261 -203 q 274 -122 261 -135 q 308 -108 286 -108 z "},"Ỷ":{"ha":711,"x_min":28,"x_max":683,"o":"m 379 0 l 307 0 l 311 265 l 310 328 l 28 888 l 108 888 l 125 844 l 342 414 l 350 414 l 586 843 l 604 888 l 683 888 l 378 326 l 376 265 l 379 0 m 344 1221 q 398 1201 376 1221 q 419 1154 419 1182 q 350 1057 419 1110 l 375 1013 l 339 994 l 301 1061 q 371 1147 371 1111 q 335 1175 371 1175 q 257 1143 296 1175 l 240 1171 q 344 1221 290 1221 z "},"ỷ":{"ha":640,"x_min":44,"x_max":594,"o":"m 343 0 l 275 0 l 278 203 l 276 249 l 44 688 l 121 688 l 135 653 l 307 329 l 314 329 l 503 650 l 519 688 l 594 688 l 343 250 l 342 203 l 343 0 m 322 1021 q 376 1001 354 1021 q 397 954 397 982 q 328 857 397 910 l 353 813 l 317 794 l 279 861 q 349 947 349 911 q 313 975 349 975 q 235 943 274 975 l 218 971 q 322 1021 268 1021 z "},"Ỹ":{"ha":711,"x_min":28,"x_max":683,"o":"m 379 0 l 307 0 l 311 265 l 310 328 l 28 888 l 108 888 l 125 844 l 342 414 l 350 414 l 586 843 l 604 888 l 683 888 l 378 326 l 376 265 l 379 0 m 553 1125 l 474 1043 l 463 1039 q 351 1067 433 1042 q 246 1092 263 1092 q 201 1060 233 1092 l 171 1031 l 163 1031 l 139 1056 l 139 1064 l 218 1146 l 229 1149 q 346 1121 261 1146 q 444 1097 425 1097 q 494 1132 460 1097 q 521 1158 494 1132 l 528 1158 l 553 1133 l 553 1125 z "},"ỹ":{"ha":640,"x_min":44,"x_max":594,"o":"m 343 0 l 275 0 l 278 203 l 276 249 l 44 688 l 121 688 l 135 653 l 307 329 l 314 329 l 503 650 l 519 688 l 594 688 l 343 250 l 342 203 l 343 0 m 532 924 l 453 842 l 442 838 q 331 865 413 840 q 225 890 242 890 q 181 858 213 890 l 150 829 l 142 829 l 118 854 l 118 863 l 197 944 l 208 947 q 325 919 240 944 q 424 896 404 896 q 474 931 439 896 q 500 957 474 931 l 507 957 l 532 932 l 532 924 z "},"–":{"ha":674,"x_min":-21,"x_max":694,"o":"m 690 326 l -15 326 l -21 333 l -17 382 l 688 382 l 694 375 l 690 326 z "},"—":{"ha":1318,"x_min":-21,"x_max":1340,"o":"m 1336 326 l -15 326 l -21 333 l -17 382 l 1333 382 l 1340 375 l 1336 326 z "},"‘":{"ha":204,"x_min":44,"x_max":165,"o":"m 117 632 q 44 722 44 654 q 133 888 44 797 l 164 865 l 165 857 q 106 742 106 796 q 158 675 106 693 l 158 667 q 117 632 150 657 z "},"’":{"ha":204,"x_min":43,"x_max":164,"o":"m 92 886 q 164 796 164 864 q 75 631 164 721 l 44 653 l 43 661 q 103 776 103 722 q 50 843 103 825 l 50 851 q 92 886 58 861 z "},"‚":{"ha":319,"x_min":78,"x_max":217,"o":"m 161 92 q 217 10 217 58 q 104 -149 217 -64 l 78 -124 l 78 -117 q 154 -1 154 -60 q 111 56 154 32 l 111 64 q 161 92 133 82 z "},"“":{"ha":347,"x_min":35,"x_max":314,"o":"m 265 633 q 193 724 193 656 q 282 889 193 799 l 313 867 l 314 858 q 254 743 254 797 q 307 676 254 694 l 307 668 q 265 633 299 658 m 107 633 q 35 724 35 656 q 124 889 35 799 l 154 867 l 156 858 q 96 743 96 797 q 149 676 96 694 l 149 668 q 107 633 140 658 z "},"”":{"ha":360,"x_min":39,"x_max":315,"o":"m 243 886 q 315 796 315 864 q 226 631 315 721 l 196 653 l 194 661 q 254 776 254 722 q 201 843 254 825 l 201 851 q 243 886 210 861 m 88 886 q 160 796 160 864 q 71 631 160 721 l 40 653 l 39 661 q 99 776 99 722 q 46 843 99 825 l 46 851 q 88 886 54 861 z "},"„":{"ha":478,"x_min":78,"x_max":374,"o":"m 318 92 q 374 10 374 58 q 261 -149 374 -64 l 235 -124 l 235 -117 q 311 -1 311 -60 q 268 56 311 32 l 268 64 q 318 92 290 82 m 161 92 q 217 10 217 58 q 104 -149 217 -64 l 78 -124 l 78 -117 q 154 -1 154 -60 q 111 56 154 32 l 111 64 q 161 92 133 82 z "},"†":{"ha":656,"x_min":61,"x_max":597,"o":"m 354 500 l 354 397 l 354 -129 l 307 -131 l 300 -124 l 300 500 l 67 500 l 61 507 l 65 554 l 300 554 l 300 814 l 351 818 l 356 814 l 354 554 l 590 554 l 597 547 l 592 500 l 354 500 z "},"‡":{"ha":656,"x_min":61,"x_max":597,"o":"m 597 175 l 592 126 l 354 126 l 354 -129 l 307 -131 l 300 -124 l 300 126 l 67 126 l 61 133 l 65 181 l 300 181 l 300 504 l 67 504 l 61 511 l 65 558 l 300 558 l 300 814 l 351 818 l 356 814 l 354 558 l 590 558 l 597 551 l 592 504 l 354 504 l 354 397 l 354 181 l 590 181 l 597 175 z "},"•":{"ha":339,"x_min":119,"x_max":219,"o":"m 170 400 q 219 352 219 400 q 169 300 219 300 q 120 349 120 300 q 133 386 120 372 q 170 400 147 400 z "},"․":{"ha":319,"x_min":113,"x_max":206,"o":"m 160 90 q 206 44 206 90 q 158 -4 206 -4 q 113 42 113 -4 q 125 77 113 64 q 160 90 138 90 z "},"‥":{"ha":547,"x_min":107,"x_max":426,"o":"m 381 90 q 426 44 426 90 q 379 -4 426 -4 q 333 42 333 -4 q 346 77 333 64 q 381 90 358 90 m 154 90 q 200 44 200 90 q 153 -4 200 -4 q 107 42 107 -4 q 119 77 107 64 q 154 90 132 90 z "},"…":{"ha":774,"x_min":107,"x_max":654,"o":"m 381 90 q 426 44 426 90 q 379 -4 426 -4 q 333 42 333 -4 q 346 77 333 64 q 381 90 358 90 m 608 90 q 654 44 654 90 q 607 -4 654 -4 q 561 42 561 -4 q 574 77 561 64 q 608 90 586 90 m 154 90 q 200 44 200 90 q 153 -4 200 -4 q 107 42 107 -4 q 119 77 107 64 q 154 90 132 90 z "},"‰":{"ha":1642,"x_min":63,"x_max":1579,"o":"m 888 903 l 224 -125 l 192 -108 l 185 -93 l 849 936 l 881 918 l 888 903 m 264 892 q 406 831 357 892 q 456 656 456 769 q 404 472 456 536 q 256 408 353 408 q 113 470 163 408 q 63 647 63 532 q 115 829 63 767 q 264 892 167 892 m 258 838 q 152 790 189 838 q 115 651 115 742 q 261 461 115 461 q 367 509 331 461 q 404 647 404 557 q 367 789 404 740 q 258 838 329 838 m 868 478 q 1011 417 961 478 q 1061 242 1061 356 q 1009 58 1061 122 q 860 -6 957 -6 q 717 56 767 -6 q 667 233 667 118 q 719 415 667 351 q 868 478 771 478 m 1388 478 q 1530 417 1481 478 q 1579 242 1579 356 q 1528 58 1579 122 q 1379 -6 1476 -6 q 1236 56 1286 -6 q 1186 233 1186 118 q 1238 415 1186 353 q 1388 478 1290 478 m 863 424 q 756 376 793 424 q 719 238 719 328 q 757 96 719 144 q 865 47 794 47 q 972 95 935 47 q 1008 233 1008 143 q 863 424 1008 424 m 1382 424 q 1276 376 1313 424 q 1239 238 1239 328 q 1383 47 1239 47 q 1526 233 1526 47 q 1382 424 1526 424 z "},"′":{"ha":204,"x_min":69,"x_max":143,"o":"m 117 649 l 76 643 l 69 650 l 81 879 l 136 885 l 143 876 l 117 649 z "},"″":{"ha":349,"x_min":69,"x_max":288,"o":"m 261 649 l 221 643 l 214 650 l 225 879 l 281 885 l 288 876 l 261 649 m 117 649 l 76 643 l 69 650 l 81 879 l 136 885 l 143 876 l 117 649 z "},"‹":{"ha":308,"x_min":29,"x_max":274,"o":"m 29 319 l 238 557 l 274 535 l 274 524 l 89 311 l 274 99 l 274 88 l 238 65 l 29 300 l 29 319 z "},"›":{"ha":318,"x_min":40,"x_max":285,"o":"m 285 304 l 76 67 l 40 89 l 40 100 l 225 313 l 40 525 l 40 536 l 76 558 l 285 324 l 285 304 z "},"⁄":{"ha":86,"x_min":-333,"x_max":368,"o":"m 368 903 l -296 -125 l -328 -108 l -333 -93 l 331 936 l 363 918 l 368 903 z "},"⁰":{"ha":518,"x_min":63,"x_max":456,"o":"m 264 976 q 406 910 357 976 q 456 718 456 843 q 404 517 456 586 q 256 449 353 449 q 113 516 163 449 q 63 708 63 583 q 115 908 63 839 q 264 976 167 976 m 258 917 q 152 865 189 917 q 115 714 115 813 q 261 506 115 506 q 367 558 331 506 q 404 710 404 611 q 367 864 404 811 q 258 917 329 917 z "},"⁴":{"ha":478,"x_min":39,"x_max":426,"o":"m 421 603 l 339 606 l 332 606 l 336 460 l 332 454 l 281 451 l 276 454 l 278 606 l 103 606 l 44 603 l 39 610 l 39 653 l 274 974 l 333 974 l 332 657 l 421 657 l 426 650 l 421 603 m 278 894 l 272 894 l 99 657 l 278 657 l 278 894 z "},"⁵":{"ha":413,"x_min":46,"x_max":356,"o":"m 350 922 l 343 918 l 288 922 l 139 922 l 135 779 l 193 765 q 314 713 275 747 q 353 622 353 678 q 292 496 353 543 q 133 449 232 449 q 51 457 104 449 l 46 503 l 51 508 q 135 499 92 499 q 248 531 206 499 q 290 618 290 564 q 165 717 290 690 l 88 732 l 83 740 l 88 964 l 97 975 l 146 974 l 276 974 l 351 976 l 356 972 l 350 922 z "},"⁶":{"ha":458,"x_min":57,"x_max":404,"o":"m 256 763 q 365 722 325 763 q 404 615 404 682 q 358 494 404 539 q 226 449 313 449 q 101 499 146 449 q 57 640 57 549 q 128 842 57 754 q 329 981 199 931 l 335 981 l 374 951 l 374 944 q 128 726 168 871 l 133 721 q 256 763 192 763 m 229 492 q 314 522 285 492 q 343 610 343 553 q 239 714 343 714 q 118 671 176 714 l 117 642 q 229 492 117 492 z "},"⁷":{"ha":408,"x_min":36,"x_max":368,"o":"m 329 974 l 367 975 l 368 926 l 190 546 l 149 446 l 94 460 l 90 471 l 303 919 l 107 919 l 40 915 l 36 924 l 42 975 l 119 974 l 329 974 z "},"⁸":{"ha":460,"x_min":57,"x_max":396,"o":"m 238 978 q 340 945 303 978 q 378 856 378 913 q 278 729 378 774 l 278 725 q 365 674 335 701 q 396 594 396 646 q 348 488 396 526 q 219 449 300 449 q 101 485 144 449 q 57 581 57 521 q 175 717 57 671 l 175 719 q 79 844 79 764 q 122 942 79 907 q 238 978 165 978 m 233 932 q 162 908 189 932 q 135 844 135 885 q 159 786 135 807 q 232 746 183 765 q 325 850 325 782 q 301 910 325 889 q 233 932 276 932 m 221 697 q 142 656 171 681 q 113 588 113 632 q 142 520 113 546 q 224 494 172 494 q 309 521 278 494 q 340 589 340 547 q 311 653 340 632 q 221 697 282 674 z "},"⁹":{"ha":460,"x_min":60,"x_max":407,"o":"m 236 982 q 363 931 318 982 q 407 788 407 881 q 335 585 407 674 q 133 449 264 497 l 128 449 l 90 478 l 90 486 q 336 701 296 557 l 331 707 q 208 667 271 667 q 99 707 139 667 q 60 815 60 747 q 106 937 60 892 q 236 982 151 982 m 224 715 q 346 760 288 715 l 347 788 q 235 938 347 938 q 149 907 179 938 q 119 821 119 876 q 147 742 119 769 q 224 715 174 715 z "},"₣":{"ha":533,"x_min":38,"x_max":517,"o":"m 194 368 l 331 368 l 451 369 l 456 361 l 450 317 l 193 317 l 193 213 l 193 190 l 357 190 l 361 186 l 358 149 l 194 149 l 196 0 l 135 0 l 136 149 l 43 149 l 38 154 l 42 190 l 136 190 l 136 208 l 135 686 l 511 686 l 517 679 l 510 635 l 196 636 l 194 368 z "},"€":{"ha":685,"x_min":26,"x_max":629,"o":"m 425 47 q 614 110 529 47 l 624 104 l 618 54 q 422 -7 524 -7 q 233 53 306 -7 q 139 226 161 113 l 31 226 l 26 232 l 31 274 l 132 274 q 129 335 129 313 q 132 390 129 372 l 31 390 l 26 396 l 31 438 l 138 438 q 238 626 161 561 q 439 692 314 692 q 629 636 543 692 l 615 585 l 607 583 q 436 639 535 639 q 280 588 339 639 q 203 438 221 536 l 479 438 l 485 432 l 481 390 l 196 390 q 193 339 193 374 q 197 274 193 306 l 479 274 l 485 268 l 481 226 l 206 226 q 425 47 246 47 z "},"ℓ":{"ha":515,"x_min":135,"x_max":488,"o":"m 481 0 l 135 0 l 136 208 l 135 688 l 203 688 l 200 214 l 201 58 l 482 58 l 488 51 l 481 0 z "},"™":{"ha":803,"x_min":40,"x_max":722,"o":"m 288 882 l 285 849 l 224 851 l 188 851 l 185 664 l 188 563 l 143 563 l 144 660 l 143 851 l 107 851 l 44 849 l 40 853 l 44 886 l 285 886 l 288 882 m 682 563 l 674 661 l 656 815 l 651 815 l 554 600 l 517 600 l 425 815 l 421 815 l 403 665 l 393 563 l 354 563 l 390 886 l 444 886 l 463 838 l 536 660 l 539 660 l 619 839 l 636 886 l 689 886 l 722 563 l 682 563 z "},"Ω":{"ha":1026,"x_min":61,"x_max":965,"o":"m 519 896 q 798 787 701 896 q 894 497 894 678 q 842 254 894 368 q 690 64 789 140 l 692 58 l 849 58 l 960 65 l 965 58 l 956 -3 l 828 0 l 651 0 l 597 -1 l 593 1 l 593 60 q 761 247 701 132 q 821 493 821 363 q 742 742 821 650 q 514 835 663 835 q 285 742 365 835 q 206 493 206 650 q 265 246 206 361 q 432 60 324 131 l 432 1 l 428 -1 l 374 0 l 183 0 l 67 -3 l 61 4 l 71 64 l 189 58 l 333 58 l 335 64 q 184 249 236 138 q 132 488 132 360 q 176 701 132 608 q 308 844 221 793 q 519 896 396 896 z "},"℮":{"ha":1096,"x_min":54,"x_max":1069,"o":"m 563 900 q 817 839 700 900 q 1001 673 933 778 q 1069 443 1069 568 l 1069 436 l 244 436 q 233 426 233 436 l 233 175 q 247 143 233 163 q 390 50 307 85 q 564 15 472 15 q 756 54 665 15 q 913 158 847 93 l 961 158 q 785 33 890 79 q 563 -12 681 -12 q 308 49 425 -12 q 122 215 190 110 q 54 443 54 319 q 122 673 54 568 q 308 839 190 778 q 563 900 425 900 m 564 872 q 390 839 471 872 q 249 746 308 806 q 233 711 233 728 l 233 474 q 244 463 233 463 l 881 463 q 892 474 892 463 l 892 717 q 876 750 892 732 q 735 840 817 808 q 564 872 654 872 z "},"⅛":{"ha":936,"x_min":21,"x_max":872,"o":"m 758 903 l 94 -125 l 63 -108 l 57 -93 l 721 936 l 753 918 l 758 903 m 213 553 l 214 369 l 149 369 l 150 544 l 150 821 l 28 788 l 21 792 l 21 843 l 206 896 l 214 888 l 213 553 m 714 524 q 817 491 779 524 q 854 401 854 458 q 754 275 854 319 l 754 271 q 842 219 811 247 q 872 140 872 192 q 824 33 872 72 q 696 -6 776 -6 q 577 31 621 -6 q 533 126 533 67 q 651 263 533 217 l 651 265 q 556 390 556 310 q 599 488 556 453 q 714 524 642 524 m 710 478 q 638 454 665 478 q 611 390 611 431 q 635 332 611 353 q 708 292 660 311 q 801 396 801 328 q 777 456 801 435 q 710 478 753 478 m 697 243 q 618 202 647 226 q 589 133 589 178 q 619 66 589 92 q 700 40 649 40 q 785 67 754 40 q 817 135 817 93 q 788 199 817 178 q 697 243 758 219 z "},"⅜":{"ha":985,"x_min":44,"x_max":921,"o":"m 807 903 l 143 -125 l 111 -108 l 106 -93 l 769 936 l 801 918 l 807 903 m 189 894 q 290 863 251 894 q 328 781 328 832 q 303 708 328 743 q 236 653 279 672 l 236 649 q 350 521 350 621 q 293 408 350 451 q 143 365 236 365 q 54 375 92 365 l 49 421 l 54 426 q 143 417 94 417 q 247 445 208 417 q 286 522 286 474 q 164 617 286 613 l 110 617 l 106 622 l 107 667 l 149 667 q 225 697 189 667 q 261 769 261 726 q 238 822 261 803 q 178 842 215 842 q 63 793 124 842 l 56 793 l 44 839 q 189 894 113 894 m 763 524 q 865 491 828 524 q 903 401 903 458 q 803 275 903 319 l 803 271 q 890 219 860 247 q 921 140 921 192 q 873 33 921 72 q 744 -6 825 -6 q 626 31 669 -6 q 582 126 582 67 q 700 263 582 217 l 700 265 q 604 390 604 310 q 647 488 604 453 q 763 524 690 524 m 758 478 q 687 454 714 478 q 660 390 660 431 q 684 332 660 353 q 757 292 708 311 q 850 396 850 328 q 826 456 850 435 q 758 478 801 478 m 746 243 q 667 202 696 226 q 638 133 638 178 q 667 66 638 92 q 749 40 697 40 q 834 67 803 40 q 865 135 865 93 q 836 199 865 178 q 746 243 807 219 z "},"⅝":{"ha":963,"x_min":46,"x_max":899,"o":"m 785 903 l 121 -125 l 89 -108 l 83 -93 l 747 936 l 779 918 l 785 903 m 350 838 l 343 833 l 288 838 l 139 838 l 135 694 l 193 681 q 314 628 275 663 q 353 538 353 593 q 292 411 353 458 q 133 364 232 364 q 51 372 104 364 l 46 418 l 51 424 q 135 414 92 414 q 248 447 206 414 q 290 533 290 479 q 165 632 290 606 l 88 647 l 83 656 l 88 879 l 97 890 l 146 889 l 276 889 l 351 892 l 356 888 l 350 838 m 740 524 q 843 491 806 524 q 881 401 881 458 q 781 275 881 319 l 781 271 q 868 219 838 247 q 899 140 899 192 q 851 33 899 72 q 722 -6 803 -6 q 603 31 647 -6 q 560 126 560 67 q 678 263 560 217 l 678 265 q 582 390 582 310 q 625 488 582 453 q 740 524 668 524 m 736 478 q 665 454 692 478 q 638 390 638 431 q 662 332 638 353 q 735 292 686 311 q 828 396 828 328 q 803 456 828 435 q 736 478 779 478 m 724 243 q 644 202 674 226 q 615 133 615 178 q 645 66 615 92 q 726 40 675 40 q 812 67 781 40 q 843 135 843 93 q 814 199 843 178 q 724 243 785 219 z "},"⅞":{"ha":932,"x_min":36,"x_max":868,"o":"m 754 903 l 90 -125 l 58 -108 l 53 -93 l 717 936 l 749 918 l 754 903 m 329 889 l 367 890 l 368 842 l 190 461 l 149 361 l 94 375 l 90 386 l 303 835 l 107 835 l 40 831 l 36 839 l 42 890 l 119 889 l 329 889 m 710 524 q 813 491 775 524 q 850 401 850 458 q 750 275 850 319 l 750 271 q 838 219 807 247 q 868 140 868 192 q 820 33 868 72 q 692 -6 772 -6 q 573 31 617 -6 q 529 126 529 67 q 647 263 529 217 l 647 265 q 551 390 551 310 q 594 488 551 453 q 710 524 638 524 m 706 478 q 634 454 661 478 q 607 390 607 431 q 631 332 607 353 q 704 292 656 311 q 797 396 797 328 q 773 456 797 435 q 706 478 749 478 m 693 243 q 614 202 643 226 q 585 133 585 178 q 615 66 585 92 q 696 40 644 40 q 781 67 750 40 q 813 135 813 93 q 783 199 813 178 q 693 243 754 219 z "},"←":{"ha":707,"x_min":29,"x_max":669,"o":"m 35 1029 l 35 1018 l -232 747 l -274 761 l -274 774 l -56 999 l -600 996 l -606 1001 l -601 1050 l -56 1049 l -274 1272 l -274 1286 l -232 1300 l 35 1029 z "},"↑":{"ha":707,"x_min":74,"x_max":626,"o":"m 344 640 l 356 640 l 626 374 l 613 332 l 600 332 l 375 550 l 378 6 l 372 0 l 324 4 l 325 550 l 101 332 l 88 332 l 74 374 l 344 640 z "},"→":{"ha":707,"x_min":32,"x_max":672,"o":"m 667 -389 l 667 -378 l 933 -107 l 975 -121 l 975 -133 l 757 -358 l 1301 -356 l 1307 -361 l 1303 -410 l 757 -408 l 975 -632 l 975 -646 l 933 -660 l 667 -389 z "},"↓":{"ha":707,"x_min":76,"x_max":629,"o":"m 358 -3 l 347 -3 l 76 264 l 90 306 l 103 306 l 328 88 l 325 632 l 331 638 l 379 633 l 378 88 l 601 306 l 615 306 l 629 264 l 358 -3 z "},"↖":{"ha":707,"x_min":140,"x_max":617,"o":"m 147 1048 l 155 1040 l 158 660 l 119 641 l 110 650 l 105 963 l -278 576 l -286 576 l -317 613 l 70 998 l -243 1002 l -252 1012 l -233 1051 l 147 1048 z "},"↗":{"ha":707,"x_min":88,"x_max":564,"o":"m 549 46 l 557 54 l 937 57 l 956 17 l 948 9 l 634 4 l 1021 -379 l 1021 -387 l 984 -419 l 599 -32 l 595 -344 l 585 -354 l 546 -334 l 549 46 z "},"↘":{"ha":707,"x_min":85,"x_max":561,"o":"m 554 -412 l 546 -404 l 543 -24 l 583 -5 l 591 -14 l 596 -327 l 979 60 l 987 60 l 1019 23 l 632 -362 l 944 -366 l 954 -376 l 934 -415 l 554 -412 z "},"↙":{"ha":707,"x_min":142,"x_max":618,"o":"m 157 593 l 149 585 l -231 582 l -251 622 l -242 630 l 71 635 l -316 1018 l -316 1026 l -278 1057 l 107 671 l 111 983 l 120 993 l 160 973 l 157 593 z "},"∂":{"ha":704,"x_min":58,"x_max":636,"o":"m 151 993 q 510 740 385 901 q 636 356 636 578 q 558 85 636 181 q 338 -10 481 -10 q 130 68 201 -10 q 58 283 58 146 q 131 501 58 422 q 338 579 204 579 q 543 500 446 572 l 551 506 q 100 949 476 814 l 100 960 l 142 993 l 151 993 m 339 47 q 510 126 451 47 q 568 353 568 206 q 565 422 568 378 q 343 519 453 519 q 181 459 238 519 q 125 283 125 399 q 180 108 125 168 q 339 47 235 47 z "},"∆":{"ha":788,"x_min":22,"x_max":753,"o":"m 22 0 l 361 888 l 443 888 l 753 0 l 22 0 m 113 63 l 661 63 l 404 804 l 396 804 l 113 63 z "},"∏":{"ha":903,"x_min":81,"x_max":822,"o":"m 747 274 l 750 0 l 678 0 l 682 269 l 678 826 l 228 826 l 225 274 l 228 0 l 154 0 l 158 269 l 154 825 l 86 825 l 81 833 l 88 888 l 817 888 l 822 879 l 815 825 l 751 825 l 747 274 z "},"∑":{"ha":657,"x_min":47,"x_max":638,"o":"m 631 822 l 519 826 l 140 826 l 422 457 l 422 442 l 135 61 l 500 61 l 624 65 l 631 57 l 625 0 l 47 0 l 47 53 l 343 450 l 53 831 l 53 888 l 515 888 l 631 889 l 638 879 l 631 822 z "},"−":{"ha":667,"x_min":49,"x_max":618,"o":"m 614 344 l 54 344 l 49 350 l 53 399 l 611 399 l 618 392 l 614 344 z "},"∕":{"ha":401,"x_min":47,"x_max":389,"o":"m 104 -154 l 53 -154 l 47 -147 l 331 939 l 382 939 l 389 931 l 104 -154 z "},"∙":{"ha":339,"x_min":118,"x_max":218,"o":"m 169 400 q 218 352 218 400 q 167 300 218 300 q 119 349 119 300 q 132 386 119 372 q 169 400 145 400 z "},"√":{"ha":715,"x_min":-31,"x_max":738,"o":"m 286 0 l 99 578 l -25 578 l -31 583 l -26 632 l 143 632 l 150 626 l 326 75 l 333 75 l 678 981 l 686 986 l 738 986 l 363 0 l 286 0 z "},"∞":{"ha":667,"x_min":-4,"x_max":671,"o":"m 507 553 q 626 501 582 553 q 671 367 671 449 q 627 234 671 282 q 510 186 583 186 q 408 221 447 186 q 335 322 368 256 q 160 186 272 186 q 40 237 85 186 q -4 371 -4 288 q 40 504 -4 456 q 158 553 83 553 q 332 426 269 553 q 507 553 392 553 m 163 501 q 75 467 107 501 q 43 372 43 432 q 74 275 43 311 q 158 239 106 239 q 247 275 213 239 q 308 376 281 311 q 250 469 282 436 q 163 501 218 501 m 504 500 q 415 465 447 500 q 357 368 383 431 q 421 270 388 304 q 508 236 454 236 q 592 271 560 236 q 624 367 624 306 q 592 463 624 426 q 504 500 560 500 z "},"∫":{"ha":361,"x_min":47,"x_max":426,"o":"m 332 992 q 426 979 382 992 l 422 926 l 415 922 q 332 938 374 938 q 206 796 208 938 l 206 72 q 180 -77 206 -21 q 81 -197 154 -133 l 47 -168 l 47 -158 q 123 -54 103 -100 q 143 68 143 -8 l 142 789 q 190 939 140 886 q 332 992 240 992 z "},"≈":{"ha":667,"x_min":103,"x_max":604,"o":"m 225 483 q 198 472 213 483 q 164 443 183 461 q 135 417 144 425 l 124 417 l 103 442 l 103 451 l 199 540 l 210 546 q 340 513 231 543 q 482 479 460 479 q 549 526 499 479 l 572 547 l 583 547 l 604 521 l 604 513 l 507 422 l 496 419 q 350 454 464 422 q 225 483 247 483 m 225 268 q 198 257 213 268 q 164 228 183 246 q 135 201 144 210 l 124 201 l 103 226 l 103 236 l 199 325 l 210 331 q 340 297 231 328 q 482 264 460 264 q 549 311 499 264 l 572 332 l 583 332 l 604 306 l 604 297 l 507 207 l 496 204 q 350 239 464 207 q 225 268 247 268 z "},"≠":{"ha":667,"x_min":49,"x_max":618,"o":"m 618 283 l 614 236 l 314 236 l 264 25 l 215 25 l 210 32 l 258 236 l 54 236 l 49 242 l 53 290 l 271 290 l 310 453 l 54 453 l 49 458 l 53 507 l 324 507 l 371 706 l 419 706 l 425 697 l 379 507 l 611 507 l 618 500 l 614 453 l 367 453 l 328 290 l 611 290 l 618 283 z "},"≤":{"ha":667,"x_min":49,"x_max":618,"o":"m 607 586 l 115 376 l 115 369 l 611 172 l 599 128 l 589 122 l 53 339 l 53 401 l 60 411 l 594 638 l 611 594 l 607 586 m 614 -110 l 54 -110 l 49 -104 l 53 -56 l 611 -56 l 618 -62 l 614 -110 z "}}}
